<svg width="157" height="160" viewBox="0 0 157 160" fill="none" xmlns="http://www.w3.org/2000/svg">
<g clip-path="url(#clip0_210_2385)">
<path d="M25.8 61.5391L25.6828 61.899C26.8714 60.7355 25.2727 58.9777 27.2313 57.2953C29.3239 55.5124 33.2413 53.6793 34.9154 54.0643C35.6938 54.3154 36.3551 54.8344 36.7736 55.5291C39.4856 55.6129 42.2395 52.9929 51.7315 53.9304C55.3056 54.282 55.247 54.2987 55.4479 54.2485C56.0004 54.1062 56.8458 52.9092 58.2353 52.7669C60.8552 52.4991 66.4885 55.0269 69.2005 57.1865C72.4817 59.8064 70.6486 61.514 70.6569 61.8655C70.8829 62.4598 71.2094 63.0039 71.6279 63.4727C73.1764 65.289 76.7924 66.9882 79.1278 77.1917C80.4921 83.1431 80.3666 86.1564 78.8683 91.2623C72.5737 112.724 59.0388 112.197 57.4652 114.499C55.6907 117.11 52.217 117.252 49.3459 117.294C46.8515 117.328 44.332 117.654 43.5117 116.173C43.1769 115.57 43.2439 115.411 42.4403 115.218C40.264 114.699 33.5594 112.188 33.3668 112.096C30.9059 110.975 29.3825 109.075 28.3446 108.815C27.1979 108.53 25.7582 109.51 24.896 108.514C23.7744 107.225 21.6232 108.129 17.1283 98.6199C15.789 95.7907 14.3493 92.5514 15.7472 89.5213C16.1992 88.542 17.438 87.0604 16.8521 85.7211C16.0318 83.8629 16.015 70.1522 25.7833 61.5224L25.8 61.5391Z" fill="#FF9A15"/>
<path d="M57.5405 82.281C56.4942 81.9797 55.4228 81.7955 54.343 81.7286C55.155 80.7911 56.4356 80.4395 57.5071 79.8117C59.1979 78.8492 60.2358 77.0495 60.2358 75.1076C60.1688 74.3291 60.0098 73.5674 59.7503 72.8392C58.6454 69.2065 57.9172 68.6456 55.5568 67.7082C54.5942 67.4654 53.665 67.0888 52.7862 66.6116C52.1333 66.0927 51.857 64.7534 51.539 64.0001C49.1116 58.3082 45.5039 63.5816 46.793 67.5073L45.2026 67.8421C44.8092 66.0592 44.3153 64.1173 42.8254 63.071C41.1513 61.8991 39.6195 64.1759 39.4521 65.9504C39.36 66.9967 40.1134 68.0765 38.6569 68.2188C37.7446 68.3108 36.8573 68.5787 36.0454 69.0056C33.7184 70.236 34.8903 72.2784 36.1626 72.7974C37.3093 73.2661 37.7529 73.1991 37.778 75.2415C37.8115 78.3972 38.682 81.5863 39.3266 84.6498C39.653 86.2067 41.0509 94.0833 40.8751 94.4683C40.7161 94.8115 39.6363 95.1379 38.8662 95.9331C38.071 96.5776 37.9538 97.7495 38.5983 98.5447C38.7406 98.7205 38.908 98.8628 39.1006 98.9716C41.4024 100.754 43.9303 99.8505 44.4911 100.554C44.9766 101.173 44.8678 103.249 45.9141 104.722C47.5379 107.016 51.246 105.86 50.1244 99.4654L52.0579 99.0385C53.3972 107.099 58.5701 105.634 58.4278 101.876C58.3357 99.5408 57.3229 99.4571 59.4239 98.0508C60.9724 97.1803 62.1275 95.7573 62.6716 94.0665C62.9394 92.2501 62.9227 90.4003 62.6297 88.5839C62.094 85.8384 60.3028 83.1599 57.5656 82.2559L57.5405 82.281ZM45.7215 77.5936C45.5039 76.4636 45.211 75.3503 44.851 74.2622C44.4744 72.6802 46.6339 72.4877 47.6718 72.2031C53.7404 70.5457 56.3268 77.468 46.4247 78.3051C46.0313 78.3051 45.7215 77.987 45.7215 77.5936ZM50.8777 93.7485C50.6266 93.7485 50.3839 93.7233 50.1327 93.6815C50.2248 93.4471 49.4631 94.1502 48.76 93.4471C47.7388 92.4427 47.6718 89.0359 47.1613 88.2407C46.2154 86.7759 53.6818 84.4071 54.7281 89.5298C55.1633 91.6559 53.1796 94.2758 50.8777 93.7401V93.7485Z" fill="white"/>
<path d="M80.8103 81.8875C80.3499 75.8357 77.3951 67.4904 71.3099 61.9409C74.8673 56.634 58.4362 48.5566 55.1299 53.696C49.5887 52.4321 43.2523 52.4321 37.7948 54.3991C37.527 54.5331 37.234 54.6 36.9411 54.6C36.7318 54.5331 36.4472 52.9176 34.2709 53.1938C31.6259 53.7965 29.1566 55.0102 27.0556 56.7345C26.1516 57.4794 25.3062 58.1491 25.5824 59.6306C26.0595 61.8153 25.3732 59.9571 21.5479 65.2806C17.1869 71.5082 15.3371 79.1504 16.3834 86.6837C11.018 90.3918 16.8521 100.545 20.5686 105.936C22.5524 108.756 25.5573 110.816 28.5372 109.275C32.3039 112.783 37.0917 114.992 42.206 115.578C43.2607 119.998 57.1723 118.567 58.3693 115.068C58.9719 113.31 58.0177 115.377 64.329 111.761C74.8171 108.053 81.4632 90.7183 80.827 81.8791L80.8103 81.8875ZM78.8265 86.441C76.985 94.8951 74.9677 101.215 68.7569 107.308C67.3925 108.564 65.8273 109.602 64.1448 110.372C63.0985 110.79 61.8597 111.854 58.5283 113.143C57.7415 110.138 51.0452 110.891 51.1289 111.435C51.1875 111.795 58.1851 111.694 57.0467 114.231C56.0925 116.876 41.6954 117.93 43.7629 114.231C44.918 112.598 48.7266 112.347 48.7182 111.979C48.7098 111.586 43.0849 111.351 42.2395 114.373C37.7111 113.176 33.4255 111.209 29.5667 108.556C29.9685 108.171 30.3117 107.719 30.5796 107.233C35.4009 110.807 40.1804 111.954 40.2557 111.661C40.3311 111.368 36.2463 110.447 30.9479 106.429C32.5215 102.161 28.7046 97.4481 28.5372 97.5401C28.1521 97.741 30.6381 101.524 30.1192 104.647C29.6839 107.267 27.6332 109.008 25.1555 107.945C22.8788 107.041 20.8197 103.399 19.2209 100.595C17.3627 97.3058 14.1401 90.5425 16.9609 88.0481C18.2165 86.8679 20.4932 86.4745 22.7198 87.9142C24.6198 89.1781 25.5406 91.0782 25.7498 90.9778C26.0428 90.8355 24.2348 86.282 20.2086 85.7881C19.7064 81.6364 20.669 78.7821 20.3928 78.6984C20.1501 78.6231 18.928 81.8122 19.3465 85.7463C18.7103 85.763 18.0742 85.8886 17.4799 86.1146C16.3499 69.7755 26.8296 62.2255 27.1895 61.5977C27.9513 60.1747 26.9719 59.3377 27.3653 58.7936C27.8759 57.7557 34.0198 54.282 35.1582 54.9097C35.1582 54.9097 35.1916 54.9181 35.3423 55.1608C37.3512 58.6346 40.1804 52.2145 54.7784 54.7926C54.5189 57.2786 59.8173 59.413 59.9429 58.8187C60.0182 58.509 54.6277 55.9142 56.5278 54.2317C59.2565 51.9131 68.0789 56.4248 69.8618 59.0866C71.0671 60.8025 70.1715 63.0625 65.1744 61.6228C64.3541 61.3801 63.8853 61.2126 63.8267 61.3215C63.6007 61.6981 67.9199 64.3766 70.4979 62.736C77.2947 69.4826 80.1741 80.3976 78.8432 86.4326L78.8265 86.441Z" fill="black"/>
<path d="M31.2826 62.7026C28.3195 61.7317 24.8542 66.8543 25.256 67.0552C25.3146 67.0887 25.5657 66.6702 26.1097 66.0089C29.2068 62.3176 33.1911 62.0163 31.5086 67.1473C31.3664 66.3019 30.5628 65.7243 29.709 65.875C29.6839 65.875 29.6588 65.8834 29.6337 65.8918C27.5662 66.1596 27.9763 67.9006 24.3017 72.6383C22.6779 74.8313 24.3436 75.7772 25.482 75.5177C22.9039 77.3257 21.5311 75.9278 21.7404 74.0529C21.9999 71.592 23.5233 69.491 23.3643 69.3822C23.2052 69.2734 21.4977 71.7594 21.1377 73.9859C20.828 75.9781 22.1254 77.2001 23.5484 77.1416C28.3112 76.9239 35.9198 64.1591 31.291 62.7026H31.2826ZM25.3313 75.0908C24.6114 75.1745 23.9753 74.7141 24.1594 74.0027C24.3854 73.107 25.4652 72.3955 27.1979 69.4073C27.6164 68.5535 28.1103 67.7416 28.6711 66.9883C29.1649 66.3772 30.0438 66.2433 30.7051 66.6786C32.3038 68.2606 27.4072 74.823 25.3229 75.0992L25.3313 75.0908Z" fill="black"/>
<path d="M71.6364 70.7884C71.4857 70.8805 74.2312 75.8442 73.277 77.627C72.825 78.5143 71.8624 78.6733 70.791 77.4596C71.6196 77.1416 72.1051 76.2794 71.9461 75.4089C71.8205 74.3626 69.8284 70.5792 69.753 70.4369C68.6481 68.4615 66.9238 68.4782 66.2542 69.491C66.0868 67.2394 67.6856 66.1094 70.0293 68.6456C72.0047 70.6796 70.0041 67.909 69.3847 67.4152C67.2921 65.3979 64.8312 67.2896 65.6515 70.5708C66.0952 72.3453 68.7402 76.3966 70.1046 77.9451C72.1888 80.3223 74.34 78.7487 74.2145 76.6393C74.0889 74.3291 71.854 70.621 71.6447 70.7884H71.6364ZM66.3463 70.1272C66.497 70.1355 66.3881 69.6417 67.0578 69.3822C68.6147 68.7209 69.661 71.5585 70.0627 72.3453C70.9584 74.1701 71.335 74.823 71.4355 75.4842C71.6113 76.1873 71.2011 76.9072 70.5064 77.1164C69.4182 75.7437 66.7313 71.7845 66.3463 70.1272Z" fill="black"/>
<path d="M69.619 95.975C68.4555 97.1217 66.5889 100.989 65.9863 102.738C65.1492 105.467 67.3339 106.404 68.9075 105.333C70.6318 104.17 72.4398 100.78 72.1971 100.679C72.0381 100.587 69.4767 104.915 67.7106 104.99C66.8652 105.04 66.3378 104.421 66.748 103.115C67.3758 103.575 68.2379 103.542 68.8238 103.031C69.2256 102.688 69.5688 102.286 69.845 101.834C71.0169 100.076 73.2434 97.3645 71.4521 96.201C71.2764 96.0754 71.0671 95.9917 70.8495 95.9666C72.2641 95.0291 73.5782 95.6234 73.3104 97.3645C73.2685 97.7411 73.1932 98.1094 73.0927 98.4777C72.5068 100.888 73.6033 98.2936 73.7875 97.4398C74.3316 94.8785 71.7953 93.8489 69.6274 95.9833L69.619 95.975ZM70.3389 96.4186C70.8327 96.1926 71.6112 96.6111 71.5861 97.5486C71.5861 98.3522 71.0587 98.9548 69.3763 101.525C69.1419 101.935 68.8406 102.303 68.4974 102.629C68.0621 103.056 67.3674 103.09 66.8903 102.705C67.4009 101.382 69.2424 97.4231 70.3221 96.3851L70.3389 96.4186Z" fill="black"/>
<path d="M22.3767 91.6474C20.4766 89.1781 18.4007 89.6552 18.1496 91.7813C18.0241 93.3968 18.5012 94.9955 19.4805 96.2846C19.6814 96.1841 18.384 94.1418 18.7523 91.8818C18.8611 91.1619 19.3131 90.5341 20.0748 90.735C20.0581 94.9872 21.322 97.0295 23.3141 100.076C24.2767 101.617 25.5909 102.914 27.1394 103.868C27.1645 104.312 26.9887 104.747 26.6539 105.04C25.3984 105.643 23.7243 103.048 22.7868 101.868C20.3678 98.8794 23.7829 104.178 24.486 104.898C26.2019 106.706 28.3029 105.844 27.8593 102.839C27.5579 100.955 25.6411 95.8995 22.385 91.6474H22.3767ZM22.5273 97.7996C21.2718 95.707 20.5603 93.3298 20.4682 90.894C22.6445 92.0826 26.9385 101.005 27.1227 103.391C24.9547 101.876 23.8833 99.9508 22.519 97.7996H22.5273Z" fill="black"/>
<path d="M67.1079 60.543C67.5516 60.4928 67.9282 60.1831 68.0538 59.7478C68.3886 58.4672 63.6426 56.3746 63.5338 56.6173C63.4752 56.7429 67.4093 59.1954 67.3005 59.5553C67.1916 59.9738 66.3379 59.5972 65.9361 59.4298C64.9233 59.0196 59.0891 56.3997 59.1226 55.3785C59.131 54.8763 61.2068 55.4957 61.257 55.412C61.3407 55.2613 60.1689 54.5749 59.1561 54.6838C58.4613 54.7172 58.093 55.7301 59.3067 56.7512C60.9222 58.0654 65.8524 60.7021 67.0996 60.5347L67.1079 60.543Z" fill="black"/>
<path d="M45.3699 114.892C45.3616 115.118 47.5379 115.377 50.2164 115.101C52.8949 114.825 54.9791 114.139 54.9206 113.913C54.862 113.678 52.7443 113.988 50.1243 114.247C47.5044 114.507 45.3699 114.649 45.3616 114.892H45.3699Z" fill="black"/>
<path d="M63.7179 91.4466C63.6928 85.8552 60.7297 81.4021 54.6025 81.6449C65.7184 78.0875 60.8385 66.8711 52.9787 66.4191C52.4932 64.1424 52.0161 61.5308 49.7896 60.903C47.697 60.3004 45.1607 62.2088 46.1401 67.2729C46.048 67.2897 45.9476 67.3064 45.8555 67.3231C44.4241 60.6017 38.2803 60.5515 39.2596 67.1808C33.4924 67.591 32.9902 71.1149 34.9405 72.6132C38.1045 74.982 36.1291 69.5245 38.4477 84.156C40.3561 96.1926 40.7244 94.0247 39.4856 94.778C36.6983 96.4772 37.0833 99.8337 41.5698 100.922C44.851 101.692 43.9973 100.135 44.5246 102.763C45.9224 108.983 52.0747 106.421 50.6685 99.8003C50.8861 99.7835 51.1205 99.7668 51.4385 99.7165C51.5976 105.408 55.7577 106.672 57.6745 104.956C58.612 104.111 59.064 102.847 58.8631 101.6C58.6957 100.972 58.2353 100.135 58.1432 99.8086C61.5667 98.4526 63.7849 95.1128 63.7095 91.4382L63.7179 91.4466ZM61.3574 95.2133C59.4992 98.6117 54.8453 99.4236 54.9457 100.06C55.0043 100.42 56.2348 100.252 56.7454 100.127C56.9546 100.847 57.348 101.449 57.4736 101.96C57.5406 102.68 57.2643 103.391 56.7454 103.893C55.9167 104.446 54.8034 104.295 54.1505 103.542C53.0457 102.529 52.8866 100.754 52.8615 99.3817C53.2382 99.2478 54.3347 98.7456 54.2091 98.4526C54.0836 98.1597 52.5183 98.5196 50.794 98.6535C48.9525 98.8125 47.3873 98.9967 47.3873 99.3315C47.3873 99.5324 48.1155 99.7584 49.2036 99.817C50.4173 104.513 46.9771 107.417 45.5039 102.521C44.3572 98.5782 43.3109 95.682 43.9638 99.7333C40.3645 99.8923 37.1754 97.7997 40.0464 95.6151C41.8712 94.2758 43.855 94.1586 43.855 93.9242C43.855 93.8322 43.4281 93.715 42.6496 93.7736C42.1725 93.8154 41.7038 93.8991 41.2434 94.0247C40.624 88.3077 39.1592 79.0919 37.9957 73.626C40.0632 73.8186 41.2936 73.4168 41.2601 73.2745C41.2518 73.0485 39.653 73.174 37.3009 72.5211C33.8356 71.5 34.7145 68.8465 39.4521 68.6038L39.427 68.1016C39.4772 68.3192 39.8121 69.7589 40.0297 69.7087C40.398 69.625 39.4187 65.0799 40.8667 63.8327C42.4153 62.5018 44.0726 65.6742 44.4827 67.7919C43.6206 68.2188 43.1435 68.7461 43.269 68.9302C43.4448 69.1981 44.5916 68.7712 46.0145 68.4615C47.4375 68.1351 48.6512 68.0262 48.7014 67.7082C48.7349 67.4989 48.1155 67.2311 47.1864 67.2059C47.1278 66.1513 47.0859 64.2428 47.5965 63.3221C48.1406 62.3176 49.1199 61.8656 50.0658 62.619C50.9363 63.3053 51.1958 64.4856 51.9491 66.4359C51.1205 66.5112 50.6685 66.7288 50.7019 66.8125C50.7187 67.0469 52.217 66.8544 54.3263 67.6412C57.0718 68.5954 59.0891 70.9559 59.5997 73.8186C60.7799 80.992 47.3873 81.9713 53.5981 82.2643C56.126 82.4317 58.6036 82.7916 60.2023 84.7587C62.161 87.0605 63.1738 92.0074 61.3491 95.2049L61.3574 95.2133Z" fill="black"/>
<path d="M53.682 74.145C53.0374 70.5457 47.5381 70.7215 44.9265 72.6634C44.667 72.3454 43.7714 71.5 43.5705 71.726C43.3529 71.9687 44.6838 73.3917 45.0521 75.6433C45.479 77.8782 44.7173 79.6778 45.0102 79.8285C45.253 79.9624 45.7636 79.0417 45.9477 78.5311C50.0492 79.276 54.2846 77.0244 53.682 74.145ZM46.157 77.7694C46.4583 76.2292 46.1821 74.6305 45.3702 73.2912C47.1028 72.27 49.9153 72.0775 51.1625 72.6969C54.3516 74.2454 51.874 78.1963 46.157 77.7777V77.7694Z" fill="black"/>
<path d="M55.5818 89.1113C54.795 86.1649 50.5931 84.4992 46.8432 87.2195C46.2907 86.6336 45.8387 86.416 45.7383 86.5164C45.4788 86.7759 48.2745 90.0487 47.4793 94.1502C47.3286 94.9538 47.0608 95.4309 47.1863 95.5397C47.2868 95.6485 47.8476 95.3053 48.2578 94.4013C48.8018 93.196 47.8895 93.8489 50.1411 94.2507C53.891 94.9036 56.3184 91.8065 55.5818 89.1113ZM54.0919 91.7144C53.2047 93.129 51.246 93.8573 48.7098 92.9616C48.3833 92.8444 49.3208 90.5761 47.337 87.8222C52.0328 85.1186 55.9669 88.743 54.0919 91.7144Z" fill="black"/>
<path d="M46.2071 49.9462C47.4543 49.9713 49.0698 50.6995 50.9113 50.7498C52.3259 50.7832 53.7823 50.2475 54 49.7955C54.1674 49.444 53.3387 45.3257 53.2717 44.9742C53.1797 44.5389 52.9871 44.338 52.3175 44.6561C48.9191 46.28 46.3327 44.8151 44.8009 44.5222C42.9929 44.179 41.9466 44.924 41.821 45.4429C41.8964 46.4223 42.0303 47.3932 42.2228 48.3558C42.3233 48.8999 42.3567 50.2224 42.7836 50.6242C43.3947 51.1934 44.5079 49.9127 46.2071 49.9462Z" fill="#FF527B"/>
<path d="M54.385 49.8541C53.7488 47.795 53.8827 46.8156 53.3973 43.9781C53.3136 43.5093 50.4258 45.7191 47.1362 44.8318C45.6044 44.4217 43.1268 43.4172 41.3439 44.9155C41.2937 49.0756 42.0554 53.2022 43.5788 57.0694C40.5069 56.1319 37.6609 57.2116 37.7614 57.5046C37.8618 57.7976 40.7747 56.7345 43.9889 58.1324C45.7467 58.8941 45.4538 59.0197 45.6212 58.8439C47.4794 55.6548 49.3878 55.8724 49.3041 55.4957C49.2707 55.1944 46.7512 55.6296 45.3115 57.7557C45.0771 55.9896 44.374 53.1185 43.8215 50.7581C46.3745 49.4858 47.0525 51.0343 51.1456 51.0678C52.3175 51.1431 53.481 50.7916 54.4184 50.0717C54.477 50.0215 54.3933 49.9294 54.385 49.8541ZM53.6149 49.8039C52.4682 50.825 49.1451 50.44 47.6301 50.1052C42.1809 48.9082 44.7925 53.8049 42.4488 45.2336C45.0604 44.1204 47.8895 47.3681 52.7695 44.9658V44.9909C52.7946 45.0746 52.8448 45.4512 52.9704 46.3301C53.1043 47.502 53.3219 48.6571 53.6149 49.7955V49.8039Z" fill="black"/>
<path d="M156.236 70.1522C157.106 68.3107 154.453 68.3275 153.189 64.7784C152.36 62.4347 153.382 55.7133 153.189 55.6129C153.105 55.571 151.766 54.6754 151.682 54.6084C144.032 49.2011 143.789 50.599 142.425 43.4758C141.814 40.3202 141.914 41.1321 142.383 37.9346C142.509 37.0808 142.81 36.52 142.123 36.4949C137.403 36.294 133.083 34.3437 130.89 32.3516C126.663 28.5012 125.55 26.7267 124.202 24.09C123.6 22.6084 123.19 21.0599 122.98 19.4695C122.93 18.7078 122.888 19.1096 119.063 19.344C115.405 19.955 111.647 19.662 108.131 18.4734C104.03 17.0003 101.033 14.8574 97.978 8.66335C97.8106 8.31179 97.7269 7.92676 97.5428 7.58357C97.1745 6.90557 88.7957 9.98587 82.8444 9.04839C80.1491 8.50431 77.5208 7.66727 75.0097 6.56238C73.3775 5.74208 69.7698 3.3063 68.4808 1.68245C67.92 0.979332 67.3759 -0.267856 66.6644 0.217627C63.1991 2.61156 55.7243 5.42401 51.74 4.79623C36.5645 2.39393 39.5946 -1.62386 37.82 1.68245C34.6979 7.51661 24.2014 10.5551 16.2914 5.71697C15.9315 5.44912 15.5213 5.26497 15.0777 5.1729C15.4125 10.2705 15.5381 9.51713 13.8556 15.2425C13.4622 17.0086 12.6419 18.6576 11.47 20.0387C9.98849 22.1146 8.12189 23.8891 5.9707 25.2618C7.37693 25.9482 8.73293 26.735 10.0303 27.6139C14.5085 30.5017 17.028 32.5859 16.6513 39.4245C16.5844 40.5462 16.4253 41.5171 15.9231 45.016C27.6249 38.487 34.4468 47.9958 34.5305 48.0544C35.5684 45.8781 38.8496 43.2833 40.6241 42.463C42.8339 41.4418 49.1368 40.2783 53.0458 41.4669C56.2098 42.4295 58.6707 44.656 58.9051 44.7146C59.2901 44.8151 60.1522 43.7855 60.5373 43.5679C63.3079 41.9859 65.6432 39.9016 72.0717 41.5171C75.152 42.2872 77.2529 45.0411 79.1028 47.6108C83.7316 43.7269 93.1065 45.1248 97.1494 49.5694C99.0327 51.6453 98.6309 53.6709 98.9155 53.8969C99.175 54.1062 100.64 53.6458 101.653 53.5119C104.222 53.1855 106.717 54.3238 109.052 55.4371C112.45 57.0609 111.136 57.5799 112.894 58.4588C112.978 58.5006 129.811 61.9576 124.261 70.7549C133.008 79.0751 130.974 81.0923 130.957 81.0086C131.292 82.5237 142.015 84.8088 143.153 89.7641C149.866 79.6442 155.851 85.1771 155.458 83.1514C155.215 81.8624 154.553 81.854 154.302 79.8033C153.909 76.6477 154.897 73.0065 156.253 70.1439L156.236 70.1522Z" fill="#FDFE1F"/>
<path d="M135.77 72.7973C133.711 72.1444 133.251 68.9301 136.147 67.005C137.369 66.193 138.842 65.7996 141.06 65.0881C142.098 64.7617 143.253 64.4352 144.233 64.9124C145.547 65.5569 146.116 67.4569 144.919 69.3403C146.032 70.328 148.301 69.0724 148.585 71.3241C148.987 74.4713 149.473 73.5004 145.773 75.9696C144.224 76.9992 141.63 78.757 139.78 78.7737C135.904 78.8072 137.763 73.3413 137.721 73.0065C137.637 72.3787 136.967 73.1656 135.779 72.7889L135.77 72.7973Z" fill="white"/>
<path d="M143.086 55.7384C142.45 52.0554 138.399 49.8289 135.687 50.9254C126.412 54.667 125.784 67.6997 137.185 64.2511C138.131 64.0586 138.984 63.5396 139.604 62.7946C141.78 60.4593 143.588 58.6429 143.078 55.7468L143.086 55.7384ZM137.093 58.7099C132.665 62.644 130.874 59.9487 135.368 56.6089C136.222 55.9728 137.16 55.0102 138.315 55.1525C138.7 55.1608 139.01 55.4705 139.018 55.8556C139.043 57.0609 137.921 57.9733 137.093 58.7099Z" fill="white"/>
<path d="M133.452 40.1946C130.338 34.486 122.93 37.4826 119.448 45.8279C116.468 52.9762 122.428 57.8477 127.911 54.0643C130.254 52.4488 133.025 48.2385 133.77 46.1292C134.498 44.1956 134.381 42.0361 133.452 40.1862V40.1946ZM129.057 45.0662C128.346 46.7151 125.793 50.2558 124.671 50.8501C124.336 51.0342 123.91 50.9254 123.709 50.599C122.612 48.9416 124.579 46.8574 125.274 45.4428C126.119 43.7269 128.153 41.0567 129.308 42.5299C129.869 43.2414 129.375 44.3463 129.066 45.0662H129.057Z" fill="white"/>
<path d="M104.783 29.74C100.79 36.6707 100.355 37.2901 99.9869 38.6126C99.1582 41.5841 101.033 43.5679 102.866 43.2498C105.21 42.848 106.792 39.1734 107.587 37.2148C107.42 37.9765 107.512 38.7717 107.855 39.4664C108.474 40.2281 109.504 40.5127 110.425 40.1695C111.312 39.818 112.124 39.2823 112.785 38.5875C112.442 41.8938 107.838 46.2046 110.734 48.5064C112.224 49.6113 114.292 49.4272 115.573 48.0879C116.786 46.7235 120.436 36.1936 120.519 34.6702C120.586 33.4983 120.126 31.0123 119.306 30.2673C117.556 28.6853 114.995 31.0709 112.316 32.9794L111.588 28.5096C111.32 26.8941 110.274 24.9605 108.282 25.5632C106.692 26.0403 105.536 28.4175 104.783 29.7316V29.74Z" fill="white"/>
<path d="M88.0508 20.1308C86.385 25.0944 86.3097 30.4263 86.2595 35.6495C86.1256 36.5367 86.4771 37.424 87.1886 37.9764C89.1891 39.751 93.3074 39.9602 93.684 39.8849C94.7722 39.6673 95.1405 38.5205 95.2744 37.424C95.4502 35.8838 95.1488 34.7287 93.4748 34.0089C90.8465 32.8789 91.0139 34.6283 91.5077 31.6066C92.9642 31.7823 95.7348 31.6066 96.396 30.3761C96.7225 29.5893 96.7057 28.7104 96.3626 27.932C95.8854 27.254 93.2404 26.5006 92.4452 26.2746C92.5875 25.5129 92.7633 24.7596 92.9725 24.023C94.5378 23.8891 96.8062 24.701 98.0617 23.3031C98.8318 22.2401 98.7063 20.7669 97.7688 19.8462C96.2621 18.2558 93.2488 18.1386 91.0641 18.2307C89.2979 18.306 88.6367 18.373 88.0508 20.1308Z" fill="white"/>
<path d="M75.537 22.4243C77.4036 13.3843 74.5409 11.2414 72.8668 13.0662C72.4818 13.5433 72.1972 14.1041 72.0298 14.6984C70.3557 19.4947 69.3596 24.5001 69.0583 29.5726C68.8993 31.4308 68.7821 33.4397 69.7782 35.0217C70.0293 35.457 70.4059 35.8085 70.8496 36.0262C71.5276 36.2689 72.2725 36.2773 72.9589 36.0513C74.0387 35.6244 74.4488 34.3437 74.7167 33.2137C75.2106 31.5062 75.4114 29.7316 75.3026 27.9571C75.83 27.9069 77.7719 27.8567 78.0649 28.1496C78.2825 28.3673 78.2155 28.3422 77.3283 33.9168C76.96 36.2271 80.576 38.914 82.4593 36.7377C83.8321 35.1557 84.9537 25.1781 84.5435 18.2558C84.4682 16.9835 84.2757 15.0751 83.0034 14.7068C80.3751 13.9451 79.7724 19.7876 79.1697 22.734C77.9728 22.5498 76.7591 22.4494 75.5454 22.4243H75.537Z" fill="white"/>
<path d="M28.2779 33.6824C28.7969 35.5658 29.3326 38.4703 31.8018 38.6879C33.4341 38.8302 34.9658 37.4658 34.3213 34.3102C33.5847 30.6858 31.5591 27.4549 30.563 23.8974C30.3119 22.5833 29.8599 21.311 29.2154 20.1391C30.0692 19.6453 34.3966 17.0253 34.5892 15.9623C34.7398 15.1002 33.3503 13.56 32.4882 13.3005C29.8766 12.5304 18.0828 16.9751 18.1665 21.4282C18.1999 23.3868 20.5018 23.3115 22.4186 22.9516C22.946 22.8511 23.9588 22.2987 24.4443 22.374C25.0637 22.4745 25.2729 25.0693 25.4822 25.7724C26.2941 28.4509 27.558 30.9704 28.2946 33.6657L28.2779 33.6824Z" fill="white"/>
<path d="M50.3673 21.3445C49.9404 19.0845 49.1536 16.8998 48.0403 14.8825C45.3869 10.7559 37.9958 9.85193 35.8363 18.2893C35.1499 20.7837 35.1917 23.4203 35.9618 25.8896C36.4055 27.3126 38.0963 30.9955 39.1258 32.0669C40.6911 33.6908 44.2067 34.9296 46.609 33.582C48.7016 32.4101 49.3879 29.9827 49.8148 27.6306C50.2501 25.5632 50.4426 23.4538 50.3756 21.3445H50.3673ZM44.4745 28.8946C43.0181 31.1044 41.6788 26.0319 41.1012 23.4789C39.9378 18.3897 41.8881 15.4434 43.6124 17.0421C44.6921 18.0633 45.7552 26.9526 44.4745 28.8946Z" fill="white"/>
<path d="M59.7923 16.4813C58.6205 16.4478 57.4821 16.1297 56.4609 15.5605C54.8203 14.464 54.0419 11.367 58.7209 11.1075C62.2449 10.9066 68.8993 10.3709 69.0081 13.6102C68.9579 14.5728 68.3469 15.4266 67.4429 15.7698C66.5556 16.0962 65.6097 16.2469 64.6639 16.205C64.8732 17.3685 65.0071 18.5488 65.0573 19.7373C65.0322 20.3819 65.0573 21.0264 65.1075 21.6709C65.2498 22.0727 65.3503 22.4912 65.3921 22.9097C65.3084 25.8561 65.0657 28.8025 64.6472 31.7237C64.0696 35.7834 61.0563 35.3732 59.7421 32.2427C57.9341 27.9236 59.0892 22.6837 59.9263 16.565L59.784 16.4813H59.7923Z" fill="white"/>
<path d="M155.106 79.0918C154.796 73.5924 157.09 69.424 156.504 69.1227C156.713 68.7795 155.441 68.1349 154.269 65.4146C152.16 60.5346 154.026 55.9477 153.44 55.7217C153.842 54.826 145.179 52.3065 143.161 43.7436C142.174 39.5417 143.019 36.6623 142.567 36.5702C142.592 36.0429 135.41 35.6746 130.045 30.7695C123.365 24.542 123.541 18.9254 122.897 18.9757C122.796 18.2725 115.255 19.7876 107.947 17.4271C104.683 16.2469 101.887 14.0455 99.9618 11.1577C96.5802 6.36147 99.2001 7.15666 92.6294 7.83466C86.7282 8.4457 80.5593 8.15274 75.2273 5.68347C69.8786 3.15562 67.4177 -0.276244 67.0327 0.0585716C66.5723 -0.569208 62.1611 3.68295 52.803 3.80851C43.6124 3.82525 38.8663 -0.226022 38.4562 0.385017C38.1381 0.184127 36.8742 2.42739 34.2375 4.32747C32.6639 5.44073 31.2577 6.21081 27.6584 6.68792C24.3353 7.12318 21.8242 7.38266 18.6518 6.3531C14.0565 4.7711 15.0024 3.54065 14.6089 8.47081C13.1525 22.4494 5.25085 24.4666 5.71122 25.4041C5.52708 26.1407 15.0024 28.0157 16.2412 37.7002C17.254 45.5851 13.0772 46.1543 18.769 44.3547C30.2532 40.9396 33.9278 48.5901 34.5305 48.2804C34.9825 48.4813 37.7196 42.237 45.9058 41.5087C53.8577 40.7052 58.6791 45.2922 59.0725 44.8485C59.4408 45.2587 63.4418 41.4836 69.728 42.2035C75.6626 42.8229 78.7429 47.887 79.22 47.5773C79.5464 48.113 83.8405 44.9657 90.746 46.8156C93.3241 47.4852 95.9106 48.7742 97.3754 50.9924C99.6521 54.4745 97.5093 54.1982 101.15 54.3071C104.515 54.3322 107.805 55.345 110.592 57.2283C113.279 59.1117 111.99 58.3834 115.204 59.4046C125.701 62.7109 123.784 70.9307 124.378 71.0813C124.42 71.3241 125.115 71.4245 126.019 72.1276C129.342 74.781 129.66 75.3921 130.405 79.5773C130.765 81.7871 130.823 81.8456 133.083 82.7915C135.712 83.9131 138.131 84.7251 140.307 86.6837C142.199 88.3829 142.81 90.3834 143.22 90.2746C144.107 90.5341 144.785 84.6079 153.331 83.8964C156.931 83.6285 155.382 84.2228 155.098 79.1085L155.106 79.0918ZM143.555 87.8556C143.019 89.1781 143.438 89.1614 142.894 87.8221C142.048 85.9806 140.634 84.4739 138.851 83.5197C135.946 81.8959 131.995 81.2095 131.183 81.4522C131.677 80.7491 131.711 78.3636 131.568 77.2085C131.376 75.1912 130.296 73.3581 128.622 72.203C127.634 71.4915 125.801 70.395 124.646 70.8135C125.065 69.9764 125.257 69.0389 125.199 68.1015C125.199 63.5061 121.105 58.9443 115.472 58.1909C113.815 57.9649 112.727 58.1323 112.492 58.3249C112.375 57.5464 111.982 56.8266 111.396 56.2992C109.261 53.8467 104.783 52.3149 101.033 53.0766C98.4384 53.604 99.1332 54.4828 99.108 53.0515C98.9657 46.3636 88.8041 42.8564 82.2585 45.493C76.8428 47.6191 81.2289 48.7994 77.4873 44.4719C75.5454 42.2453 72.8418 40.8224 69.9121 40.4792C64.1366 39.8179 59.4324 43.3586 59.0474 44.7062C57.6244 41.0316 43.7965 35.8001 36.4138 44.3965C32.7811 48.6152 36.0623 48.7993 33.0908 45.3173C29.684 41.0818 21.1379 40.5461 16.417 44.3965C20.8198 36.6874 14.6424 26.1993 6.41434 25.3204C11.1771 23.8388 16.1575 17.0923 15.8059 8.47081C15.513 3.93406 14.0063 5.38214 18.1831 7.46637C21.3471 8.97304 24.4274 8.83074 27.876 8.37874C33.3419 7.65889 36.6566 4.79621 38.18 1.45643C38.9249 -0.209281 37.4685 0.694721 42.1057 3.07191C48.8522 6.39496 56.779 6.31962 63.4669 2.87102C69.5355 -0.468763 64.6555 -1.0798 70.0712 3.97591C79.7976 13.041 95.9608 8.93955 97.4423 7.53333C97.2666 8.52941 98.7816 12.7397 102.038 15.8116C108.793 22.2568 121.474 19.9717 122.805 19.0845C121.783 21.7463 125.224 31.4308 133.77 35.1807C136.055 36.1852 140.567 37.3487 142.416 36.679C141.897 37.3738 141.035 40.4373 141.613 44.0701C143.111 52.0052 151.415 55.7384 153.256 55.7803C151.272 57.2786 150.72 64.9291 154.411 68.1182C156.922 70.2945 156.721 67.7583 155.039 70.8972C152.57 75.5344 153.214 80.791 155.022 83.0677C151.256 81.5527 145.539 83.2351 143.572 87.8472L143.555 87.8556Z" fill="black"/>
<path d="M146.267 69.2148C145.421 69.2482 145.765 69.6584 146.158 67.909C146.426 67.1222 146.367 66.2684 145.991 65.5234C145.622 64.7868 144.969 64.226 144.174 63.9665C142.082 63.2885 138.122 65.1551 136.181 66.1596C131.485 68.5786 133.628 73.6845 136.39 73.4083C137.461 73.3079 136.875 72.6717 136.566 75.1661C136.239 78.1376 138.215 79.6861 140.767 79.2174C143.044 78.7737 148.318 75.9446 149.305 73.8436C150.008 72.2616 149.372 70.4034 147.84 69.5831C147.355 69.3236 146.803 69.1896 146.25 69.198L146.267 69.2148ZM148.175 73.3246C147.439 74.9568 141.077 78.7737 138.993 77.9032C135.511 76.4468 140.767 68.5619 140.575 68.3861C140.349 68.1517 138.708 69.7253 137.629 71.8263C135.109 73.8771 132.958 69.1813 136.766 67.2896C140.642 65.2723 145.781 63.4559 144.919 67.6579C144.057 71.5668 140.96 73.9524 141.245 74.3291C141.496 74.6555 144.007 72.7387 145.338 70.1271C146.627 69.8007 147.924 70.5875 148.251 71.8682C148.267 71.9184 148.276 71.977 148.284 72.0272C148.359 72.4625 148.318 72.9061 148.167 73.3162L148.175 73.3246Z" fill="black"/>
<path d="M29.6923 20.2646C32.4629 19.2853 35.8948 17.4103 34.949 14.6314C34.1035 12.1035 29.9351 12.7145 27.3737 13.4428C24.9966 14.238 22.7366 15.368 20.6691 16.7826C17.5469 18.9421 16.4839 21.8466 18.769 23.3198C20.4514 24.4415 22.2008 23.6798 24.034 22.8595C24.9631 22.4409 24.0423 21.8215 26.3107 30.4012C27.7672 35.8922 28.2192 37.3068 29.2906 38.4033C31.3413 40.4708 36.2966 39.0394 34.9238 33.2136C34.4049 31.0541 30.588 22.2986 29.6923 20.2563V20.2646ZM33.7018 36.0847C33.4339 37.516 31.3832 38.5205 30.2783 37.3905C28.939 36.0763 25.8503 23.9392 25.39 22.1145C26.1182 21.6541 26.4697 21.2942 26.4112 21.1854C26.2437 20.8673 22.5608 22.5163 20.8532 22.5498C19.1289 22.5832 18.1914 21.2105 19.7818 19.4276C21.4308 17.5777 26.1349 14.8657 30.0272 14.33C33.6515 13.8529 34.0784 15.2926 33.4339 16.364C32.8312 17.3601 30.8809 18.532 29.8681 19.1179C27.65 20.3483 26.3944 21.2775 28.7883 20.5576C32.4378 30.5435 34.1621 33.4145 33.6934 36.0847H33.7018Z" fill="black"/>
<path d="M38.8161 12.2459C33.2498 15.728 34.204 27.6725 38.7324 32.3851C42.273 36.0931 47.9147 35.7751 49.7562 29.7651C53.7321 17.3267 46.0564 7.751 38.8077 12.2543L38.8161 12.2459ZM49.6808 23.7468C49.5971 29.3048 47.7222 35.072 42.4237 33.3393C35.8027 31.1797 34.363 16.7575 39.5861 13.4596C44.6084 10.3207 49.7813 15.6108 49.6892 23.7468H49.6808Z" fill="black"/>
<path d="M45.0603 19.8796C44.1982 16.2803 42.3483 16.3808 42.3818 16.6403C42.3902 16.7407 42.7836 16.7658 43.1686 17.3266C44.5414 19.2351 44.9934 28.7355 43.8048 28.928C43.562 28.9113 43.3862 28.6769 43.1854 28.4174C42.4739 27.346 42.0135 26.1239 41.8377 24.8432C40.2139 16.7407 42.3399 17.1257 42.2897 16.6486C42.2646 16.4226 40.4901 16.6403 40.2808 20.3567C40.1385 23.1189 40.5403 28.1579 42.6748 29.9492C43.3528 30.5351 44.3739 30.4765 44.9934 29.832C46.6005 28.0658 45.6044 22.1982 45.0687 19.8796H45.0603Z" fill="black"/>
<path d="M131.535 51.3021C141.178 40.2867 127.668 29.288 119.933 43.4172C114.869 52.8423 122.436 61.5726 131.535 51.3021ZM127.015 53.9974C123.19 56.2909 119.925 53.9639 119.624 50.3144C119.18 46.2297 122.453 40.8726 125.927 38.9139C128.312 37.4742 131.409 38.2443 132.841 40.6299C133.15 41.1405 133.368 41.7097 133.477 42.2956C134.004 45.4261 132.079 50.4065 127.015 53.9974Z" fill="black"/>
<path d="M129.442 42.2705C129.3 42.1533 129.2 42.1449 129.183 42.1784C129.133 42.2537 129.375 42.463 129.35 42.9987C129.317 44.8737 124.32 51.8378 123.868 50.2726C123.407 48.6822 125.642 45.2252 126.63 43.886C128.279 41.6511 128.99 42.3291 129.116 42.1366C129.241 42.0361 128.045 41.1237 126.002 43.3754C120.453 49.5444 122.863 53.7463 126.027 50.5572C127.45 49.0756 131.091 43.6516 129.442 42.2705Z" fill="black"/>
<path d="M134.933 65.3476C142.919 63.6567 147.313 55.5458 140.449 50.7329C135.678 48.0125 128.429 53.6374 128.145 59.12C127.927 62.7779 130.622 66.3269 134.933 65.3476ZM131.016 63.5228C125.215 58.2411 136.691 46.3217 141.73 53.9806C145.53 59.0614 135.226 67.4318 131.016 63.5144V63.5228Z" fill="black"/>
<path d="M136.206 60.1579C140.617 56.6424 138.959 55.2696 138.876 55.4035C138.524 55.6798 140.006 56.1652 135.578 59.3209C131.619 62.1082 132.824 58.7098 136.566 55.9811C138.189 54.7925 138.692 55.4705 138.834 55.3533C138.993 55.2863 138.223 54.148 136.13 55.3031C129.978 58.7098 131.368 63.9413 136.214 60.1663L136.206 60.1579Z" fill="black"/>
<path d="M68.0958 16.3056C69.6025 15.4769 70.1633 13.5852 69.3346 12.0785C69.0668 11.5847 68.665 11.1745 68.1795 10.8899C66.3464 9.70132 64.0278 9.91058 61.8682 9.98591C60.5122 10.0612 56.7874 10.3291 55.6156 11.0155C53.23 12.4635 53.3221 17.2347 59.2985 16.8664C58.6959 20.4322 58.3778 24.0314 58.3359 27.6474C58.3443 31.2551 58.5619 34.8878 62.1361 35.3398C65.8526 35.8169 66.02 28.6519 65.9028 24.9019C65.4006 12.5054 63.4837 18.6744 68.0874 16.3056H68.0958ZM62.948 16.4311C62.9731 16.5567 63.3749 16.6571 64.1115 16.7324C64.4798 20.1225 65.6349 34.2852 62.2533 33.9085C58.7294 33.4983 59.4994 26.0738 60.2611 16.7492C60.8219 16.6487 61.1317 16.5064 61.1233 16.3976C61.1233 16.1884 60.2025 16.1047 58.8131 15.8703C57.1055 15.5522 55.3393 15.0918 55.6072 13.3424C55.783 12.1287 56.8711 11.9697 58.0095 11.8023C60.0519 11.501 63.9106 11.141 65.7772 11.4675C68.6817 11.9864 68.8492 14.2716 67.4178 15.1588C66.1874 15.9205 62.8476 15.9205 62.9397 16.4227L62.948 16.4311Z" fill="black"/>
<path d="M85.3135 16.9836C84.7276 13.1918 81.2874 12.6393 80.0486 17.3016C79.5798 18.9757 79.1278 20.5075 78.7846 22.1816C77.9643 21.9639 77.1106 21.8551 76.2568 21.8635C76.7506 19.2603 77.2612 14.8491 75.7127 12.6812C75.0598 11.7855 73.7959 11.593 72.9086 12.2459C72.8668 12.2794 72.8166 12.3129 72.7747 12.3547C71.7535 13.1332 71.2429 14.8407 70.5398 17.0505C69.1252 21.537 68.3468 26.191 68.2296 30.8951C68.0705 37.4492 72.4315 38.1272 74.4404 35.616C75.7043 34.0424 75.6123 31.9163 75.7964 28.3673C78.8098 29.0369 77.3868 27.0866 76.9683 32.5608C76.8929 34.0675 76.9013 35.7332 77.9141 36.8632C78.7512 37.7589 79.9983 38.1523 81.1953 37.9012C83.1038 37.4826 83.7734 35.5826 84.1249 33.6825C84.6188 30.7612 85.8241 19.8964 85.3052 16.9836H85.3135ZM84.0664 20.2062C83.0535 32.5274 83.0703 37.558 79.7891 36.5703C79.0692 36.361 78.5084 35.7834 78.3326 35.0469C77.8555 33.3142 78.2573 30.259 78.6758 28.5012C79.1278 28.4928 79.5631 28.3422 79.9314 28.0911C80.3834 27.6725 80.2578 27.6976 76.8678 27.3796C75.1184 27.254 73.7875 26.8522 73.6285 27.1285C73.4778 27.4214 74.4571 27.932 74.884 28.0994C74.5074 31.4811 74.5827 33.5988 73.5029 34.846C72.2139 36.3777 70.4561 35.616 69.8869 33.9252C69.0917 31.682 69.9539 22.0644 72.9003 14.4306C73.1597 13.7861 73.7457 12.9407 74.3902 13.2001C74.792 13.2671 75.1686 14.4222 75.3528 15.2258C75.7294 17.4356 75.696 19.6956 75.2691 21.897C74.8506 21.9221 73.2769 22.0895 73.3941 22.4913C73.4946 22.8763 77.504 22.9349 79.697 23.4371C80.3332 23.5794 80.7517 23.7133 80.8438 23.571C81.0195 23.3116 80.0821 22.7089 79.6886 22.5247C79.9649 21.4617 81.4213 16.2721 82.2584 15.5438C82.8108 15.0751 83.5055 15.1839 83.832 16.5148C84.1082 17.7285 84.1835 18.9757 84.058 20.2062H84.0664Z" fill="black"/>
<path d="M88.5614 18.2893C86.8287 19.3942 85.2718 33.4314 85.297 35.4905C85.2551 36.6791 85.7908 37.8091 86.7367 38.5373C88.1596 39.4999 92.1439 41.0903 94.1194 40.1444C95.5507 39.232 96.2036 37.491 95.7432 35.8671C95.5925 35.3398 95.3331 34.8543 94.9815 34.4358C94.0105 33.6908 92.8387 33.2556 91.6166 33.1802C91.8008 32.7868 91.9179 32.3516 91.9431 31.9163C97.8191 33.7243 99.3425 27.547 94.8727 26.1826C92.4453 25.513 92.9056 26.4923 93.1902 25.0861C93.3995 24.0482 92.6545 24.5169 95.3665 24.6927C96.5635 24.768 97.7521 24.701 98.5138 23.7719C99.1332 22.9935 99.309 21.9472 98.9658 21.0097C98.2711 17.5611 90.7042 16.8831 88.553 18.2977L88.5614 18.2893ZM93.1149 23.4371C92.8722 22.6001 92.2025 21.9388 91.9765 22.1062C91.7087 22.3155 92.3783 23.4539 92.0602 24.8685C91.7673 26.283 90.9721 27.413 91.2316 27.6307C91.4492 27.8148 92.077 27.2122 92.3281 26.8941C93.4079 27.0866 94.8894 27.3377 95.6009 28.1496C96.5719 29.2964 95.7767 30.7026 94.2114 30.9537C93.4246 31.0374 92.6294 31.0123 91.8426 30.87C91.7505 30.5436 91.4492 29.8907 91.1897 29.9911C90.8884 30.1167 91.0474 31.1462 90.721 32.293C90.4364 33.4481 89.7919 34.2684 89.9928 34.5279C90.1685 34.7539 90.7628 34.327 91.0223 34.0591C92.6294 34.26 94.4374 34.7204 94.6969 36.2354C94.8978 37.4324 94.337 39.0981 92.9726 39.1734C91.5496 39.2823 89.5156 38.462 88.235 37.8258C87.2389 37.491 86.5944 36.52 86.6781 35.4737C87.038 30.5185 87.7495 25.5883 88.8042 20.7251C89.0887 19.5114 88.8962 19.1598 91.7087 18.9924C93.6673 18.9087 96.4212 19.1598 97.5428 20.7753C98.8737 23.8138 96.3794 23.9812 93.1065 23.4371H93.1149Z" fill="black"/>
<path d="M119.967 38.8469C120.561 36.8548 121.298 34.8794 121.164 32.6277C120.879 27.7645 116.318 28.25 112.836 31.7405C112.568 31.6065 113.195 24.8768 109.086 24.7931C106.181 24.7596 104.34 28.8611 102.858 31.3889C101.661 33.356 100.623 35.4151 99.7526 37.5495C97.7019 43.2916 102.54 44.7481 104.423 43.2832C105.704 42.4044 106.441 40.814 106.993 39.3575C107.244 38.6795 106.985 39.0227 107.42 39.8095C107.838 40.5796 108.701 41.0065 109.571 40.8726C110.483 40.6801 111.346 40.2699 112.065 39.6672C110.919 41.718 109.161 44.9155 109.211 46.5812C109.353 47.8786 110.157 49.0086 111.329 49.5778C112.501 50.147 113.89 50.0716 114.995 49.3853C117.28 47.82 119.113 41.6343 119.967 38.8386V38.8469ZM117.791 41.266C117.079 43.4506 115.548 48.431 113.329 48.7742C112.266 48.8412 111.245 48.339 110.651 47.4517C110.333 46.8574 110.274 46.1627 110.492 45.5265C111.128 43.0238 114.309 37.8509 114.225 37.8006C114.744 37.2398 116.133 35.4653 115.882 35.2811C115.631 35.1054 108.876 42.5801 108.198 38.5875C107.997 37.4491 108.475 31.3805 108.014 31.3471C107.696 31.322 107.278 35.2058 107.244 35.4988C106.533 37.6751 105.553 41.1153 103.812 42.3541C102.49 43.2916 99.8447 42.1532 100.548 39.1566C101.042 36.8632 104.474 31.3136 105.478 29.6311C106.206 28.3756 107.562 26.1742 109.069 26.2076C111.48 26.2746 111.337 30.9955 111.706 35.0217C112.342 34.3269 113.304 33.2388 113.899 32.7198C118.36 28.7188 120.72 30.2003 119.473 35.5909C119.247 36.5702 118.117 40.2532 117.782 41.2743L117.791 41.266Z" fill="black"/>
<path d="M76.5916 57.1614C76.3907 55.7134 76.5246 54.2402 76.985 52.8591C77.3784 51.5533 78.4917 50.599 79.8393 50.4065C83.6897 49.5862 89.9675 52.0806 91.1142 52.9846C91.8843 53.6542 92.5121 54.4745 92.9557 55.3953C93.2487 56.3997 92.5456 58.6932 92.1438 60.066C92.0685 60.6854 91.5746 61.1625 90.9468 61.2211C84.1919 62.9956 78.7679 58.71 77.8639 58.3584C77.2612 58.2077 76.7758 57.7557 76.5832 57.1614H76.5916Z" fill="#FDFE1F"/>
<path d="M134.021 103.014C132.539 105.249 132.012 107.241 134.28 109.024C134.933 109.669 135.946 109.794 136.741 109.326C141.102 107.459 143.354 102.88 143.111 101.164C142.919 99.8336 140.91 98.2432 140.056 98.1763C139.261 98.1093 136.892 99.256 136.055 100.135C135.293 101.031 134.615 102.002 134.029 103.014H134.021Z" fill="#FDFE1F"/>
<path d="M103.26 151.705C103.327 152.718 103.687 153.68 104.298 154.484C105.52 155.02 106.859 155.237 108.19 155.103C109.981 154.785 111.689 154.116 113.204 153.12C114.191 152.391 114.501 151.671 113.781 149.947C113.195 148.541 112.651 147.788 111.153 147.637C109.563 147.486 107.135 148.256 105.62 148.8C104.189 148.993 103.159 150.257 103.251 151.697L103.26 151.705Z" fill="#FDFE1F"/>
<path d="M40.6158 134.763C40.8837 139.308 42.449 140.371 45.3284 140.572C50.5599 140.932 52.7445 140.664 58.8131 137.4C59.4492 137.191 59.8761 136.588 59.8761 135.91C60.1272 133.617 59.7422 130.277 57.6914 129.197C56.3271 128.477 40.1555 127.071 40.6158 134.763Z" fill="#FDFE1F"/>
<path d="M16.7936 118.734C16.4002 119.261 16.3751 119.973 16.735 120.525C19.7316 126.719 26.6205 129.775 28.2108 129.523C28.9223 129.415 30.5545 127.757 30.9982 127.272C31.9859 126.46 32.3207 125.087 31.8101 123.915C30.4625 119.646 24.2516 115.712 22.5106 115.16C19.5307 114.214 18.0324 116.374 16.7853 118.734H16.7936Z" fill="#FDFE1F"/>
<path d="M25.1976 142.991C25.0386 143.753 25.4487 144.523 26.177 144.808C30.9899 147.528 36.8492 146.072 37.3431 145.268C37.4351 145.117 37.41 145.168 37.7783 142.79C37.9792 141.468 37.9457 140.623 36.7655 139.744C34.9073 138.363 29.8348 137.986 27.3907 138.647C25.4738 139.174 25.2227 141.309 25.206 142.983L25.1976 142.991Z" fill="#FDFE1F"/>
<path d="M2.16227 85.1352C3.23368 84.5828 4.43064 84.3317 5.63598 84.407C7.5528 84.9092 9.72073 89.7306 10.223 92.6267C10.5912 94.7444 9.89651 95.389 8.55724 95.8493C7.67835 96.1925 6.75761 96.4018 5.81176 96.4855C2.86538 96.2009 -1.437 87.2864 2.16227 85.1352Z" fill="#FDFE1F"/>
<path d="M12.6502 58.3165C12.1313 59.3628 12.374 59.9571 13.119 61.0285C13.9309 62.2004 14.4582 62.6524 15.7305 62.4096C20.0664 61.5893 22.7533 56.768 22.7282 56.023C22.7114 55.3618 21.4559 54.1146 20.8281 53.6375C20.4096 53.2357 19.7902 53.1269 19.2545 53.3613C16.6597 54.1397 13.8974 55.8138 12.6419 58.3165H12.6502Z" fill="#FDFE1F"/>
<path d="M91.8761 52.9176C88.98 50.825 82.7859 49.536 80.0488 50.0214C78.1068 50.1721 76.5583 51.7039 76.3909 53.6458C76.2151 54.7507 76.1565 55.864 76.2235 56.9772C76.6504 58.9108 82.9282 63.2467 90.0263 61.9409C91.4994 61.673 92.4872 61.1624 92.981 59.7311C93.9687 56.9019 94.0692 54.5582 91.8845 52.9176H91.8761ZM90.9972 60.158C88.9214 61.514 81.6224 61.0536 77.6297 57.4125C77.1944 57.0275 77.0019 56.4415 77.1275 55.8723C77.1861 55.0186 77.3284 54.1732 77.546 53.3529C78.9271 56.8517 89.6747 59.0949 92.1523 57.0358C92.0435 57.8729 91.7171 59.706 90.9972 60.158ZM91.9263 56.2992C90.428 58.1324 79.6386 56.1569 78.1989 53.1603C77.8557 52.4489 78.0231 52.3149 78.2826 52.0554C80.9946 49.3769 94.1612 53.6877 91.9263 56.2992Z" fill="black"/>
<path d="M28.1607 130.067C29.4665 129.959 30.2952 128.845 31.1155 127.849C31.9944 126.912 32.5049 125.681 32.5468 124.392C32.4045 120.743 23.783 113.084 19.7903 114.641C18.3004 115.185 17.4215 116.8 16.6347 118.173C16.099 118.851 15.9399 119.755 16.2162 120.575C18.0577 125.974 24.6284 130.419 28.1607 130.076V130.067ZM19.7568 115.88C23.3729 113.888 33.7605 124.233 30.563 125.598C28.3114 126.619 18.3255 119.245 19.7568 115.88ZM18.2418 122.208C16.71 119.73 16.6263 119.395 18.585 116.934C19.7652 115.52 16.9779 117.989 23.4314 123.237C24.9549 124.476 28.6378 126.795 30.4375 126.368C28.7885 128.812 28.1607 128.904 26.7126 128.494C23.2138 127.506 20.2005 125.271 18.2334 122.208H18.2418Z" fill="black"/>
<path d="M60.4872 132.838C59.8427 129.222 58.269 127.439 52.6609 127.59C48.8356 127.707 41.4948 128.812 40.1388 132.453C39.4524 134.161 40.1722 136.203 40.7498 137.952C40.9172 138.932 41.5785 139.76 42.4992 140.145C45.4372 141.25 48.618 141.56 51.715 141.041C54.4605 140.589 58.7713 138.965 60.1356 137.09C61.0396 135.885 60.7132 134.303 60.4788 132.83L60.4872 132.838ZM52.7027 128.988C54.7535 128.988 57.2813 129.088 58.3193 130.712C58.9387 134.47 42.7503 137.509 41.0344 133.357C41.838 129.992 49.2457 129.055 52.7111 128.979L52.7027 128.988ZM58.9973 136.278C57.273 138.739 48.9695 141.485 42.9177 139.2C42.2397 138.965 41.7459 138.379 41.6371 137.668C41.2688 136.63 41.0428 135.55 40.9507 134.454C43.964 138.187 57.5408 135.274 58.8466 131.959C59.1061 132.855 59.6669 135.366 59.0056 136.27L58.9973 136.278Z" fill="black"/>
<path d="M143.454 100.62C142.994 99.9174 142.458 99.2729 141.864 98.6786C140.893 97.582 139.269 97.3393 138.022 98.1178C136.172 99.0301 133 102.554 132.179 105.124C131.593 107.091 132.69 108.472 134.565 109.744C135.402 110.33 136.507 110.339 137.352 109.769C142.224 107.392 144.057 101.977 143.446 100.62H143.454ZM133.276 105.442C133.854 103.575 135.603 101.55 136.976 100.127C139.135 97.9838 141.395 98.0089 140.19 100.704C137.955 105.609 132.071 109.418 133.276 105.442ZM142.751 101.508C141.964 105.459 137.729 108.966 135.963 109.058C135.394 109.1 134.799 108.505 134.314 108.079C133.745 107.568 134.088 108.137 135.469 107.308C138.365 105.593 141.621 101.416 141.144 99.1557C141.588 99.5323 141.998 99.9425 142.383 100.378C142.701 100.662 142.843 101.089 142.751 101.508Z" fill="black"/>
<path d="M5.61916 84.0136C4.01204 83.4946 1.07403 84.8423 0.630403 86.056C-0.231747 88.2825 1.33352 93.9911 5.09182 96.5441C5.62753 96.904 6.3139 96.9793 6.91657 96.7282C8.06331 96.4269 9.40257 96.1255 10.0973 95.1546C11.9807 92.6351 8.33953 84.8841 5.61916 84.0136ZM6.72405 96.0167C5.90375 96.2176 5.66101 96.1423 4.35523 94.7277C2.56396 92.7188 1.55952 90.1156 1.55115 87.4287C1.55115 86.4912 1.50929 86.056 3.627 85.2775C2.55559 87.6631 5.69449 94.7779 8.36464 95.4392C7.83731 95.6735 7.28486 95.8661 6.72405 96.0251V96.0167ZM9.34398 94.6356C9.2519 94.7779 9.18494 94.9537 8.59064 94.7863C6.40597 94.1752 3.26708 86.6921 4.40545 85.2943C5.91212 83.3356 10.9344 92.2082 9.34398 94.6356Z" fill="black"/>
<path d="M23.3057 56.3746C23.2973 55.4957 22.929 54.667 22.2845 54.0727C20.9285 52.3986 19.5809 51.955 16.8187 53.5872C13.7551 55.4789 10.4488 58.3584 12.7674 61.1038C14.4498 62.9872 14.8432 63.0123 16.9609 62.3929C20.5351 61.2461 23.1048 57.9901 23.3057 56.3662V56.3746ZM12.9013 59.6307C12.2903 57.0609 20.2505 52.1475 20.5686 54.1899C20.8615 55.7384 14.7261 60.8862 12.9013 59.6307ZM15.2701 61.9325C14.9102 61.9995 14.5419 61.8572 14.3159 61.5726C13.9727 61.2378 13.6546 60.8862 13.3533 60.5179C15.7975 61.0034 20.9285 56.8433 21.255 54.6084C22.4436 55.9979 22.3264 56.2239 21.8995 57.0107C20.5184 59.547 18.0993 61.3382 15.2701 61.9241V61.9325Z" fill="black"/>
<path d="M114.518 149.93C113.932 147.821 112.852 146.884 109.638 147.285C108.056 147.52 105.302 148.181 103.921 149.252C102.791 149.964 102.339 151.395 102.85 152.634C103.645 155.045 103.98 155.237 106.223 155.522C108.885 155.781 111.546 155.028 113.673 153.396C115.104 152.282 114.92 151.47 114.518 149.93ZM112.902 149.043C113.103 150.751 104.8 153.312 103.553 151.311C103.929 149.102 111.622 147.319 112.902 149.043ZM113.564 151.914C112.384 154.04 105.11 155.865 104.088 153.689C103.904 153.237 103.745 152.776 103.62 152.308C105.662 153.739 112.149 151.989 113.354 149.997C113.514 150.5 113.832 151.454 113.564 151.906V151.914Z" fill="black"/>
<path d="M37.661 140.212C35.9869 137.944 27.2566 136.831 25.4151 139.526C24.7037 140.505 24.846 141.903 24.9297 143.117C24.8794 143.778 25.1724 144.423 25.6997 144.824C29.1818 147.461 35.242 147.444 37.3178 145.712C38.339 144.891 38.6822 141.602 37.661 140.221V140.212ZM36.9914 141.384C36.8909 142.087 36.2213 142.305 35.5266 142.431C32.7141 142.991 26.4028 142.539 26.0011 140.271C27.265 138.003 36.1962 139.007 36.9914 141.376V141.384ZM36.5896 144.85C35.175 146.08 29.6254 146.515 26.202 144.163C25.8337 143.92 25.6328 143.502 25.6663 143.067C25.6328 142.464 25.6411 141.861 25.6997 141.259C27.2064 143.678 35.242 144.331 37.1337 142.523C37.1169 143.276 37.0667 144.448 36.598 144.841L36.5896 144.85Z" fill="black"/>
<path d="M106.516 106.262C103.444 101.817 99.5264 101.432 97.2664 102.998C96.4294 101.441 95.3496 100.035 94.0689 98.8292C92.7464 97.6155 90.9216 97.13 89.1722 97.515C88.218 97.8498 87.3391 98.3855 86.6109 99.0886C85.4055 94.5184 76.7255 93.6563 72.0297 105.76C70.7071 109.167 70.004 112.347 68.4639 115.779L68.3467 115.62C67.4343 117.144 66.7312 118.776 66.2541 120.483C64.6721 124.15 64.3122 126.803 65.3501 130.712C66.8902 136.555 68.8238 135.709 65.8021 138.563C62.6883 141.669 62.161 146.532 64.5382 150.232C64.9818 151.077 65.5677 151.847 66.2792 152.492C68.3216 154.124 77.2946 157.782 85.0791 158.384C84.987 158.878 85.6985 159.071 86.2007 159.046C89.281 158.887 92.7213 158.552 94.7469 156.225C97.8523 152.651 95.517 147.076 95.8518 146.557C95.9773 146.365 96.0192 146.39 98.6224 145.402C98.6894 145.486 98.7731 145.553 98.8568 145.603C112.752 133.332 112.04 114.231 106.524 106.254L106.516 106.262Z" fill="white"/>
<path d="M110.634 116.198C109.37 103.157 101.72 99.4653 97.3669 101.608C96.1783 98.6115 93.3324 96.611 90.1182 96.4938C88.9631 96.5859 87.8498 96.9458 86.8621 97.5485C86.4101 97.8079 86.7533 97.5317 85.4559 96.6863C82.7522 95.0122 78.4415 95.3136 74.951 99.0049C70.9583 103.065 70.6654 108.865 68.2463 113.82C66.5639 117.252 64.1365 120.893 64.2955 126.903C64.3206 130.126 65.3418 133.257 67.2084 135.885C62.5294 141.074 60.2108 146.607 64.9317 151.68C69.7112 156.861 85.799 162.997 93.3408 158.384C96.4629 156.518 98.3797 152.818 96.848 146.683C107.721 142.899 111.647 127.699 110.634 116.206V116.198ZM107.386 131.599C103.829 143.678 95.8351 149.177 82.5095 145C78.1485 143.594 75.8634 142.196 75.7462 142.405C75.6374 142.598 86.1506 149.37 95.5589 147.043C97.7185 158.644 88.2348 159.833 77.0018 156.2C62.1611 151.261 61.6588 145.05 68.0538 136.906C70.2134 139.367 73.2351 141.158 73.3439 140.966C73.7541 140.396 65.5762 136.638 65.7101 126.87C65.7687 119.487 69.234 117.503 71.7786 109.719C73.4778 104.412 74.6246 100.947 78.9939 98.3939C81.6641 97.1802 83.8739 97.7075 84.9787 98.8459C79.6887 103.173 77.5124 109.778 75.3612 116.206C73.1012 115.997 70.8579 116.474 70.9081 116.918C70.9667 117.537 74.8171 117.227 79.379 119.345L80.2244 117.529C79.1195 117.018 77.9644 116.65 76.7758 116.424C78.8851 111.586 80.735 106.287 84.2087 102.387C85.5982 100.821 87.7242 98.8626 89.7666 98.4357C92.1019 97.9084 95.2408 100.06 96.1867 102.387C93.0897 104.923 91.5077 112.272 91.3151 115.913L93.3157 116.005C93.4747 112.783 94.9897 105.718 97.6013 103.793C100.749 101.349 107.545 104.529 108.793 116.399C109.286 121.513 108.809 126.686 107.386 131.624V131.599Z" fill="black"/>
<path d="M99.1413 93.6563C105.486 96.9459 107.964 100.311 110.91 102.772C112.643 104.22 114.484 105.291 115.748 107.166C115.656 107.124 115.648 107.3 115.706 107.375C117.74 110.104 116.351 108.765 120.595 108.112C122.838 107.769 125.324 107.534 127.124 109.058C129.836 111.343 126.102 114.917 123.608 117.914C123.734 118.684 124.445 122.007 124.947 122.3C125.115 122.367 125.299 122.384 125.475 122.35C127.843 122.082 128.881 122.76 132.514 124.233C134.699 124.953 136.616 126.326 137.98 128.176C138.457 128.712 138.842 129.323 139.118 129.984C135.084 130.67 133.485 130.729 132.405 131.867C132.213 131.859 132.271 132.168 132.405 132.311C133.46 133.307 134.305 134.512 134.9 135.835C136.339 138.798 137.863 142.046 136.875 145.327C136.138 145.126 135.452 144.791 134.841 144.347C134.012 143.87 133.125 144.113 132.313 143.586C128.538 141.125 124.085 143.125 124.889 148.399C125.307 151.111 118.343 147.001 115.372 144.54C110.291 140.33 112.517 137.693 110.684 137.927C109.152 138.003 107.612 137.944 106.089 137.735C105.821 140.079 104.657 141.736 103.117 143.469C101.276 145.536 99.7859 145.854 97.8272 143.41C96.8311 142.322 95.969 141.116 95.2407 139.836C95.0733 139.786 95.2073 140.145 95.3496 140.045C95.4919 139.945 95.45 139.727 95.3914 139.568C91.675 129.59 89.6158 132.11 78.8599 125.447C66.9153 118.056 64.8395 110.347 62.027 106.907C58.7124 102.864 55.4228 95.8159 56.1845 90.6179C56.6532 87.4288 58.8547 84.3317 62.0019 83.6621C63.5421 83.3356 65.0487 82.7916 66.6224 82.9004C87.0378 84.2815 88.1259 87.9645 99.1413 93.6647V93.6563Z" fill="#5FA8FF"/>
<path d="M79.5044 98.7121C82.7856 97.5653 86.4351 98.5614 88.6784 101.215C91.7754 105.208 89.7331 111.586 85.4139 113.812C82.3336 115.386 78.6004 114.867 76.0642 112.523C72.0799 108.581 73.4024 100.855 79.3621 98.7623L79.5044 98.7121Z" fill="#50FF9B"/>
<path d="M111.496 132.076C112.45 127.448 115.882 123.731 120.419 122.409C121.775 122.074 123.164 121.915 124.562 121.931C130.89 121.89 136.842 125.874 138.926 129.448C139.202 129.925 139.118 130.21 138.558 130.235C135.82 130.369 132.715 131.298 132.497 131.658C132.338 131.909 132.59 132.219 132.807 132.42C136.239 135.584 137.779 140.304 136.884 144.883C136.791 145.318 136.599 145.377 136.222 145.193C132.899 143.569 126.998 140.874 125.123 144.021C123.75 146.323 126.387 149.654 123.7 149.043C121.993 148.725 120.327 148.215 118.728 147.528C113.915 145.251 110.232 138.329 111.504 132.068L111.496 132.076Z" fill="#FDFE1F"/>
<path d="M110.107 124.761C108.659 123.589 109.077 123.488 108.022 124.937C107.78 125.288 107.537 125.648 107.311 126.008C107.194 126.2 107.361 126.226 108.55 126.954C108.709 127.046 108.784 126.878 108.868 126.753C110.082 124.903 110.324 124.937 110.107 124.761Z" fill="black"/>
<path d="M107.554 128.82C105.955 128.075 106.198 128 105.854 128.82C105.587 129.44 105.361 130.068 105.168 130.712C105.101 130.921 105.243 130.905 106.608 131.315C106.767 131.365 106.809 131.231 106.859 131.047C107.42 129.189 107.855 128.954 107.562 128.82H107.554Z" fill="black"/>
<path d="M106.114 133.365C104.289 133.047 104.582 132.838 104.423 134.169C104.239 135.717 104.231 135.977 104.465 135.985C106.399 136.036 105.955 136.32 106.097 134.705C106.189 133.7 106.373 133.407 106.114 133.365Z" fill="black"/>
<path d="M117.707 118.893C116.962 117.261 117.171 117.411 116.569 117.713C115.506 118.232 114.451 118.751 114.602 118.993C115.347 120.19 115.372 120.341 115.564 120.224C117.406 119.069 117.841 119.186 117.707 118.893Z" fill="black"/>
<path d="M111.563 123.154C111.756 123.346 111.747 123.095 113.162 121.923C113.43 121.706 113.714 121.547 113.58 121.379C112.735 120.274 112.685 120.115 112.501 120.249C111.831 120.776 111.186 121.337 110.575 121.94C110.416 122.091 110.55 122.149 111.555 123.162L111.563 123.154Z" fill="black"/>
<path d="M139.01 129.364C137.503 125.74 132.489 121.764 125.115 121.295C124.897 120.065 124.512 118.868 123.976 117.738C131.434 112.657 129.811 107.802 124.529 107.334C122.085 107.233 119.64 107.509 117.272 108.137C89.4401 76.0534 36.2798 69.7589 61.5751 109.083C68.104 119.144 77.5291 127.657 91.9429 133.558C92.7799 137.902 97.9277 148.231 102.272 145.402C103.285 144.64 104.105 143.653 104.674 142.514C108.391 136.211 104.013 138.974 110.734 138.413C112.216 143.929 116.761 148.097 122.386 149.102C125.743 149.545 124.663 149.227 125.357 146.264C125.935 143.954 126.747 143.167 130.321 143.803C132.841 144.306 135.218 145.36 137.269 146.9C137.654 146.055 137.972 145.184 138.223 144.289C138.733 141.401 138.114 138.43 136.473 136.002C135.611 134.646 134.623 133.365 133.527 132.185C133.401 132.076 133.301 132.085 133.644 131.876C138.181 129.883 139.604 130.787 139.01 129.348V129.364ZM123.323 116.474C121.9 113.955 120.226 111.577 118.335 109.384C127.391 108.706 130.053 110.146 123.323 116.474ZM63.8686 109.041C63.9021 105.266 64.7642 101.675 68.2296 96.6697C70.7658 93.0369 69.234 94.3594 67.5934 96.1674C64.7475 99.3231 62.8223 103.676 63.0567 107.802C60.9975 104.571 59.29 101.123 57.9758 97.5234C54.929 88.7094 58.8129 83.9467 66.5304 83.9216C71.4605 83.9048 76.3572 84.6498 81.0614 86.1397C82.0491 86.4411 81.8649 86.2067 80.3917 86.6503C77.0436 87.8305 73.9884 89.7222 71.4354 92.1831C65.166 98.2684 75.6959 89.4628 80.7182 87.6548C81.6222 87.3283 82.5597 87.0939 83.5055 86.9349C96.781 91.5888 109.378 101.031 118.268 111.695C107.863 114.8 99.8529 123.832 99.7859 134.947C84.736 129.331 72.9504 122.559 63.8769 109.041H63.8686ZM103.126 141.568C101.293 144.205 100.556 144.992 98.07 141.861C96.2536 139.518 94.7469 136.948 93.5918 134.219C97.2748 135.642 101.284 137.308 105.118 138.053C104.54 139.267 103.879 140.438 103.126 141.56V141.568ZM100.556 135.232C101.15 124.066 108.818 115.838 118.812 112.364C119.138 112.766 121.515 115.963 121.264 116.022C120.946 116.089 120.134 116.315 119.339 116.574C119.13 116.641 119.222 116.75 119.691 118.098C119.791 118.382 119.917 118.081 122.16 117.587C122.185 117.587 122.21 117.571 122.227 117.554C122.244 117.537 122.26 117.52 122.269 117.495C122.955 118.667 123.449 119.939 123.75 121.262C118.234 121.262 115.02 123.262 112.727 126.468C110.6 129.59 109.772 133.416 110.416 137.132C107.035 137.149 103.678 136.504 100.539 135.24L100.556 135.232ZM137.135 129.825C134.958 129.842 132.832 130.478 130.999 131.658C133.996 135.416 137.16 139.2 136.256 143.929C136.164 143.996 131.493 141.208 127.375 142.096C124.755 142.665 124.035 145.117 124.37 147.763C124.562 149.236 124.956 149.018 124.202 148.817C111.22 145.41 108.399 131.44 117.347 124.744C123.215 121.722 132.447 122.442 138.666 129.574C139.093 130.068 139.185 129.691 137.135 129.816V129.825Z" fill="black"/>
<path d="M81.3544 94.2757C78.8517 94.7361 76.3657 96.2009 76.4996 96.4269C76.6335 96.6529 78.4499 95.4392 81.4716 95.0792C83.288 94.8449 85.1378 95.0792 86.8538 95.7405C97.0154 99.0384 93.9686 113.092 85.7991 117.386C78.0397 121.454 68.4975 113.662 71.2848 103.332C72.1721 100.311 73.7541 98.9045 73.57 98.7371C73.3523 98.5278 71.402 100.654 70.5148 103.081C66.0785 116.089 82.6184 127.079 91.6835 113.302C98.6811 102.663 91.2984 92.4928 81.3544 94.2841V94.2757Z" fill="black"/>
<path d="M73.436 107.777C74.114 115.83 84.5602 117.847 88.9045 111.31C93.2738 105.023 88.9714 97.1133 81.4799 98.1094C79.1865 98.4442 78.7261 98.6451 81.5134 98.5028C83.3047 98.4108 85.0876 98.8711 86.6026 99.8254C91.9513 103.299 89.8587 111.728 84.3259 113.737C78.0983 115.972 72.5906 110.397 74.5995 104.086C75.1436 102.378 76.215 100.88 77.663 99.8254C79.8979 98.2433 79.4878 98.3187 77.4454 99.4989C74.6246 101.257 73.0677 104.479 73.436 107.786V107.777Z" fill="black"/>
<path d="M129.359 84.5159C131.669 86.734 131.301 90.2412 130.924 93.1374C129.844 101.441 129.819 102.822 128.538 103.316C126.211 104.211 124.596 103.676 124.068 103.835C123.801 103.944 123.566 104.111 123.374 104.329C121.616 105.986 119.599 106.212 117.506 107.091C115.698 107.844 110.977 107.961 110.525 108.874C110.45 109.033 110.483 109.041 111.086 111.979C111.002 111.946 111.354 111.979 111.354 111.904C112.015 114.239 112.409 116.641 112.534 119.069C112.676 119.596 112.434 120.149 111.948 120.408C109.596 122.04 106.675 122.735 102.883 123.832C101.058 124.359 99.1247 124.886 97.2916 124.384C92.0518 122.944 91.8425 114.766 98.9992 113.955C98.2793 110.841 96.6555 110.64 96.3458 105.919C96.1532 104.722 96.5048 103.5 97.3084 102.588C98.6225 100.838 100.305 99.3901 102.23 98.3438C101.251 97.8081 92.6795 101.29 87.9168 99.2227C85.1545 98.0173 84.4598 95.3304 85.707 93.74C86.4687 92.9532 87.4564 92.4343 88.5362 92.2334C112.25 85.3948 106.365 91.5721 90.8883 78.3553C88.4357 76.2627 83.8488 72.203 84.0162 68.7963C84.2589 63.8578 92.78 68.3443 97.3418 70.2778C100.422 65.6658 100.531 63.0291 101.946 61.2211C105.637 56.4918 120.21 57.9901 124.42 60.9867C126.178 62.2339 129.794 67.1724 130.673 70.1188C131.175 72.044 131.334 74.0445 131.15 76.0283C130.999 76.5054 130.589 76.9658 130.74 77.4429C131.091 78.5478 131.912 79.1756 131.744 80.3223C131.359 81.9545 130.463 83.411 129.191 84.4991C129.141 84.4824 129.308 84.474 129.342 84.4991L129.359 84.5159Z" fill="white"/>
<path d="M129.208 84.5159C129.208 84.5159 129.216 84.5075 129.225 84.4991C129.208 84.4991 129.191 84.4991 129.208 84.5159Z" fill="white"/>
<path d="M129.225 84.4991C129.225 84.4991 129.216 84.5075 129.208 84.5159C129.191 84.5159 129.208 84.5075 129.225 84.4991C129.869 84.7837 123.591 89.2368 123.39 88.6006C122.796 91.2206 125.81 95.9749 123.759 104.011C123.859 103.944 123.968 103.885 124.077 103.835C124.596 103.676 126.22 104.22 128.547 103.316C129.827 102.822 129.844 101.441 130.924 93.1374C131.3 90.2412 131.669 86.734 129.359 84.5159C129.333 84.4991 129.258 84.4908 129.225 84.4991Z" fill="#FF527B"/>
<path d="M116.686 74.756C117.322 70.7968 113.723 65.8667 112.375 64.7283C110.626 63.2551 105.93 62.0665 102.414 63.4142C96.2201 65.7914 93.4412 80.8999 102.716 82.7247C106.256 83.4194 107.78 83.2855 110.977 81.7788C114.828 79.9708 116.066 78.5813 116.686 74.756Z" fill="#5FA8FF"/>
<path d="M130.078 84.7586C131.727 82.6325 132.799 79.5857 131.393 77.3257C133.343 70.6294 129.007 53.2776 104.105 58.5844H104.088C103.276 58.9527 102.531 59.4466 101.879 60.0492C100.59 61.4303 100.389 63.1128 99.3758 64.5358C98.1705 66.0927 97.2413 67.8588 96.6554 69.7338C90.3358 66.7372 87.8833 65.2472 85.2298 66.1764C83.9743 66.5949 83.1456 67.7751 83.1707 69.0976C83.1707 71.4748 85.0122 73.107 86.6361 74.8313C91.4574 79.8285 96.94 84.1392 102.925 87.6548C87.4898 91.5052 86.1673 91.5303 84.7778 93.581C83.4972 95.4978 84.4598 98.3856 87.3475 99.6244C89.2978 100.629 92.0684 100.671 94.2699 100.461C99.8445 99.9258 99.8864 99.2143 98.3546 100.311C94.7972 102.855 95.0399 106.664 96.9902 110.565C97.3167 111.519 97.7268 112.448 98.2039 113.335C97.2162 113.394 96.262 113.703 95.4333 114.231C93.4747 115.704 92.5539 118.182 93.0813 120.576C94.1025 125.255 98.2709 125.832 102.9 124.769C107.135 123.74 111.337 121.454 112.333 120.559C112.919 119.99 113.162 119.153 112.978 118.357C112.576 115.143 111.881 111.971 110.902 108.874C118.536 107.459 121.022 106.965 122.871 105.567C124.947 104.077 122.947 104.153 126.236 104.404C130.522 104.672 130.765 101.265 131.46 96.6948C131.937 93.4638 132.539 86.9014 130.078 84.7503V84.7586ZM105.955 59.5972C117.498 59.8483 119.774 68.1099 120.201 67.9341C120.436 67.8421 118.544 61.5308 111.789 59.5219C109.998 58.9611 109.286 59.1034 111.705 58.9862C119.9 58.6514 126.504 61.1709 129.626 68.8214C131.317 72.9062 130.765 76.5222 130.614 76.405C129.149 75.1494 127.258 75.3085 127.266 75.5093C127.258 75.7605 130.564 75.8609 130.941 78.8659C131.3 81.7118 128.681 84.834 126.328 86.4746C120.461 90.5091 116.719 83.5282 122.353 78.1209C123.323 77.1751 124.479 76.4468 125.751 75.9865C126.655 75.66 127.216 75.6182 127.216 75.5093C127.232 75.2582 124.504 75.0322 121.683 77.3676C119.875 78.8659 121.181 78.6399 121.415 74.9402C121.532 74.1031 121.474 73.2493 121.239 72.4374C121.139 72.4374 121.206 73.333 120.971 74.8899C119.381 85.3864 107.545 87.6966 101.393 84.2146C100.916 83.7542 100.464 83.252 100.062 82.7162C107.897 86.508 116.477 81.0338 117.138 74.8313C117.682 68.7963 113.472 63.3639 107.495 62.3846C105.587 62.0665 103.628 62.2423 101.803 62.8784C102.624 61.0621 103.335 60.1246 105.947 59.5972H105.955ZM105.562 86.9935H105.545C103.134 85.897 105.788 87.3451 110.349 86.5499C113.48 86.0226 116.351 84.4657 118.494 82.1136C117.874 84.0806 118.326 86.2234 119.699 87.7636C112.651 89.8227 105.679 87.4539 105.57 86.9935H105.562ZM101 64.6446C101.175 64.9878 102.138 63.8243 105.118 63.6318C109.144 63.2467 113.02 65.2807 114.987 68.8047C119.875 77.5852 110.366 84.8926 102.255 82.1303C99.3591 81.1677 98.6643 79.9289 98.5471 80.0712C94.906 71.6087 100.673 65.2221 101 64.6446ZM84.5686 69.0976C84.5602 67.3733 86.4352 67.005 88.1344 67.3733C89.482 67.6914 89.8419 67.9258 96.4211 70.6629C95.5254 74.4379 96.0528 78.4139 97.9026 81.8206C98.7396 83.3524 98.8568 82.9422 98.4467 83.3022C99.0242 83.9383 84.6104 72.6885 84.5602 69.0893L84.5686 69.0976ZM111.463 119.655C108.734 121.396 105.729 122.668 102.573 123.421C100.012 123.991 96.6136 124.25 95.1739 122.049C93.7342 119.889 94.1945 116.985 96.2369 115.378C97.4171 114.499 99.1163 114.967 99.8445 114.097C99.5683 113.963 99.7692 114.055 99.7106 114.022C99.9785 113.603 99.9701 113.678 99.3925 112.649C96.5382 107.593 99.0242 112.423 106.775 110.037C107.42 109.853 109.537 108.564 109.738 108.723C110.065 108.757 110.617 111.628 110.684 111.954C110.91 113.226 112.367 118.801 111.463 119.655ZM123.282 102.956C122.051 105.325 118.921 105.86 116.351 106.497C108.818 108.313 110.927 108.02 110.09 107.786C109.161 107.61 108.223 108.212 107.093 108.757C105.662 109.259 104.164 109.527 102.649 109.535C100.456 109.619 98.3881 108.664 97.6013 108.966C95.4501 102.554 99.0661 101.181 104.649 98.6451C108.809 97.5402 106.558 98.1512 113.287 97.2807C117.096 96.7534 118.661 96.2428 113.212 96.4772C108.65 96.7115 110.274 97.0882 114.141 94.6859C115.38 93.8991 115.991 93.3718 115.949 93.2881C115.581 92.7021 110.4 97.6909 94.1359 99.072C91.4825 99.298 87.674 99.1306 86.1506 96.9375C85.121 95.4727 85.4558 93.7652 88.5529 92.7607C89.2644 92.5347 88.3185 92.7775 105.729 88.4332C110.542 90.191 115.815 90.2077 120.637 88.4751C121.306 88.835 122.043 89.0359 122.796 89.0694C123.541 95.3974 124.847 100.102 123.273 102.947L123.282 102.956ZM130.037 96.4855C128.89 103.994 128.697 103.123 124.713 103.274C126.228 100.035 125.056 95.5564 123.801 89.0192C125.994 88.7262 128.003 87.1693 129.476 85.4868C131.208 87.4623 130.43 93.8907 130.037 96.4772V96.4855Z" fill="black"/>
<path d="M75.3864 126.903C76.7758 126.075 76.9433 126.108 77.2781 124.166C78.2993 118.215 84.4348 113.151 88.0257 112.615C91.2315 112.138 93.7343 114.139 92.9977 118.6C92.6043 120.132 92.3783 121.705 92.328 123.287C92.462 125.874 94.136 128.184 94.2783 130.771C94.362 132.319 94.0105 133.441 92.4954 140.129C92.0518 142.096 91.4491 142.347 90.1517 142.422C87.9838 142.606 85.7991 142.581 83.6396 142.372C78.5838 141.677 74.0555 138.873 71.1761 134.663C70.858 134.211 72.5404 128.603 75.3947 126.903H75.3864Z" fill="white"/>
<path d="M89.3984 120.743C89.2561 119.203 89.231 118.232 89.0971 118.223C88.9883 118.223 88.8041 119.186 88.7874 120.768C88.7371 124.376 89.8002 129.088 90.1685 132.913C90.3275 134.454 90.3694 135.425 90.4949 135.425C90.6037 135.425 90.7795 134.462 90.7711 132.88C90.7795 129.323 89.7248 124.627 89.39 120.743H89.3984Z" fill="black"/>
<path d="M94.6047 131.432C94.4791 128.268 93.6588 125.188 93.4495 121.94C93.2487 119.077 93.9685 116.591 92.7799 114.172C90.6036 109.711 85.6735 111.552 81.6808 114.708C78.4749 117.42 76.4409 121.262 75.9973 125.439C72.7747 127.774 71.7786 130.972 72.1553 131.131C72.4985 131.281 73.3773 129.381 75.8382 127.355C75.6625 131.013 76.3656 136.287 76.8427 136.27C77.3784 136.245 77.2779 130.72 77.6881 127.222C78.1903 122.835 79.4794 119.052 82.9614 116.256C85.6818 114.114 89.4736 111.929 90.9803 115.059C91.8927 116.893 91.2398 119.178 91.449 122.074C91.6667 125.547 92.4869 128.711 92.7548 131.541C93.0394 134.872 91.5578 140.388 92.2275 140.48C92.6292 140.53 94.6967 135.157 94.6047 131.432Z" fill="black"/>
</g>
<defs>
<clipPath id="clip0_210_2385">
<rect width="156.208" height="160" fill="white" transform="translate(0.395996)"/>
</clipPath>
</defs>
</svg>
