<svg width="199" height="160" viewBox="0 0 199 160" fill="none" xmlns="http://www.w3.org/2000/svg">
<g clip-path="url(#clip0_210_2655)">
<path d="M189.599 127.148C192.883 125.914 197.599 124.753 196.759 120.827C196.475 119.481 195.512 118.259 195.463 116.839C195.414 115.37 196.241 114.37 194.056 112.654C188.599 108.358 187.957 111.543 185.512 112.21C184.55 112.457 183.537 112.234 182.587 112.469C180.599 112.963 179.043 115.37 180.241 119.099C181.08 121.716 180.377 121.234 180.512 122.852C181.167 124.815 182.512 126.469 184.315 127.506C186.253 128.617 187.34 128.012 189.624 127.148H189.599Z" fill="white"/>
<path d="M186.71 128.704L186.685 126.704C185.142 126.42 183.735 125.605 182.735 124.407C180.809 122.333 182.759 120.852 182.056 118.654C181.624 117.296 180.982 116.914 181.105 115.852C181.241 115.037 181.71 114.321 182.389 113.864C183.019 113.556 184.624 114.111 186.117 113.481C187.586 112.716 187.636 111.914 188.994 112.062C190.549 112.235 194.179 114.222 194.006 115.716C193.586 119.358 196.056 119.136 195.228 121.531C194.821 122.42 194.327 123.259 193.747 124.037C192.833 125.111 191.661 124.346 189.994 125.111C188.611 125.753 187.87 126.556 186.698 126.691L186.722 128.691C187.784 128.654 188.821 128.358 189.735 127.827C193.056 126.025 193.475 129.025 196.858 124.284C200.093 119.741 196.759 117.42 196.907 116.728C196.821 116.407 197.241 115.728 196.932 114.605C196.093 111.617 191.92 109.272 189.278 108.963C187.624 108.827 185.994 109.444 184.858 110.654C184.488 110.938 182.315 110.235 180.846 111.259C179.377 112.21 178.401 113.778 178.204 115.518C177.969 117.58 179.154 118.79 179.401 119.494C179.698 120.37 178.179 123.506 180.994 126.111C182.5 127.667 184.549 128.593 186.722 128.704H186.71Z" fill="black"/>
<path d="M192.722 119.407C192.784 120.555 193.093 121.173 192.932 121.333C192.772 121.494 192.019 120.926 191.648 119.605C191.303 118.346 191.265 116.543 190.179 115.716C189.352 114.876 187.846 116.506 186.315 116.605C184.858 116.704 184.154 116.074 184.253 115.914C184.327 115.691 185.105 115.852 186.105 115.531C187.179 115.185 192.253 110.506 192.722 119.407Z" fill="black"/>
<path d="M44.1666 130.79C44.895 131.951 44.6481 132.901 46.2284 133.716C47.4876 134.37 49.6728 133.247 50.5493 133.309C51.7839 133.395 52.4012 134.58 54.0555 137.123C54.9814 138.543 54.4876 138.827 53.7592 140.123C52.2037 142.901 54.5494 146.111 54.5987 147.148C54.4629 147.852 54.179 148.519 53.7592 149.111C53.3395 149.704 52.8086 150.198 52.1913 150.556C50.5864 151.222 50.7839 150.556 50.0185 153.346C49.1913 156.383 45.8456 157.37 42.9814 158.074C36.8703 159.568 37.7469 159.469 35.4135 157.951C31.9444 155.704 27.6111 157.198 25.5987 152.074C23.8086 147.494 23.2901 146.506 23.4259 145.284C23.5987 143.63 25.1049 142.272 25.0679 140.605C24.9197 139.877 24.8456 139.136 24.8456 138.395C25.2037 136.37 27.9691 136.309 29.0555 134.728C29.7592 133.704 29.7963 131.79 31.5 130.272C34.1666 127.901 39.7222 128.815 39.9197 128.79C41.6111 128.58 43.2654 129.358 44.179 130.802L44.1666 130.79Z" fill="white"/>
<path d="M55.2531 145.63C54.7346 143.926 53.5617 142.654 53.9074 141.284C54.4012 139.383 57.0309 139.321 53.8086 134.407C51.4383 130.827 49.3765 132.198 47.2407 132.482C45.4259 132.716 46.0185 131.753 45.3765 130.42C43.0432 126.667 37.216 127.531 33.1173 129C28.0556 130.914 29.9938 134.173 28.0556 135.148C26.5123 135.914 26.2654 135 24.4877 137.605C23.7346 138.58 23.5247 139.852 23.8951 141.025C24.1049 141.864 24.0062 141.63 23.2778 143.099C20.8951 147.914 25.7716 155.136 28.7469 156.926C29.9198 157.494 31.2037 157.778 32.5123 157.765C34.6975 158.025 37.7716 162.963 48.6235 157.185C50.7716 156.383 52.0926 154.198 51.7963 151.914C52.1543 150.444 56.5 149.716 55.2654 145.617L55.2531 145.63ZM51.7593 140.691C50.9444 143.494 53.6728 146.025 53.1049 147.346C52.8333 148.519 49.9568 149.161 49.5123 151.444C49.2407 152.815 50.0556 153.815 47.4877 155.161C44.7963 156.617 39.2284 158.691 36.3395 157.086C35.2778 156.309 34.0432 155.778 32.7469 155.543C30.6481 155.321 28.784 156.074 25.3642 149.037C23.0185 143.84 26.821 143.259 25.7099 140.531C25.5 139.765 25.3889 139.42 26.3519 138.074C27.463 136.506 29.142 137.296 30.0432 135.469C31.5 132.914 30.0802 131.63 33.6111 130.494C35.9198 129.691 38.3765 129.407 40.8086 129.654C44.7469 130.321 43.179 132.161 44.5123 133.605C45.3025 134.383 46.4259 134.716 47.5123 134.494C49.8333 134.136 50.5988 133.309 51.9938 135.568C54.3765 139.309 52.5 137.889 51.7593 140.679V140.691Z" fill="black"/>
<path d="M27.7098 144.605C26.216 144.975 28.5864 149.049 28.1419 149.173C28.0185 149.21 27.3271 148.284 26.5123 146.395C25.6604 143.753 28.4259 141.21 31.1913 147.593C32.5246 150.654 33.7222 152.321 32.5987 153.667C32.253 154.16 31.6234 154.358 31.0555 154.16C30.8703 154.099 30.7098 154 30.5617 153.864C30.0185 153.259 29.5987 152.556 29.3024 151.802C28.0555 149.358 30.7592 152.988 31.0925 153.235C31.574 153.691 32.3642 152.852 31.858 151.839C31.537 151.037 28.6975 144.37 27.7098 144.617V144.605Z" fill="black"/>
<path d="M37.0926 132.852C34.8457 133.148 33.0679 133.556 32.9321 133.259C32.7963 132.963 34.5618 132.012 36.9321 131.704C41.0062 131.173 43.9692 131.963 37.0926 132.852Z" fill="black"/>
<path d="M40.068 141.963C33.8457 145.63 30.9815 141.716 34.6976 139.568C35.2161 139.309 35.5618 139.333 35.5618 139.407C35.5618 139.482 35.3149 139.605 34.9445 139.938C34.1667 140.642 33.4136 142.012 34.3766 142.333C36.6359 143.086 44.3519 138.827 41.1791 137.926C39.3272 137.407 37.0186 138.852 36.9075 138.58C38.0803 137.383 39.747 136.79 41.4013 136.988C42.5618 137.247 43.0186 137.938 43.0186 138.568C43.0186 139.988 41.2778 141.222 40.0556 141.938L40.068 141.963Z" fill="black"/>
<path d="M45.6112 142.901C47.4877 143.494 45.9939 146.728 45.7346 146.086C45.6112 146 46.0679 145.296 45.7346 144.235C44.9568 142.407 42.9321 147.494 43.3272 148.679C43.5494 149.136 43.8087 149.198 44.1667 148.679C44.8457 147.642 45.3149 146.951 45.4507 147.037C45.6482 147.148 45.0309 149.79 43.7963 150.012C40.4754 150.346 42.9568 142.321 45.6112 142.914V142.901Z" fill="black"/>
<path d="M41.7593 155.395C40.142 155.938 38.3642 155.753 36.8828 154.889C35.8087 154.395 35.1544 154.222 35.1297 154.074C35.105 153.914 35.9568 153.79 37.1544 154.124C38.5124 154.691 40.0433 154.753 41.4383 154.284C44.8581 153.272 47.6235 152.049 47.7716 152.395C46.0433 153.877 43.9692 154.914 41.747 155.407L41.7593 155.395Z" fill="black"/>
<path d="M128.574 4.32098C130.167 5.58024 130.389 7.08641 129.821 8.07407C129.377 8.8395 128.5 9.22221 127.908 9.86419C127.562 10.2469 127.315 10.716 126.945 11.0741C125.562 12.2963 123.624 12.6543 121.908 12.0123C121.253 11.642 120.846 11.1111 119.167 9.2716C117.957 8.37036 117.71 6.65431 118.599 5.44444C119.389 3.81481 119.87 4.08641 120.512 3.38271C120.969 2.87654 121.093 2.09876 121.624 1.65431C122.303 1.08641 123.278 1.2716 124.093 1.16049C124.982 1.03703 125.29 0.691351 126.056 1.22222C127.512 2.22221 126.821 2.92592 128.587 4.32098H128.574Z" fill="white"/>
<path d="M130.932 5.46916C130.414 4.22224 129.228 3.83953 128.883 3.54323C128.216 2.95064 128.34 -0.222201 123.525 0.0123668C120.796 0.185206 120.154 2.12348 119.537 2.83953C119.093 3.33335 118.512 3.38274 117.907 3.96298C116.809 5.61731 116.698 7.74076 117.624 9.50619C118.315 10.5803 119.463 10.7531 119.562 11.0617C119.722 11.5185 119.957 11.9383 120.266 12.321C121.759 13.7901 124.994 13.7655 126.648 13.0494C127.661 12.5803 128.401 11.6667 128.661 10.5679C128.784 10.284 130.29 9.96298 130.809 8.86422C131.352 7.81484 131.401 6.56792 130.932 5.4815V5.46916ZM129.253 7.0494C129.154 8.60496 127.982 8.01237 126.994 9.33335C126.772 9.75311 126.574 10.1852 126.389 10.6297C125.673 11.7778 122.352 11.5309 121.759 10.9013C121.562 10.6543 121.525 10.3087 121.228 9.88891C120.525 8.95064 119.685 8.97533 119.241 8.39508C118.809 7.35805 118.784 6.2099 119.167 5.16051C119.377 4.90126 120.253 4.59261 120.796 3.81484C121.772 2.43212 121.747 0.753108 125.29 1.80249C127.13 2.40743 126.426 3.85187 127.624 4.95064C128.29 5.56792 129.352 5.79014 129.241 7.06175L129.253 7.0494Z" fill="black"/>
<path d="M123.735 10.4321C122.29 10.2099 121.71 8.98764 121.13 8.0864C120.71 7.43208 120.315 7.17282 120.364 7.03702C120.389 6.88887 121.043 6.96295 121.698 7.61727C122.327 8.23455 122.957 9.27159 123.858 9.39504C124.636 9.60492 124.969 8.14813 125.821 7.58023C126.636 7.03702 127.266 7.17282 127.266 7.28393C127.29 7.43208 126.796 7.60492 126.315 8.13578C125.747 8.75307 125.364 10.679 123.735 10.4444V10.4321Z" fill="black"/>
<path d="M106.821 47.5308C114.043 63.6666 115.512 66.1481 115.414 69.9382C115.34 72.9012 113.549 76.037 110.661 76.6543C113.673 76.0123 123.735 80.0247 127.031 80.5802C131.08 81.2716 136.586 76.9876 138.167 73.1358C138.475 72.3703 138.13 72.5802 144.685 73.395C145.846 73.5432 146.438 74.0864 145.895 75.6666C144.302 80.3456 139.759 82.9753 135.71 85.2716C146.574 94.6173 144.377 110.148 132.105 118.889C131.426 119.235 130.92 119.852 130.698 120.58C130.488 122.049 134.327 127.444 135.735 132.741C136.302 134.877 137.636 137.617 137.488 139.333C137.216 142.642 131.019 149.889 122.34 150.926C118.142 151.42 110.068 155.469 96.3272 154C88.9815 153.222 86.1543 149.309 84.5864 145.877C82.6235 141.543 81.8457 136.58 80.0556 127.864C79.4259 124.778 79.821 125.025 76.784 122.852C72.5247 119.802 70.2531 114.753 68.179 109.951C61.6852 110.938 54.9692 110.802 48.3889 110.839C46.0062 110.839 45.3519 110.654 43.3148 109.136C40.3642 106.926 40.3395 106.988 40.3148 106.704C40.2778 106.346 40.1914 106.506 46.2161 101.815C46.6358 101.383 47.2901 101.284 47.821 101.58C52.2284 103.037 56.8704 103.63 61.5124 103.321C64.4136 103.123 65.8087 103.432 65.7593 100.951C65.6975 97.716 64.8827 97.5926 63.2655 96.395C60.3025 94.2099 58.179 89.2345 56.4013 86.074C54.3148 82.3703 52.4877 78.5308 50.8951 74.5802C47.0803 65.0494 44.9445 57.7037 49.8457 49.074C58.821 33.2469 79.5247 27.1481 93.0926 33.8765C101.883 38.2469 103.562 40.2469 106.821 47.5308Z" fill="#9C9C9C"/>
<path d="M108.253 77.6172C111.154 76.2469 114.87 74.6296 115.389 71.4691C115.969 67.9259 109.92 53.4074 107.846 49.074C103.117 39.2098 96.5495 33.753 85.352 34.1234C83.0063 34.1481 80.6729 34.4074 78.389 34.9012C73.5618 36.0617 62.9199 41.0617 58.6112 46.3209C53.7347 52.2963 52.0927 61.6543 56.2655 71.8765C57.6236 75.1851 58.8705 77.2963 66.1668 90.3703C68.3026 94.1851 69.9569 98.4321 73.6359 95.9506C72.8334 97.2592 72.352 98.7283 72.2162 100.247C72.068 104.568 76.7964 109.012 80.5371 111.21C89.9939 116.765 108.167 116.111 118.29 113.148C128.278 110.235 137.278 103.16 138.303 97.9629C139.71 90.8148 129.191 75.2592 108.278 77.5925L108.253 77.6172ZM104.549 107.568C101.154 107.63 90.7964 109.309 85.5371 102.543C84.5371 101.197 83.9446 99.5926 83.8211 97.9135C83.8211 97.037 84.4384 96.2716 85.3026 96.0987C86.3273 94.9259 87.6236 94.0123 89.0803 93.4444C91.9445 92 96.5865 88.716 104.216 85.8642C111.537 83.1234 115.142 84.0123 120.562 86.2469C123.167 87.3209 127.154 88.4444 128.303 92.1851C130.784 100.309 113.512 107.407 104.549 107.556V107.568Z" fill="white"/>
<path d="M103.809 87.0863C98.8951 88.9135 94.179 91.2468 89.7469 94.0493C87.4013 95.5308 84.2655 97.7036 84.9568 100.407C85.6729 103.173 89.8457 105.63 94.0679 106.518C97.7716 107.272 101.549 107.518 105.315 107.247C111.043 106.889 110.821 107.185 105.389 107.988C88.3025 110.506 79.4506 101.963 84.7222 95.7407C88.2655 91.5678 101.204 85.4073 108.179 83.6543C113.586 82.2962 118.167 83.3086 122.969 86.0864C127.772 88.8641 130.92 92.074 128.636 97.1604C127.167 100.42 123.833 102.494 120.586 103.938C116.512 105.741 102.784 109.79 115.463 104.926C118.747 103.667 122.821 101.827 125.302 99.3703C126.981 97.7036 128.167 95.0987 127.698 93.1234C127.105 90.6296 124.327 88.8888 122.093 87.6419C114.982 83.6666 110.5 84.6296 103.796 87.0987L103.809 87.0863Z" fill="black"/>
<path d="M95.6482 147.852C91.8704 147.012 89.8827 144.963 90.0556 144.778C90.2778 144.531 91.8457 146.16 95.858 146.741C101.204 147.518 118.475 145.839 125.377 142.704C128.846 141.123 130.426 139.234 130.623 139.432C130.809 139.58 128.29 143.938 119.34 146.173C113.5 147.63 101.512 149.16 95.6482 147.864V147.852Z" fill="black"/>
<path d="M145.982 73.2839C144.475 75.716 143.599 78.3333 141.624 80.1975C140.265 81.4814 138.265 82.5925 135.895 84.3086C134.191 83.037 132.327 81.9999 130.34 81.2468C136.821 78.037 137.586 77.2345 139.068 71.9012L137.722 71.3703C136.574 73.2098 136.019 74.6789 135.377 75.4073C133.907 77.1357 131.932 77.6296 128.537 80.4567C124.673 78.7777 123.401 78.0987 119.994 77.2839C117.648 76.6913 115.253 76.358 112.833 76.2715C114.809 75.1975 116.327 74.111 116.488 71.7654C116.71 68.9752 112.846 55.4814 107.265 46.1234C105.315 42.7654 102.907 39.716 100.08 37.0493C99.747 36.7036 97.3889 34.8271 96.9692 34.5678C77.0062 22.6913 49.784 39.1481 46.8087 54.074C44.1667 66.753 52.9939 82.4073 60.4754 93.8394C61.3643 95.4073 62.5988 96.753 64.068 97.8024C64.0062 99.2962 64.2531 100.778 64.784 102.173C49.068 101.741 52.463 103.494 47.1914 100.235L45.9445 102.099C48.2038 103.494 48.9692 104.284 51.5494 104.481C56.1173 104.494 60.6729 104.259 65.2161 103.765C68.2038 103.259 69.8951 102.444 66.6976 102.247C66.7099 101.481 66.6482 100.704 66.4877 99.9505C66.142 98.2592 65.821 98.5802 66.7223 98.6666C68.5001 98.753 70.2655 98.395 71.8828 97.6296C67.9692 106.951 84.2408 113.901 88.4136 113.914C88.9568 113.975 89.5001 113.975 90.0433 113.938C90.0556 113.876 89.5371 113.617 88.463 113.469C85.1544 113.012 67.4013 105.235 74.5618 96.4814C77.4754 92.7283 101.253 82.0123 106.327 79.5431C117.969 75.8888 133.784 83.4691 136.722 92.6666C139.87 102.21 126.562 109.555 116.71 112.42C102.463 116.481 93.8828 114.321 93.784 114.914C93.747 115.173 103.377 117.457 117.13 113.951C131.426 110.235 145.13 100.197 136.784 88.0123C142.364 93.7036 143.167 102.506 139.117 109.889C131.599 123.852 109.772 127.395 109.945 128.247C109.994 128.679 119.809 127.716 130.191 121.728C137.525 137.815 144.278 146.383 111.241 152.247C83.5371 156.827 84.4383 142.309 80.5124 126.531C90.0186 131.012 101.29 129.839 101.265 129.185C101.241 128.333 90.747 128.938 81.3643 124.457C76.068 121.815 72.463 118.346 69.3889 110.42C77.105 109.185 64.3025 108.963 55.1544 109.383C45.6112 109.815 47.105 109.716 40.2778 105.605L39.0927 107.506C46.2038 111.876 45.426 112.074 55.2531 111.63C59.9198 111.42 64.1173 111.086 67.1173 110.728C70.2531 119.037 73.9568 122.839 78.747 125.593C81.6852 137.247 80.6852 151.802 96.2655 154.802C105.179 156.494 120.414 153.173 126.451 150.938C134.154 148.062 139.796 143.012 137.846 135.049C136.994 131.654 135.228 128.555 131.488 120.988C144.772 112.988 148.488 95.4938 137.389 85.4691C144.105 82.0864 145.142 80.5555 147.34 73.8641L146.031 73.2715L145.982 73.2839ZM68.9692 97.0863C64.5988 97.7901 63.2531 96.4197 56.3766 83.5925C46.9075 66.111 43.3766 51.3209 59.7346 40.0864C69.6482 33.2715 80.3519 31.2839 88.5865 33.2468C75.0927 32.1728 52.2778 42.3703 53.1667 59.9382C53.4136 67.1728 56.6729 74.2839 60.142 80.6049C70.2161 98.6296 71.1914 96.5925 68.9939 97.0863H68.9692ZM108.932 76.0123C95.426 82.9259 100.253 78.6419 79.1791 90.9999C77.4754 92.037 74.8457 93.5061 73.4754 95.0617C72.6482 95.6172 71.7717 96.074 70.8581 96.4444C66.6606 87.6543 47.2408 63.9629 58.3643 48.4444C64.784 39.395 85.0309 30.4073 97.4877 37.8024C102.167 41.4444 106.253 48.2098 108.648 53.7036C110.957 59.0493 112.846 64.5555 114.29 70.1975C114.92 73.3826 113.303 73.716 108.945 76.0123H108.932Z" fill="black"/>
<path d="M147.969 72.6666C151.722 72.0987 152.34 70.8024 151.87 67.5802C151.636 66.8271 151.92 66.0123 152.574 65.5679C157.587 60.7407 158.735 55.9506 159.957 52C163.438 40.7284 167.414 37.9506 166.031 34.2222C165.574 33.1605 164.698 32.3457 163.611 31.9629C162.525 31.5802 161.327 31.679 160.315 32.2222C160.142 30.037 158.352 28.3333 156.154 28.2592C155.451 28.2345 154.759 28.3827 154.13 28.6913C153.167 27.4444 151.599 26.8148 150.031 27.0617C146.451 27.3827 144.685 29.7037 143.216 32.5308C140.266 38.2099 138.303 44.358 137.401 50.7037C136.191 48.0987 132.945 47.2839 130.13 46.7778C128.846 46.5432 128.438 46.7037 127.759 47.5926C125.475 50.5679 126.537 52.3086 129.142 55.1358C131.587 57.7778 135.414 61.7284 135.722 65.4938C135.932 68.0123 132.661 75 147.969 72.6913V72.6666Z" fill="white"/>
<path d="M166.636 32.9876C165.463 30.9012 162.932 29.9876 160.698 30.8641C159.71 28.6049 157.216 27.432 154.846 28.0987C151.698 23.3703 142.315 25.6419 138.229 43.2962C136.673 50.037 137.932 49.1851 135.994 47.4197C131.068 43.0493 123.957 45.7901 125.451 51.2345C126.006 53.3333 127.463 54.6172 128.932 56.074C131.327 58.395 131.55 60.0123 133.303 62.6666C135.685 66.2222 135.389 63.5185 134.698 67.2839C134.55 68.0864 134.179 69.9259 134.463 70.679C134.858 71.8394 136.969 73.0493 138.105 73.5432C141.932 75.1975 148.327 75.0493 150.784 73.1111C152.463 71.8148 152.611 69.1234 152.364 67.0123C159.031 62.8518 160.599 51.753 164.019 43.9506C165.154 41.1851 168.796 37.1604 166.624 33.0123L166.636 32.9876ZM159.241 31.5432C156.932 32.9999 155.142 36.2592 153.945 38.7283C149.92 47.1111 152.846 46.2098 149.809 45.2345C148.747 44.9259 147.648 44.7654 146.55 44.7901C147.796 41.037 149.352 37.4073 151.216 33.9259C154.142 28.8148 158.031 29.3209 159.241 31.5432ZM165.056 35.6296C165.216 38.7036 163.043 38.753 159.587 49.6296C158.056 54.4938 156.229 61.3827 152.611 64.8518C148.512 68.8024 143.858 67.6666 143.784 68.1604C143.71 68.4814 147.154 69.3456 150.858 67.7777C150.772 69.0246 150.55 70.8024 149.587 71.4691C147.883 72.7036 140.772 72.9999 137.34 70.7036C136.957 70.4814 136.611 70.2098 136.315 69.8888C136.278 69.4814 136.488 66.8888 136.574 66.1234C138.722 67.8271 140.204 68.2715 142.006 68.2839C144.451 68.2469 141.401 67.1728 140.204 66.4444C139.315 65.8518 138.488 65.1728 137.735 64.4073C134.352 61.0617 134.352 59.5185 132.414 56.679C131.204 54.8641 129.821 53.9506 128.685 52.5802C126.216 49.7777 127.784 46.9506 131.352 47.5431C136.809 48.4197 137.759 53.9752 138.389 53.9135C138.648 53.9135 138.982 52.6419 138.278 50.7283C138.722 50.8148 141.624 32.7407 148.488 28.6172C149.945 27.6543 151.846 27.6666 153.29 28.6543C148.784 30.9259 145.821 39.9876 144.858 44.9012C144.303 44.9753 141.648 45.3827 141.685 45.7901C141.722 46.4074 146.352 45.8394 149.34 46.753C152.932 47.8888 155.599 50.8765 156.019 50.4814C156.327 50.1975 154.796 48.3086 153.389 47.1728C154.537 42.037 158.994 30.7777 163.648 33.0493C164.562 33.5802 165.105 34.5678 165.056 35.6172V35.6296Z" fill="black"/>
<path d="M144.278 55.7654C139.093 56.6049 138.846 62.4568 139.512 62.3333C139.846 62.3333 139.87 58.6543 143.426 57.321C141.895 60.8642 142.932 64.1975 143.327 64.1358C143.562 64.0988 143.587 63.2222 143.772 61.9012C144.92 53.4568 150.932 53.2469 150.846 52.4691C150.821 51.9259 146.796 52.1234 144.278 55.7778V55.7654Z" fill="black"/>
<path d="M43.4631 93.321C44.9199 94.8518 48.8088 95.7654 47.2779 99.6173C46.2779 102.123 42.3273 105.235 39.9816 106.63C37.5125 108.086 35.7347 108.556 32.0804 103.58C29.5248 103.58 27.0186 102.951 24.7594 101.753C22.1915 100.321 22.2902 99.6173 11.2655 91.8765C9.8211 90.8148 8.24085 89.9259 6.57419 89.2593C3.06801 87.4321 0.648262 83.1358 2.6853 80.9012C3.59888 80.1111 4.75937 79.6667 5.96925 79.642C4.73468 76.4691 6.62357 74.2963 8.80875 74.2716C8.03098 71.4815 11.747 67.2346 17.5248 69.5309C21.7964 71.2346 30.9569 79.2222 34.389 82.3086C34.6606 78.7284 37.6359 74.3086 40.7594 74.4938C42.2409 74.6667 43.4878 75.7037 43.9199 77.1358C44.7594 79.716 43.5618 84.5802 43.4631 85.8025C43.2655 88.3086 44.1915 90.9136 43.4631 93.3086V93.321Z" fill="white"/>
<path d="M45.1668 76.3333C43.426 70.9629 35.9692 72.6049 34.2655 78.9506C33.6236 81.4938 35.3149 81.6666 30.1297 76.7407C26.1174 72.9259 18.8705 67.6172 13.3396 68.1234C10.2408 68.3333 7.90751 70.8394 7.89517 73.1975C5.54949 73.9506 4.11739 76.3086 4.5248 78.7283C2.17912 79.2345 0.57418 81.3827 0.734674 83.7777C1.20381 88.432 6.46307 89.8148 8.91986 91.4814C15.5989 95.8024 22.4384 103.358 29.7347 104.235C32.5248 104.58 31.0927 103.481 33.3149 106.222C35.1421 108.432 35.7347 109.123 38.6236 108.136C41.9692 107.012 44.8828 104.889 47.0063 102.074C50.5495 97.4814 48.4137 96.074 44.5124 93.2098C45.3026 89.6049 44.5124 87.5061 44.5742 84.7654C44.6112 81.9012 46.1421 79.3086 45.1421 76.3209L45.1668 76.3333ZM6.89517 76.2222C10.389 72.0617 19.6976 79.2345 24.0186 82.5802C22.5989 83.4691 21.4137 84.6913 20.5865 86.1481C17.2779 83.0864 10.5125 78.4073 6.12973 78.4938C6.08035 77.6666 6.3643 76.8394 6.90751 76.2222H6.89517ZM43.2162 79.2592C43.031 80.9999 42.3766 82.5802 42.3643 84.7283C42.3149 88.1975 43.1668 89.4444 42.1791 94.1111C41.2038 98.6172 39.352 99.5555 39.8334 99.9999C40.1915 100.333 41.9939 98.753 42.5742 97.9999C43.2532 97.0246 43.7717 95.9506 44.1174 94.8148C46.747 97.3827 47.9322 97.5555 45.3273 100.704C43.7717 102.691 41.7964 104.296 39.5248 105.395C36.0804 107.148 36.4013 106.753 34.6606 105.025C33.426 103.778 33.5125 104.062 34.1791 103.864C37.4507 102.951 39.3766 100.741 39.1791 100.555C38.9075 100.259 35.3149 103.642 29.9816 102.654C25.0557 101.741 19.7594 97.0123 15.7841 93.7777C7.01862 86.6789 5.05566 87.7283 3.51245 85.0987C2.0927 82.7901 3.62356 80.8518 6.00628 80.7407C9.74702 80.5308 16.5371 85.358 19.6112 88.3333C19.426 88.9259 19.2779 89.5185 19.1668 90.1357C18.9322 91.6049 19.0186 92.5185 19.2285 92.5555C19.4507 92.5925 19.7717 91.7407 20.2655 90.432C22.0557 85.8148 23.2779 84.9012 26.8458 82.358C29.9445 80.2098 28.6236 80.1975 25.4754 81.753C22.0433 78.2592 14.5742 72.2345 9.48776 72.8271C10.1421 71.1975 11.7223 70.1481 13.4754 70.1481C21.6359 69.8148 33.7347 83.4197 34.1668 82.9876C34.6359 84.9752 35.6112 85.8518 35.8334 85.716C36.3273 85.4567 35.0186 83.0987 36.2408 79.5555C38.2285 74.1234 43.9692 73.8641 43.2038 79.2592H43.2162Z" fill="black"/>
<path d="M31.9446 90.5061C27.9569 88.8764 24.3397 90.827 24.6483 91.3579C24.7594 91.5678 25.5866 91.3085 26.8952 91.2345C33.8211 90.7777 36.71 97.2715 37.3397 96.9752C37.7718 96.79 36.6236 93.3826 33.5125 91.3456C37.2409 90.5061 39.2779 93.5554 39.5372 93.3826C40.2656 93.074 36.7224 88.3826 31.9446 90.5184V90.5061Z" fill="black"/>
<path d="M85.3765 48.8396C82.6975 55.3334 86.5988 63.3334 96.4753 65.6544C126.488 73.2717 127.957 52.7284 112.389 45.9013C113.512 37.0001 107.438 29.0865 100.142 27.4815L97.3395 26.7778C98.2531 28.605 98.7593 30.6173 98.858 32.6544C98.7716 37.3951 94.7346 36.3581 91.6605 38.1482C89.3642 39.3457 88.1667 41.9383 88.7346 44.4568C88.8086 44.7778 86.6852 45.6914 85.3889 48.8396H85.3765ZM118.167 62.2963C116.846 63.642 114.87 64.605 112.302 64.9754C106.451 65.8149 93.1296 64.5062 88.6729 58.6297C85.7469 55.0371 86.1296 49.8025 89.5247 46.6667C93.142 53.605 105.821 55.8396 105.648 54.8149C105.698 54.5186 97.6852 53.0247 93.1173 48.4075C90.4877 45.7038 89.2901 41.9383 92.7222 39.963C94.8457 38.7038 102.636 39.2593 100.698 29.9136C106.981 32.1976 110.932 38.4322 110.302 45.0865C105.13 43.284 98.4753 42.6791 98.4259 43.1112C98.3765 43.5926 103.735 43.9383 110.191 46.6544C120.142 50.9383 122.13 58.2717 118.167 62.2963Z" fill="black"/>
<path d="M121.611 105.506C124.401 103.765 130.241 98.2593 130.512 96.7408C130.821 95.0124 128.611 93.0618 125.34 94.9753C124.5 95.5803 123.599 96.0741 122.648 96.4692C120.006 97.2716 117.92 94.3457 121.846 92.0741C125.796 89.7902 128.907 89.4321 130.562 84.963C133.636 76.6297 127.512 72.4198 123.228 75.4568C120.068 77.7037 117.488 84.4321 114.512 86.3457C112.142 87.8766 109.624 86.7161 109.475 85.2593C109.327 83.7531 112.34 78.8148 112.303 77.0124C112.352 75.8642 111.525 74.8766 110.389 74.7161C108.994 74.7161 108.364 76.2223 107.796 77.2346C107.142 78.4074 106.34 79.3334 105.784 80.5679C105.623 80.963 105.426 81.3334 105.191 81.6914C103.883 83.5556 100.105 84.3704 98.7717 82.1976C97.7223 80.4815 98.2161 77.8148 96.3149 76.6297C94.9075 75.926 93.2038 76.5062 92.5 77.9136C92.4754 77.963 92.4507 78.0247 92.426 78.0865C91.8951 79.605 92.3025 81.2963 93.463 82.4198C94.0679 82.9136 94.6235 83.4939 95.0803 84.1235C95.7346 85.321 95.3025 86.8148 94.105 87.4815C93.7593 87.6667 93.3766 87.7778 92.9692 87.7902C92.4013 87.8025 91.8457 87.6173 91.4013 87.2716C88.6359 85.0741 89.0062 77.9013 84.784 75.0618C83.821 74.321 82.5494 74.1482 81.426 74.605C78.5988 76.0865 79.0556 82.5185 78.9939 84.3704C79.0309 84.7778 78.747 85.1358 78.3396 85.1729C78.1914 85.1852 78.0433 85.1605 77.9075 85.0864C77.5618 84.9136 77.2531 84.6914 76.9692 84.4321C73.0309 81.4074 67.6112 88.2593 75.3889 90.8148C80.1914 92.3951 80.2037 93.0247 81.2408 98.4939C82.0062 102.556 87.784 103.593 91.6112 105.148C96.3642 107.074 98.8334 107.963 103.969 108.136C109.982 108.346 116.512 108.691 121.611 105.506Z" fill="#E5E5E5"/>
<path d="M120.722 95.0124C121.34 93.2593 127.241 91.4691 129.945 87.8642C131.698 85.5185 133.154 81.4568 132.451 78.6049C132.006 76.8519 130.87 75.358 129.303 74.4691C127.735 73.5679 125.87 73.3457 124.142 73.8519C121.142 74.7407 120.117 77.5679 119.488 78.679C118.056 81.3951 116.093 83.7901 113.71 85.7407C112.117 86.8272 110.105 86.358 110.34 84.3951C110.549 82.6173 111.735 81.1358 112.587 78.8025C113.389 76.5803 113.303 74.4815 111.043 74.2593C107.093 73.8025 106.512 78.6543 105.241 80.6173C103.401 83.6173 100.327 83.5556 99.3643 81.8889C98.3149 80.3086 98.5989 77.0494 96.105 76.0988C92.6236 74.7901 89.6235 79.3333 92.5248 82.8765C93.3643 83.8889 94.6236 84.7531 94.3149 85.8889C94.2038 86.3704 93.8581 86.7531 93.389 86.9136C92.9198 87.0741 92.4137 86.963 92.0433 86.642C91.105 85.9383 90.5865 84.0617 89.6482 81.3704C86.389 71.8025 79.9569 72.7284 78.7347 75.679C77.3396 78.037 78.5371 84.5556 78.0803 84.2099C77.71 83.8642 77.3026 83.5432 76.8705 83.2716C72.105 80.642 67.3643 87.9259 73.7594 91.1852C75.1421 91.8765 77.1297 92.3086 78.5001 93.5679C78.8087 93.8519 78.9075 97.2716 81.1421 99.8025C84.426 103.543 92.2038 107.938 101.13 108.111C107.13 108.222 100.315 107.444 95.0927 105.802C90.5371 104.37 83.3643 100.654 81.6235 96.8642C81.7347 90 73.9939 90.7654 72.6729 87.8642C72.1297 86.6543 72.6606 85.2346 73.8705 84.679C74.8334 84.2469 75.9692 84.4815 76.6729 85.284C78.3643 86.7284 79.8334 85.8642 79.9198 84.5185C80.068 82.4691 78.8458 76.4938 81.0927 75.4445C82.105 75.1605 83.1915 75.2716 84.1174 75.7778C87.5001 77.6049 88.105 82.4691 89.9692 86.321C93.5989 93.8025 101.463 92.7778 101.389 92.2222C101.364 91.8025 96.7594 92.679 93.031 88.3951C94.3643 88.3333 95.4754 87.3704 95.71 86.0617C95.784 85.642 95.7717 85.2099 95.6482 84.7901C95.3149 83.5679 94.1914 82.7408 93.5742 81.9877C91.5371 79.5432 93.4384 76.4815 95.6236 77.321C97.3149 77.9877 97.031 80.6173 98.2655 82.5803C99.2532 84.0247 101.056 84.6543 102.722 84.1358C106.29 83.2346 107.315 78.8889 108.006 77.4568C109.228 74.9506 111.451 75.3086 111.648 75.9012C112.253 76.9259 110.574 80.1235 110.093 81.0864C106.908 87.3951 111.698 88.7654 114.451 86.9012C116.648 85.4444 119.352 81.9506 120.772 79.3951C121.426 78.2346 122.327 75.9877 124.587 75.3457C125.895 75 127.29 75.1975 128.451 75.8765C129.611 76.5679 130.463 77.6914 130.784 79C131.315 81.4445 129.809 84.9877 128.463 86.7778C126.821 88.9506 122.932 90.6049 120.5 92.358C116.92 94.9753 118.969 99.1728 122.945 97.679C124.698 97.0124 125.858 95.7037 127.228 95.1235C129.228 94.2469 130.957 96.0864 128.315 98.1235C127.537 98.7161 126.167 99.1482 125.525 100.926C121.167 105.58 118.438 106.148 111.895 107.111C101.796 108.469 103.031 109.037 112.031 108.543C115.29 108.321 119.87 107.79 122.648 106.037C123.821 105.309 127.154 102.593 128.056 100.877C128.648 100.407 131.303 99.4321 131.747 96.7407C132.179 93.6296 129.031 91.9877 126.414 93.2099C124.167 94.2099 122.661 96.3457 120.809 95.8395C120.624 95.7037 120.611 95.2593 120.698 95.0124H120.722Z" fill="black"/>
<path d="M110.191 46.6543C103.735 43.9383 98.3766 43.5926 98.426 43.1111C98.4754 42.6667 105.13 43.2839 110.303 45.0864C110.932 38.4321 106.982 32.1975 100.698 29.9136C102.636 39.2593 94.8458 38.7037 92.7223 39.963C89.2779 41.9259 90.4878 45.7037 93.1174 48.4074C97.6853 53.0247 105.698 54.5185 105.648 54.8148C105.821 55.8272 93.1544 53.6049 89.5248 46.6667C86.1174 49.8025 85.747 55.0494 88.6729 58.6296C93.1297 64.5062 106.451 65.8148 112.303 64.9753C114.87 64.6049 116.846 63.6296 118.167 62.2963C122.117 58.2716 120.142 50.9383 110.191 46.6543Z" fill="#8A8A8A"/>
</g>
<defs>
<clipPath id="clip0_210_2655">
<rect width="197.531" height="160" fill="white" transform="translate(0.734619)"/>
</clipPath>
</defs>
</svg>
