<svg width="323" height="331" viewBox="0 0 323 331" fill="none" xmlns="http://www.w3.org/2000/svg">
<path d="M145.95 290.407C133.352 301.747 124.39 317.067 120.682 333.609C118.951 341.345 118.513 350.038 122.903 356.644C127.323 363.281 135.847 366.284 143.821 365.979C151.796 365.674 159.383 362.569 166.614 359.199C209.714 339.105 247.212 307.926 277.317 271.128C282.908 264.287 286.34 256.184 290.699 248.499C385.281 81.5068 259.973 -76.7821 72.8061 21.0414C37.1 39.7104 5.25365 65.9731 -19.8099 97.5189C-26.9491 106.507 -33.7828 117.023 -32.9273 128.464C-32.0107 140.751 -21.7857 151.083 -9.94133 154.533C1.89283 157.984 14.8371 155.47 25.9685 150.177C37.1101 144.883 46.7649 137.005 55.5234 131.477C55.5234 131.162 42.4671 142.237 37.1101 148.752C31.7634 155.266 27.6184 163.033 26.7323 171.411C25.8361 179.788 28.5655 188.797 34.9714 194.274C41.7134 200.035 51.2256 201.145 60.0961 201.104C72.2358 201.053 84.3551 199.323 96.7392 196.788C94.0506 197.388 70.6776 216.739 63.8134 231.326C56.9593 245.903 56.6742 264.277 66.0845 277.357C74.5374 289.094 89.376 294.886 103.817 295.772C118.259 296.658 143.404 291.303 145.94 290.418L145.95 290.407Z" fill="black" fill-opacity="0.9"/>
</svg>
