<svg width="31" height="31" viewBox="0 0 31 31" fill="none" xmlns="http://www.w3.org/2000/svg">
<rect x="1" y="1" width="29" height="29" rx="14.5" stroke="#5F5F5F"/>
<path d="M11.4626 22.5V20.852L14.6946 17.476C15.3346 16.804 15.8252 16.2707 16.1666 15.876C16.5186 15.4707 16.7639 15.124 16.9026 14.836C17.0412 14.548 17.1106 14.2547 17.1106 13.956C17.1106 13.4547 16.9506 13.06 16.6306 12.772C16.3212 12.484 15.9212 12.34 15.4306 12.34C14.9186 12.34 14.4759 12.4893 14.1026 12.788C13.7292 13.076 13.4572 13.5027 13.2866 14.068L11.3826 13.476C11.5106 12.8467 11.7719 12.3027 12.1666 11.844C12.5612 11.3747 13.0412 11.0173 13.6066 10.772C14.1826 10.516 14.7906 10.388 15.4306 10.388C16.1986 10.388 16.8706 10.5267 17.4466 10.804C18.0332 11.0813 18.4866 11.4707 18.8066 11.972C19.1372 12.4733 19.3026 13.06 19.3026 13.732C19.3026 14.1587 19.2226 14.58 19.0626 14.996C18.9026 15.412 18.6626 15.8387 18.3426 16.276C18.0226 16.7027 17.6066 17.1827 17.0946 17.716L14.2946 20.66H19.4626V22.5H11.4626Z" fill="#5F5F5F"/>
</svg>
