<svg width="31" height="31" viewBox="0 0 31 31" fill="none" xmlns="http://www.w3.org/2000/svg">
<rect x="1" y="1" width="29" height="29" rx="14.5" stroke="#5F5F5F"/>
<path d="M15.2974 22.692C14.6467 22.692 14.028 22.5747 13.4414 22.34C12.8654 22.0947 12.3694 21.7533 11.9534 21.316C11.548 20.868 11.2707 20.34 11.1214 19.732L13.0254 19.06C13.2174 19.604 13.5107 20.02 13.9054 20.308C14.3 20.5853 14.764 20.724 15.2974 20.724C15.724 20.724 16.092 20.644 16.4014 20.484C16.7214 20.324 16.972 20.0947 17.1534 19.796C17.3347 19.4867 17.4254 19.124 17.4254 18.708C17.4254 18.292 17.3347 17.94 17.1534 17.652C16.9827 17.3533 16.7374 17.124 16.4174 16.964C16.0974 16.804 15.7187 16.724 15.2814 16.724C15.0787 16.724 14.8654 16.7453 14.6414 16.788C14.428 16.8307 14.236 16.8947 14.0654 16.98L13.5694 15.94L16.6574 12.42H11.7934V10.58H19.1054V12.292L16.0014 15.924L16.0334 15.108C16.748 15.1187 17.372 15.2733 17.9054 15.572C18.4387 15.8707 18.8547 16.2813 19.1534 16.804C19.452 17.3267 19.6014 17.94 19.6014 18.644C19.6014 19.412 19.4147 20.1053 19.0414 20.724C18.668 21.332 18.156 21.812 17.5054 22.164C16.8547 22.516 16.1187 22.692 15.2974 22.692Z" fill="#5F5F5F"/>
</svg>
