<svg width="18" height="18" viewBox="0 0 18 18" fill="none" xmlns="http://www.w3.org/2000/svg">
<rect width="18" height="18" rx="4" fill="#BEF642"/>
<path d="M12.7459 5.16141C12.6357 5.05118 12.4653 4.99106 12.295 5.00108C12.0946 5.0111 11.9142 5.11131 11.7739 5.28166L7.64544 10.4322L6.21249 8.92915C5.93191 8.63856 5.50103 8.63856 5.21043 8.92915C5.07014 9.06944 5 9.23979 5 9.43018C5 9.62057 5.08016 9.79092 5.21043 9.92119L7.17447 11.9955C7.3348 12.1458 7.54523 12.2059 7.6755 12.2059C7.93603 12.2059 8.12642 12.0957 8.21661 11.9053L12.8561 6.13341C12.9764 5.97308 13.0265 5.75263 12.9864 5.55221C12.9463 5.37184 12.8461 5.22153 12.7359 5.16141H12.7459Z" fill="black"/>
</svg>
