<svg width="269" height="175" viewBox="0 0 269 175" fill="none" xmlns="http://www.w3.org/2000/svg">
<g clip-path="url(#clip0_461_1522)">
<path d="M0.736901 221.878C0.454166 221.835 0.179532 221.749 -0.0778011 221.625C-0.333426 221.498 -0.568461 221.334 -0.775027 221.138C-1.191 220.743 -1.47435 220.229 -1.58635 219.668C-2.19484 216.395 4.40559 202.164 4.40559 202.164C4.40559 202.164 0.872967 198.475 2.72464 191.543C3.48356 188.701 9.1983 176.618 13.1535 172.517C15.8046 169.764 20.6007 167.087 24.5627 168.025C24.7207 168.061 23.5891 169.094 31.5181 159.761C40.2339 149.499 61.5961 132.04 79.6176 123.861C98.534 115.273 130.421 108.233 158.69 113.228C196.374 119.898 220.847 141.587 236.563 158.241C242.849 158.152 248.263 163.095 252.409 167.805C258.946 175.224 264.918 183.971 265.331 193.838C265.477 195.247 265.37 196.671 265.017 198.044C264.667 199.418 264.076 200.72 263.271 201.889C265.148 206.393 266.749 211.007 268.065 215.705C268.318 216.695 268.177 217.625 267.642 218.496C267.104 219.365 266.335 219.911 265.335 220.131C245.077 224.604 140.2 245.004 0.736901 221.878Z" fill="white"/>
<path d="M252.06 177.58C251.285 178.193 262.183 192.999 256.043 193.629C255.957 191.558 255.417 189.53 254.46 187.692C252.702 184.026 245.121 174.205 243.31 172.197C242.516 171.227 241.573 170.389 240.518 169.713C239.463 169.034 238.308 168.526 237.094 168.21C238.15 162.25 246.434 171.031 247.09 170.113C247.367 169.697 241.602 162.943 237.698 164.376C235.482 165.146 234.057 168.131 235.281 171.575C237.236 177.107 249.83 192.401 250.635 193.197C252.712 195.149 254.925 196.489 257.583 195.535C265.27 191.592 252.673 177.087 252.06 177.58ZM246.836 184.935C244.462 181.896 237.392 173.266 237.039 169.416C241.058 170.743 243.601 175.331 247.726 180.766C250.576 184.637 254.127 188.749 254.733 193.418C251.918 192.368 249.055 187.652 246.846 184.934L246.836 184.935ZM215.095 204.442C214.261 189.383 189.891 181.391 189.588 183.695C189.397 184.499 198.311 186.332 206.337 194.369C213.998 202.147 212.279 209.088 208.711 210.294C209.535 205.789 206.677 201.576 203.134 198.709C198.181 194.683 191.507 193.095 185.295 191.576C176.664 189.541 163.632 187.246 158.289 194.528C154.903 180.403 182.234 184.349 182.465 183.368C183.019 181.533 156.255 177.15 154.689 191.044C154.562 192.185 154.604 193.339 154.814 194.468C155.021 195.601 155.391 196.685 155.919 197.709C156.444 198.73 157.117 199.668 157.917 200.493C158.719 201.321 159.622 202.018 160.631 202.579C165.778 205.75 171.962 204.994 177.644 205.723C192.253 207.456 197.367 213.478 205.753 213.996C212.022 214.3 215.313 210.396 215.095 204.442ZM186.508 204.01C172.974 200.314 164.202 203.897 159.377 196.909C162.666 189.733 177.403 192.593 184.641 194.317C192.285 196.153 203.075 198.662 206.198 206.318C206.791 207.67 206.948 209.175 206.647 210.621C200.945 210.72 195.909 206.576 186.508 204.01ZM149.492 147.755C145.873 141.226 134.853 142.14 135.064 143.234C135.104 143.663 137.214 143.603 140.268 144.535C143.783 145.645 148.311 148.128 147.361 151.714C146.686 154.479 147.028 152.223 141.099 149.786C132.828 146.341 119.875 147.626 116.02 153.462C114.219 150.023 116.91 147.121 120.353 145.41C123.173 144.112 127.634 142.632 123.69 142.818C109.685 143.639 110.024 157.411 119.525 159.228C123.093 159.911 126.849 158.838 132.61 158.838C136.825 158.765 142.899 160.393 147.041 156.953C150.369 154.281 151.044 150.464 149.492 147.755ZM132.607 156.015C124.726 156.015 120.261 157.966 117.012 154.782C120.168 150.222 134.582 147.183 145.752 154.333C142.46 157.481 137.659 155.982 132.607 156.014V156.015ZM14.5297 185.769C11.255 191.85 8.97308 197.011 8.2842 196.794C7.65105 196.588 8.91736 190.876 12.3111 184.568C15.7073 178.26 19.8161 174.079 20.337 174.505C20.8908 174.971 17.8111 179.69 14.5297 185.769ZM94.1428 189.237C86.4166 179.346 68.2002 188.837 69.0377 190.152C69.4598 190.909 80.8659 185.928 88.1177 188.65C92.2535 190.569 92.3556 192.675 90.598 194.99C90.1032 195.647 88.3524 193.795 81.8916 193.868C70.5809 193.96 58.4648 200.429 52.6972 209.545C49.7256 208.194 49.2545 206.03 50.6069 203.045C53.327 197.041 61.0245 192.913 60.648 192.153C60.0874 190.833 45.3272 198.141 46.7185 207.298C47.8464 212.596 53.6343 214.228 59.5133 213.379C65.6769 212.434 101.437 200.717 94.1428 189.237ZM54.7182 210.112C62.4427 200.73 76.8331 194.544 88.8006 196.833C82.9047 201.978 62.0983 211.176 54.7182 210.112ZM188.684 167.493C186.211 164.924 186.772 162.375 188.929 161.903C190.483 161.824 192.04 162 193.538 162.424C195.049 162.85 196.451 163.504 197.747 164.386C200.437 166.13 205.921 170.123 196.981 165.764C191.899 163.287 188.741 164.098 189.248 164.075C189.248 164.075 189.235 164.056 189.258 164.181C189.159 167.005 204.651 174.888 202.456 169.583C201.44 167.45 202.402 168.204 203.184 169.118C204.938 171.156 203.056 176.44 192.019 169.839C190.798 169.226 189.674 168.436 188.684 167.493ZM70.7987 161.397C66.7946 161.705 59.9253 164.316 62.1186 167.656C64.0282 170.473 69.4235 169.531 72.7902 168.779C82.2513 166.509 81.9313 160.713 70.7979 161.398L70.7987 161.397ZM77.5026 165.096C74.0793 167.497 59.2103 168.571 65.8086 164.851C72.309 161.186 81.3218 162.412 77.5026 165.097V165.096ZM114.473 178.247C108.333 183.808 103.429 180.942 104.26 177.497C104.576 176.169 106.496 174.122 105.56 176.546C105.393 176.837 105.299 177.165 105.286 177.501C105.275 177.668 105.289 177.834 105.322 177.999C105.351 178.164 105.405 178.323 105.474 178.475C105.61 178.782 105.82 179.05 106.084 179.257C106.346 179.468 106.655 179.611 106.984 179.676C109.088 180.172 113.691 177.032 113.982 175.549C114.173 174.042 114.183 172.675 109.774 174.108C101.853 176.681 108.824 172.777 111.357 172.064C113.665 171.589 115.571 171.889 115.911 174.231C116.044 174.968 115.979 175.727 115.723 176.431C115.474 177.136 115.043 177.762 114.473 178.247ZM27.7567 209.811C25.1355 207.714 28.4101 203.811 31.8993 202.361C34.6624 201.222 35.6315 202.434 35.4281 202.555C34.3807 202.626 33.3724 202.981 32.5122 203.584C28.6178 206.014 27.6056 209.211 30.2834 208.293C31.9383 207.607 33.4171 206.556 34.6092 205.218C34.9924 204.891 35.2558 204.485 35.401 204.006C35.5496 203.524 35.5589 203.042 35.4272 202.556C35.5859 202.127 37.314 203.507 35.7007 206.044C34.0917 208.58 30.0614 211.661 27.7567 209.812V209.811ZM236.877 211.163C236.72 211.428 236.515 211.66 236.273 211.849C236.029 212.044 235.762 212.187 235.465 212.279C234.874 212.467 234.235 212.428 233.671 212.17C229.925 210.756 227.798 205.406 228.841 204.211C229.226 203.676 229.18 204.445 229.335 204.911C230.062 206.687 231.23 208.248 232.729 209.445C235.103 211.417 236.401 210.423 234.074 207.111C233.292 206.001 231.307 203.719 229.886 203.811C229.45 203.838 229.216 204.109 229.094 204.039C228.995 204.022 228.936 203.487 229.645 203.098C232.207 201.711 238.568 207.675 236.877 211.163Z" fill="black"/>
<path d="M146.65 199.465C145.102 195.199 145.448 192.335 145.663 192.348C146.267 192.275 147.406 205.262 159.336 210.009C164.554 212.088 170.132 212.094 175.721 213.152C180.078 213.98 182.541 215.339 182.425 215.574C182.303 215.873 179.772 215.058 175.503 214.63C167.129 213.792 152.209 214.776 146.65 199.465ZM121.302 165.173C112.413 164.179 107.709 158.395 108.287 157.943C108.819 157.467 112.298 162.2 121.524 163.247C128.548 164.043 136.101 162.624 136.206 163.407C136.289 164.04 127.693 165.893 121.302 165.173ZM99.2886 202.259C93.2416 209.359 80.8966 214.912 80.4614 213.885C80.1766 213.208 91.3639 207.801 97.4143 200.668C101.293 196.097 101.682 191.996 99.6689 187.512C98.4013 184.677 96.4206 182.132 96.7409 181.86C97.1634 181.495 108.802 191.088 99.2886 202.259ZM192.001 175.546C186.894 172.983 183.821 168.78 184.271 168.385C184.719 167.991 187.914 171.313 192.863 173.808C197.811 176.304 202.382 176.782 202.359 177.355C202.33 178.025 197.118 178.11 192.001 175.546Z" fill="black"/>
<path d="M267.552 209.225C264.445 200.091 264.594 203.079 265.759 200.559C271.224 188.157 253.912 158.838 236.438 156.611C180.253 89.7814 77.636 96.1513 24.4428 166.544C13.4871 163.761 0.751097 185.487 0.371563 195.359C0.354352 196.641 0.536848 197.918 0.912547 199.144C1.28653 200.371 1.84667 201.533 2.57354 202.591C1.47128 205.117 0.427352 207.669 -0.556564 210.244C-2.42212 215.137 -2.89801 219.44 -1.99609 219.69C-0.433998 220.133 2.93363 210.311 5.32411 204.755C12.2453 207.689 21.1504 196.363 19.8233 195.477C19.1792 195.05 10.6537 203.9 6.75772 201.766C-1.16686 197.964 9.34599 178.771 14.7313 173.69C17.7431 170.779 23.5012 168.155 25.1918 170.73C27.857 173.697 25.0827 185.506 25.8891 185.819C26.7572 186.177 29.1942 180.073 29.3328 174.953C68.2195 123.57 134.96 106.679 191.179 132.541C202.349 137.655 205.007 139.803 205.16 139.549C205.242 139.425 200.008 136.208 199.879 136.133C144.985 104.123 72.0723 116.923 29.0852 171.631C28.9554 170.865 28.6892 170.128 28.2991 169.454C27.9092 168.781 27.4027 168.182 26.8029 167.685C79.1449 102.91 175.187 93.2248 232.954 156.591C231.755 156.708 230.593 157.066 229.537 157.644C228.479 158.219 227.549 159.003 226.803 159.947C220.682 167.935 233.226 183.948 234.14 183.296C235.055 182.682 224.846 167.53 229.432 161.962C231.135 159.795 234.249 159.595 236.957 160.111C240.451 160.907 243.706 162.517 246.456 164.807C254.585 171.25 262.196 182.461 263.369 194.386C263.937 200.128 260.499 203.002 256.177 202.703C251.511 202.358 247.705 198.254 244.353 195.09C238.835 189.794 232.561 184.694 242.599 196.715C246.302 201.023 250.181 205.429 255.863 205.995C256.979 206.12 258.086 206.061 259.182 205.818C260.269 205.577 261.308 205.157 262.255 204.575C262.989 206.469 263.682 208.376 264.339 210.3C268.697 223.018 270.504 217.831 267.552 209.225Z" fill="black"/>
<path d="M57.8118 112.252C59.4594 110.641 62.2137 107.049 61.8296 104.797C61.4075 102.309 53.784 94.8659 45.9707 93.6784C42.3891 89.0684 33.3318 83.4084 30.3561 82.2209C27.696 81.1584 24.0497 80.7484 21.9329 82.1409C17.9501 84.7659 19.445 93.7719 19.4916 95.8034C19.6067 101.408 24.0417 108.918 23.8855 110.518C23.7643 111.742 22.2304 111.672 23.2044 116.201C23.8162 119.186 24.6 122.132 25.5521 125.026C26.0764 126.569 26.8061 128.233 28.2949 128.899C30.4643 129.866 34.7836 128.666 37.0036 127.459C37.7668 127.043 38.1504 126.984 38.7879 127.754C40.0399 129.279 41.5442 132.291 44.1769 132.084C44.928 132.026 45.1158 131.621 45.0808 130.883C45.0158 129.293 44.5925 127.737 43.8423 126.332C44.7468 125.975 45.5636 125.428 46.2371 124.727C47.2111 125.705 50.3996 128.664 51.8044 128.764C53.2106 128.866 54.1771 127.225 54.0344 125.834C53.7357 124.465 53.1686 123.168 52.3657 122.018C51.8024 120.977 52.0292 121.032 54.2828 118.016C55.9419 120.242 56.638 121.354 57.6631 121.905C57.8569 122.022 58.0622 122.104 58.281 122.155C58.7202 122.257 59.1805 122.214 59.5936 122.034C59.8014 121.946 59.9892 121.825 60.1575 121.676C61.4195 120.313 59.7819 117.66 57.5103 113.955C57.0822 113.258 57.0937 112.948 57.8118 112.252Z" fill="#FFBD59"/>
<path d="M29.8498 103.479C29.7626 104.24 29.8049 105.01 29.975 105.756C30.3132 107.262 31.1531 108.608 32.3572 109.575C32.9536 110.057 33.6275 110.435 34.3503 110.692C35.3369 111.051 36.4023 111.137 37.4337 110.94C38.4655 110.746 39.4254 110.276 40.2111 109.58C40.9982 108.886 41.583 107.993 41.9037 106.994C42.064 106.494 42.1556 105.984 42.1771 105.461C42.2009 104.94 42.1536 104.417 42.0364 103.908C40.7279 97.7464 31.1213 96.6979 29.8498 103.479Z" fill="#44E8AA"/>
<path d="M40.2742 108.221C40.0494 108.496 39.801 108.746 39.5291 108.973C38.9827 109.424 38.3545 109.765 37.6786 109.979C36.3127 110.406 34.8335 110.281 33.5587 109.631C33.2444 109.47 32.9464 109.279 32.6688 109.061C30.1608 107.252 30.2745 104.655 29.8909 104.676C29.627 104.688 29.4217 107.807 31.9256 109.979C32.2766 110.298 32.6617 110.577 33.0739 110.811C33.4851 111.047 33.9205 111.238 34.3725 111.381C34.5978 111.453 34.8267 111.512 35.059 111.559C35.2919 111.608 35.5268 111.641 35.7616 111.664C36.2345 111.708 36.7106 111.701 37.1819 111.643C37.4168 111.616 37.6499 111.575 37.88 111.52C38.3425 111.414 38.792 111.257 39.2201 111.053C40.0809 110.647 40.8437 110.06 41.4561 109.332C41.6088 109.152 41.7516 108.963 41.8823 108.766C42.6001 107.717 42.994 106.48 43.015 105.209C43.0561 101.073 39.3257 97.4674 35.1527 98.1314C32.1364 98.5709 29.9886 100.744 29.7562 102.691C29.6035 103.713 29.7792 104.256 29.8794 104.254C30.0081 104.26 30.0672 103.713 30.3837 102.859C31.2781 100.293 35.1827 98.5884 38.0738 99.9869C41.0845 101.407 42.4517 105.502 40.2742 108.221Z" fill="black"/>
<path d="M37.5908 114.754C45.7602 114.026 49.3984 104.516 43.7505 98.1723C43.3424 97.7073 42.8914 97.2816 42.4034 96.9008C41.9154 96.5188 41.3927 96.1833 40.8419 95.8988C40.2928 95.6124 39.7177 95.3789 39.1242 95.2013C37.9353 94.8407 36.6892 94.7055 35.4504 94.8028C34.2126 94.8976 33.0033 95.2223 31.8848 95.7603C31.3261 96.0278 30.7936 96.3468 30.2943 96.7133C29.6731 97.0846 29.1499 97.5989 28.7684 98.2133C28.833 98.2798 29.3614 97.7308 30.5112 97.0493C39.1638 91.9088 47.6712 100.44 44.9364 108.071C42.9177 113.877 35.1124 115.977 29.9949 111.206C26.7598 108.227 26.91 104.411 26.6321 104.434C26.4443 104.434 26.3917 108.645 29.4881 111.729C30.5418 112.785 31.8108 113.602 33.2089 114.125C33.9075 114.385 34.6272 114.569 35.3648 114.676C36.104 114.781 36.8456 114.807 37.5908 114.754Z" fill="black"/>
<path d="M60.3885 101.022C58.4692 99.0433 56.2927 97.3307 53.9173 95.9299C51.5433 94.5254 48.9919 93.4442 46.3309 92.7149C44.0403 90.3189 41.53 88.1422 38.8331 86.2134C36.1378 84.2822 33.267 82.6075 30.2586 81.2114C15.0472 75.1549 15.5755 95.1584 22.6376 109.725C22.2365 112.725 22.272 115.719 22.7413 118.71C23.208 121.684 24.1055 124.574 25.4055 127.29C25.5247 127.651 25.6909 127.989 25.9022 128.303C26.1116 128.618 26.363 128.904 26.6494 129.151C26.9355 129.398 27.2533 129.605 27.5944 129.768C27.9368 129.93 28.2995 130.046 28.6726 130.112C31.5636 130.731 35.5404 129.471 38.1991 127.942C38.7625 128.645 40.5603 130.787 41.1763 131.397C44.0087 134.2 46.5402 131.664 45.5111 128.772C44.3843 125.584 43.4869 127.516 46.6243 125.678C48.2579 127.463 50.1749 130.018 52.4385 129.311C52.7224 129.213 52.9906 129.074 53.2347 128.899C53.7251 128.547 54.1007 128.058 54.3144 127.494C54.4216 127.211 54.4847 126.92 54.5042 126.619C54.6665 124.984 53.7746 123.244 52.8551 121.547C52.4144 120.729 52.6318 121.688 54.3004 119.016C56.1884 121.307 57.0447 122.424 58.3968 122.707C58.5396 122.732 58.6823 122.742 58.825 122.739C59.1128 122.731 59.3965 122.668 59.6603 122.553C59.9232 122.437 60.161 122.27 60.3604 122.063C60.5606 121.857 60.7182 121.613 60.8241 121.346C60.8772 121.213 60.9183 121.076 60.9438 120.934C61.3134 119.412 60.3609 117.643 59.4415 116.059C57.2721 112.346 57.1819 115.049 60.746 110.168C64.3632 105.002 62.7572 103.465 60.3885 101.022ZM20.2529 95.2449C21.6969 94.69 23.0876 94.0055 24.4079 93.1999C25.7535 92.3484 26.4736 91.6609 26.374 91.5129C26.2232 91.2804 25.0279 92.0184 20.0731 93.9074C19.4471 88.4974 20.1412 81.8234 25.5893 82.0889C28.1733 82.1939 31.2527 83.7509 33.4767 85.0674C27.3305 90.6319 27.1131 90.7624 27.2113 90.9174C27.309 91.0694 28.4022 90.5964 29.9772 89.5224C31.6071 88.3703 33.1676 87.1233 34.6505 85.7879C46.736 93.4249 53.4576 104.058 54.4982 109.882C52.9958 111.014 49.4002 113.972 47.9624 115.272C44.6036 113.286 41.6851 116.2 42.0081 119.159C40.3039 119.952 36.5224 121.917 34.8718 122.87C28.8639 118.427 22.1679 107.872 20.2529 95.2449ZM27.7061 127.382C26.7085 125.942 24.1084 119.587 23.9382 112.21C26.8978 117.46 32.1466 124.276 38.0704 126.305C35.4643 127.651 29.222 129.567 27.7061 127.382ZM43.7959 127.606C44.1755 128.495 44.7739 129.735 44.4078 130.628C43.5515 132.733 41.3781 129.686 39.0144 127.44C40.3645 126.569 39.412 126.833 41.4071 127.048C43.9892 127.305 43.2575 126.339 43.7959 127.606ZM41.5619 125.614C39.6 125.35 37.715 124.679 36.0277 123.645C38.25 122.796 40.3622 121.683 42.3191 120.331C42.898 121.723 44.1735 122.997 45.7169 124.684C45.0917 125.046 44.4148 125.309 43.7097 125.466C43.0054 125.625 42.2814 125.675 41.5619 125.614ZM52.8962 126.43C52.7495 127.712 51.7263 128.331 50.249 127.079C48.9597 125.888 47.746 124.618 46.6148 123.276C44.858 121.372 41.7967 118.881 44.3337 116.452C44.514 116.28 44.7173 116.138 44.9397 116.026C45.1628 115.917 45.4009 115.841 45.6463 115.801C45.8917 115.762 46.1417 115.761 46.3875 115.798C46.6363 115.833 46.8732 115.905 47.0976 116.014C49.0677 117.116 53.125 124.413 52.8962 126.43ZM48.8974 115.975C51.0104 114.665 52.9545 113.101 54.686 111.317C54.7546 112.092 54.7461 112.868 54.6605 113.643C54.5768 114.417 54.4158 115.18 54.1797 115.921C53.7092 117.407 52.9484 118.785 51.9412 119.976C51.0798 118.533 50.0588 117.191 48.8974 115.976V115.975ZM59.3318 118.634C60.2082 120.708 59.3613 121.589 58.6142 121.46C57.7123 121.323 56.9766 120.286 54.7756 118.179C55.214 117.345 55.5571 116.464 55.7987 115.554C56.2119 115.179 56.6501 114.766 57.1058 114.321C57.9587 115.699 58.7029 117.141 59.3318 118.634ZM56.2159 113.11C56.7047 106.932 52.1665 99.6704 48.303 94.9654C55.0751 98.0889 60.8852 103.714 60.9068 105.147C60.6739 107.745 57.9311 111.097 56.2154 113.11H56.2159Z" fill="black"/>
<path d="M158.861 63.6554C161.61 60.5089 161.596 61.0599 163.949 62.0519C172.533 65.6654 201.109 80.2804 201.203 80.3334C206.244 83.2299 208.494 83.5129 206.306 88.6674C204.053 93.9854 197.987 105.778 194.411 110.189C192.747 112.064 191.282 114.106 190.039 116.282C188.116 119.921 182.997 122.476 184.558 123.142C190.99 125.882 192.451 128.626 194.166 134.38C194.257 134.679 194.227 134.804 193.916 134.983C192.801 135.628 190.16 136.946 189.068 136.251C188.165 135.675 187.909 133.638 186.127 131.165C185.09 129.824 183.712 128.785 182.136 128.157C181.352 127.844 180.53 127.637 179.691 127.542C178.851 127.445 178.002 127.462 177.167 127.591C174.068 128.281 175.526 128.274 145.241 144.903C136.832 149.521 134.725 148.577 132.401 153.268C130.557 156.991 130.498 161.278 127.812 162.263C126.724 162.661 124.269 162.47 123.305 161.48C121.662 159.792 123.227 153.849 123.909 151.589C124.667 149.083 124.092 149.788 126.497 147.618C128.365 145.937 125.987 144.669 97.3967 124.589C96.9771 124.361 96.4955 124.273 96.0221 124.337C92.6082 131.798 97.3131 136.976 90.3471 136.3C89.005 136.171 88.6395 135.894 88.1872 134.894C84.9051 127.595 88.2148 118.458 96.4502 114.081C100.582 111.886 91.1609 117.202 131.58 96.2629C142.265 90.7334 145.371 79.0969 158.861 63.6554Z" fill="#44E8AA"/>
<path d="M205.591 82.0264C198.969 77.7064 190.589 74.3819 183.39 70.2884C177.834 67.0344 171.688 64.5909 165.845 61.4894C160.017 58.3959 159.984 60.0284 143.996 82.3019C135.535 94.1279 133.657 93.6689 118.55 101.626C96.6052 113.022 92.3796 114.233 90.8637 117.429C85.5293 123.478 85.1026 132.964 87.4834 136.324C88.3988 137.56 89.7134 137.788 91.2493 137.636C97.399 136.906 93.896 133.976 96.433 125.394C103.252 130.14 94.8329 123.425 125.879 146.769C122.668 149.183 121.717 153.747 121.367 157.737C121.234 160.062 121.367 162.323 124.315 163.31C126.803 164.177 129.561 163.132 130.428 161.116C131.173 159.386 131.852 153.804 135.791 150.247C137.979 149.666 140.091 148.828 142.083 147.753C143.634 146.976 165.581 134.943 176.422 128.468C177.004 128.361 177.596 128.315 178.188 128.329C179.977 128.369 181.711 128.951 183.159 129.999C188.118 133.626 185.976 139.981 192.956 137.03C194.704 136.292 195.525 135.53 195.021 133.571C193.695 128.614 190.544 124.29 185.589 122.565C193.821 115.472 206.89 90.7689 208.318 86.2569C209.046 83.9209 206.992 82.9929 205.591 82.0264ZM93.1798 132.814C93.0251 135.11 93.2349 135.163 91.0199 135.372C90.2923 135.44 89.7504 135.439 89.3303 134.915C87.9902 133.026 87.9216 125.905 91.0124 120.622C92.1916 122.06 93.5564 123.336 95.0713 124.415C93.9759 127.09 93.3366 129.929 93.1798 132.814ZM130.046 155.526C128.945 158.146 128.644 159.745 128.417 160.194C127.818 161.591 124.886 161.788 123.898 160.382C123.174 159.544 123.348 150.857 127.241 147.761C128.812 148.919 130.601 149.75 132.5 150.204C134.307 150.565 132.325 150.054 130.046 155.526ZM190.156 128.374C191.402 130.247 192.311 132.322 192.843 134.507C192.183 134.863 191.492 135.156 190.777 135.382C188.095 135.987 189.759 131.899 184.331 128.257C179.09 124.905 177.118 128.706 184.102 123.741C185.317 124.185 186.457 124.81 187.483 125.596C188.51 126.382 189.411 127.318 190.156 128.374ZM206.485 85.7084C205.591 88.7549 192.793 114.878 184.043 121.776C180.287 124.796 145.27 143.894 141.16 145.923C136.983 147.98 135.103 148.583 132.942 148.136C129.843 147.495 130.692 147.442 104.851 128.282C100.707 125.29 92.2233 120.528 92.8769 118.589C93.6611 116.339 100.214 113.734 102.345 112.667C141.484 92.3234 136.181 97.6144 151.923 74.8859C153.48 72.6479 160.7 62.1399 162.826 62.5229C163.887 62.7099 200.258 81.1064 202.708 82.5324C206.569 84.8564 206.706 84.9739 206.485 85.7084Z" fill="black"/>
<path d="M196.559 74.7805C196.589 72.7581 196.412 70.738 196.031 68.7515C195.65 66.765 195.066 64.8226 194.29 62.9545C192.733 59.209 190.425 55.8212 187.508 52.9995C177.496 43.0735 161.733 49.4565 161.733 49.4565L160.241 51.228C160.241 51.228 159.317 49.4565 155.413 50.306C151.506 51.1575 145.492 60.267 144.778 63.0715C143.783 66.97 146.608 70.6515 146.608 70.6515C146.608 70.6515 146.292 70.5345 144.745 73.3645C143.2 76.1965 145.745 84.3995 145.745 84.3995C145.745 84.3995 141.238 77.4195 141.169 72.271C141.15 70.7375 141.034 65.6145 139.841 64.6575C139.573 64.1945 138.078 63.187 138.779 59.896C139.43 56.7085 142.41 56.6085 143.599 54.9465C143.807 54.606 143.952 54.2308 144.027 53.839C144.064 53.642 144.084 53.4445 144.084 53.2455C144.088 52.8457 144.019 52.4486 143.88 52.0735C143.812 51.8867 143.727 51.7063 143.626 51.5345C143.423 51.1902 143.159 50.8853 142.847 50.6345C138.434 47.2865 134.657 53.8215 134.458 53.5365C133.235 51.6715 131.739 50 130.021 48.5775C125.946 45.517 122.409 46.3685 121.541 47.9565C120.889 49.1125 121.801 50.2925 122.501 51.433C118.597 50.931 114.393 51.9155 115.913 54.9015C116.388 55.839 117.722 55.974 120.833 57.4095C118.043 58.054 115.105 58.4875 115.445 60.5775C115.987 63.464 119.983 62.095 123.608 64.2885C124.286 64.6091 124.842 65.14 125.193 65.802C125.369 66.134 125.488 66.4855 125.551 66.855C125.611 67.224 125.614 67.595 125.557 67.964C125.164 70.552 124.28 71.7925 126.601 74.687C127.524 75.8063 128.308 77.0325 128.937 78.339C129.567 79.6447 130.038 81.0212 130.34 82.439C130.725 85.142 134.691 91.8 134.691 91.8L128.599 96.273L122.308 94.6265C122.308 94.6265 123.681 87.3275 121.75 83.669C119.819 80.013 118.245 77.927 113.162 77.179C108.08 76.433 105.756 76.7865 105.796 80.601C105.836 84.4175 106.505 98.4585 106.584 101.132C106.662 103.808 110.602 104.712 112.179 104.788C119.021 105.13 110.258 103.61 110.062 109.917C109.917 114.517 109.358 123.564 109.358 123.564C108.015 123.601 106.687 123.846 105.42 124.29C104.153 124.732 102.962 125.368 101.891 126.175C98.2993 128.888 97.8396 133.53 99.6374 135.462C101.435 137.394 116.539 137.618 116.539 137.618C116.539 137.618 121.971 138.077 123.493 135.872C125.013 133.665 124.964 126.769 124.964 126.769C124.964 126.769 130.95 132.929 135.694 133.94C140.436 134.952 148.861 130.907 152.775 128.562C156.688 126.218 172.574 112.474 172.574 112.474C172.574 112.474 182.473 113.255 187.17 110.909C191.864 108.565 194.765 103.784 194.72 99.784C194.693 97.3761 194.446 94.9757 193.983 92.6125C199.936 85.767 198.875 76.4605 196.559 74.7805Z" fill="white"/>
<path d="M155.45 56.304C153.516 57.7996 151.689 59.4286 149.982 61.179C149.17 62.1469 148.508 63.2305 148.016 64.394C147.522 65.5553 147.203 66.7835 147.07 68.0385C146.934 69.2937 146.986 70.562 147.224 71.802C147.459 73.042 147.877 74.2402 148.466 75.357C148.945 76.2335 149.161 77.3605 149.728 78.185C153.178 83.2025 157.408 87.945 163.437 88.8725C168.056 89.5815 173.588 88.13 176.532 84.503C177.445 83.378 178.034 82.2825 178.989 81.1905C182.622 77.0245 183.414 70.64 177.917 62.7805C176.192 60.5746 174.189 58.6012 171.956 56.9095C167.355 52.9895 159.781 52.6905 158.517 53.1695C156.968 53.7475 156.711 55.2435 155.45 56.304Z" fill="#44E8AA"/>
<path d="M129.183 124.179C134.796 132.177 142.423 128.935 142.591 129.511C142.978 130.173 133.751 133.753 127.765 125.165C122.094 117.026 127.09 108.93 127.716 109.491C128.201 109.771 123.774 116.478 129.183 124.179Z" fill="black"/>
<path d="M197.524 75.4874C198.768 73.0559 196.348 63.6204 194.595 60.5074C188.705 50.0539 179.503 45.9914 167.719 47.0224C163.239 47.7724 161.608 48.0439 159.751 49.9524C154.798 47.6324 150.291 51.8194 147.006 56.2159C143.497 60.9034 141.705 66.0774 145.287 70.7394C143.026 72.9094 143.12 75.7144 143.769 78.8334C140.653 69.7474 142.885 68.2924 141.516 65.1299C140.858 63.5834 138.534 60.2259 141.357 58.1279C142.433 57.3154 144.346 56.6614 145.027 54.7824C146.588 50.2454 139.935 45.1944 134.843 52.3724C128.454 40.9349 118.317 44.6164 119.843 49.8334C114.404 49.1514 111.666 55.0049 116.145 57.2219C115.559 57.4065 115.034 57.746 114.626 58.2044C114.422 58.4344 114.254 58.6869 114.119 58.9619C113.984 59.2366 113.888 59.5285 113.833 59.8294C113.491 65.1809 120.641 64.4329 122.754 65.6984C125.623 67.3644 122.343 69.5129 123.624 72.4309C124.62 74.8174 126.486 74.4814 128.554 79.9524C129.955 83.6774 130.404 86.4994 133.636 91.4014C131.636 92.2227 129.797 93.3905 128.204 94.8509C126.405 94.2674 124.573 93.7893 122.718 93.4189C124.434 87.3489 122.857 78.6064 115.873 76.4974C113.323 75.7709 107.315 74.7724 105.514 76.7784C104.293 78.1399 104.491 78.3724 104.643 88.0439C104.75 94.7039 105.04 97.6009 105.324 101.263C105.807 104.239 107.978 105.403 110.987 105.763C105.676 111.005 108.372 123.351 107.441 123.378C100.719 123.626 96.7614 128.767 97.4265 133.651C97.9573 138.782 106.398 138.179 111.042 138.606C124.047 139.669 126.284 137.524 126.117 129.36C126.099 128.523 125.79 129.009 128.542 131.265C132.822 134.733 137.856 136.368 143.075 134.505C150.399 131.89 161.876 124.866 173.112 113.587C184.926 114.653 195.436 111.122 195.759 99.6184C195.75 97.1937 195.502 94.7758 195.019 92.3994C198.645 87.5169 201.258 80.0069 197.524 75.4874ZM159.409 54.0224C161.944 52.9074 171.449 55.7259 177.75 64.7884C180.192 68.3174 181.701 71.6319 180.207 75.6299C178.175 81.2609 173.488 87.2549 167.545 88.0889C160.563 89.2139 150.236 82.1224 147.942 70.6674C148.411 69.1264 148.018 64.8584 153.867 59.0754C156.592 56.4094 157.853 55.8664 159.409 54.0224ZM145.459 64.7414C145.997 60.5464 152.838 49.9799 158.566 51.3349C154.974 55.8564 147.413 59.3919 146.036 68.7279C145.467 67.4811 145.267 66.098 145.459 64.7414ZM116.404 53.2939C116.948 52.3624 118.751 51.8139 119.835 51.9659C122.31 52.3899 121.531 52.5869 123.36 53.6049C125.25 54.6359 126.85 55.5734 128.176 56.4584C124.651 59.3839 127.355 59.4759 124.17 58.1924C123.207 57.8274 124.092 58.0734 118.315 55.6299C117.659 55.4483 117.056 55.1159 116.552 54.6594C116.277 54.1419 116.136 53.7724 116.404 53.2939ZM126.435 72.7339C124.598 70.7084 126.21 69.9269 126.253 67.5539C129.747 68.2394 132.644 66.9189 132.529 66.5774C132.399 66.1674 129.573 67.0619 126.05 66.1419C125.066 63.0869 120.465 62.3449 117.519 61.8509C114.743 60.6029 116.116 58.6244 119.866 58.6534C125.011 60.5969 125.295 60.2184 125.142 60.6419C124.818 61.5459 124.79 62.1534 124.954 62.2139C125.318 62.3429 126.283 60.3314 128.094 58.3704C129.878 56.3839 131.791 55.2354 131.627 54.8839C131.553 54.7259 130.95 54.8099 130.079 55.2179C128.888 55.7729 130.698 55.6869 124.459 51.8059C119.483 48.5439 123.041 46.2434 126.818 47.5424C129.782 48.5574 132.116 51.3604 133.904 53.9174C132.568 56.5599 132.496 58.6749 132.778 58.6689C133.014 58.6869 133.276 56.5289 135.238 53.8254C138.759 49.0364 142.114 49.9814 143.151 52.0949C144.737 55.2449 140.5 55.4699 138.884 57.9584C138.427 58.6269 138.129 59.3911 138.014 60.1924C137.893 60.9937 137.956 61.8119 138.2 62.5849C137.957 63.1465 137.577 63.6382 137.094 64.0149C135.563 65.1689 132.63 66.1244 132.752 66.5014C132.859 66.8414 137.29 65.9994 138.797 64.1104C139.626 65.8664 140.099 65.6029 140.003 68.6049C137.343 72.1769 130.314 74.1634 126.435 72.7334V72.7339ZM133.63 74.2804C134.84 74.0002 136.003 73.5449 137.081 72.9289C138.16 72.315 139.143 71.5463 139.999 70.6474C140.062 72.7131 140.42 74.7592 141.062 76.7239C137.756 78.3055 134.276 79.4914 130.692 80.2569C127.894 71.2279 125.802 76.3489 133.63 74.2784V74.2804ZM130.907 80.9604C134.578 80.5276 138.119 79.342 141.308 77.4779C141.59 78.3207 141.9 79.1539 142.237 79.9759C138.871 81.5951 135.324 82.8119 131.672 83.6009C131.421 82.7649 131.177 81.8799 130.903 80.9604H130.907ZM123.642 132.651C123.078 138.007 115.519 136.329 106.177 136.11C104.044 136.038 100.046 135.72 99.4787 133.665C110.174 134.839 120.152 134.513 120.148 134.085C120.144 133.655 111.584 133.665 99.369 132.265C99.4079 131.411 99.581 130.568 99.8818 129.767C101.77 125.241 107.839 123.681 112.229 125.277C114.72 126.181 115.676 127.521 115.848 127.347C116.036 127.19 114.127 124.392 110.036 123.591C110.06 119.421 109.506 111.618 112.004 108.261C113.295 106.524 115.625 105.505 117.63 106.343C123.364 108.738 124.07 128.821 123.638 132.651H123.642ZM163.329 111.915C163.3 112.364 170.45 113.3 170.943 113.358C163.141 120.067 151.856 128.733 142.296 132.286C136.193 134.558 130.488 131.173 126.022 126.444C124.708 95.5404 113.702 106.222 108.557 102.581C108.298 102.413 108.082 102.185 107.927 101.917C107.77 101.651 107.678 101.352 107.658 101.044C107.376 97.4039 107.094 94.6479 106.991 87.9974C106.84 78.5619 106.774 78.6809 107.325 78.3119C107.917 78.0411 108.56 77.903 109.211 77.9074C109.77 85.3584 109.504 100.009 110.146 99.9934C110.514 99.9854 111.15 85.5834 110.598 77.9269C112.167 78.0384 113.718 78.2744 115.247 78.6379C121.987 80.5324 123.008 90.6709 120.156 96.9189C119.379 98.5439 118.781 99.3859 118.919 99.5049C119.141 99.6924 120.832 97.9114 121.864 95.7219C128.388 96.9679 135.385 99.6279 139.782 104.706C143.652 109.122 149.829 123.362 150.964 122.7C151.256 122.532 150.369 120.312 148.91 116.724C148.599 115.954 148.464 116.384 151.567 118.224C155.671 120.626 155.774 120.034 152.265 117.222C146.725 112.61 147.476 113.155 146.146 110.44C142.824 103.704 139.448 99.2354 130.712 95.7514C132.153 94.967 133.474 93.9811 134.635 92.8234C135.322 93.7494 137.521 96.3644 137.795 96.1164C138.131 95.8234 134.81 92.3174 132.206 85.2689C131.584 83.5129 131.537 85.0324 137.198 83.1124C145.101 80.4404 140.639 78.6474 145.307 85.7959C147.783 89.5619 152.717 95.4659 158.296 98.1709C160.99 99.4559 162.643 99.6889 162.672 99.5774C162.86 99.0149 155.696 97.4349 150.062 89.0989C147.969 86.0149 146.369 81.8799 146.856 82.6809C147.959 84.6349 149.342 86.4179 150.96 87.9739C152.576 89.5327 154.41 90.8479 156.406 91.8779C162.257 94.8779 170.188 95.5404 175.665 92.3329C177.635 91.1244 179.367 89.5655 180.775 87.7334C180.082 90.6029 180.002 93.7494 181.815 96.0484C178.079 98.1224 174.087 99.3839 169.833 99.8334C166.052 100.175 163.695 99.5344 163.613 99.8604C163.462 100.19 169.366 102.898 178.474 99.6829C178.41 100.384 178.204 101.066 177.868 101.685C177.15 103.044 164.767 102.903 164.745 103.577C164.722 104.39 173.754 104.491 176.037 104.14C176.447 104.98 176.956 105.768 177.554 106.487C178.153 107.206 178.836 107.85 179.589 108.405C180.342 108.961 181.159 109.424 182.023 109.784C182.886 110.146 183.789 110.402 184.714 110.546C176.418 113.372 163.406 110.689 163.327 111.915H163.329ZM186.277 109.929C183.371 109.609 180.66 108.311 178.591 106.247C177.907 105.566 177.302 104.81 176.788 103.993C177.536 103.861 178.239 103.545 178.834 103.073C179.598 103.782 180.43 104.415 181.318 104.962C182.206 105.51 183.145 105.97 184.122 106.335C185.099 106.701 186.11 106.971 187.14 107.14C188.171 107.31 189.21 107.378 190.256 107.347C189.08 108.42 187.734 109.292 186.274 109.929H186.277ZM190.972 106.61C188.869 106.584 186.785 106.213 184.802 105.513C182.818 104.818 180.963 103.802 179.309 102.505C179.605 101.992 179.806 101.429 179.902 100.845C180.416 98.0794 179.032 99.8979 183.441 97.4369C186.641 99.1904 190.538 97.3549 193.241 94.5209C193.754 98.9174 193.852 103.333 190.967 106.611L190.972 106.61ZM197.673 81.1904C197.183 86.6279 191.362 95.9854 185.943 95.7589C179.492 95.4894 182.856 80.7689 191.44 74.8529C192.672 74.0599 193.548 74.0284 193.541 73.8349C193.607 73.5499 191.068 72.8899 186.756 77.0834C188.867 70.1674 186.078 65.6904 185.896 65.7764C185.18 66.0464 190.712 72.5964 180.749 85.5029C176.8 90.5929 173.116 93.0679 166.369 92.8059C152.623 92.3469 144.839 78.9954 145.758 73.8174C145.976 73.2034 146.357 72.6605 146.862 72.2474C149.992 86.4274 167.56 98.6124 178.93 82.4014C184.139 74.7784 183.863 70.1689 179.3 63.6984C173.889 56.1104 165.608 52.1924 160.788 52.3079C161.289 51.6494 161.89 51.0969 162.588 50.6534C163.5 50.4933 164.429 50.4625 165.35 50.5619C166.27 50.6587 167.172 50.8836 168.03 51.2299C179.159 55.1809 185.552 65.6264 185.776 65.5189C186.731 65.2199 179.98 53.7119 168.579 49.6539C167.586 49.3079 167.605 49.4114 168.022 49.3409C181.152 48.1964 190.09 54.2414 193.869 64.7199C194.626 66.9834 195.698 72.2259 195.524 73.9899C195.524 74.0559 194.544 73.7219 194.495 73.9464C194.397 74.2614 198.23 75.3704 197.668 81.1904H197.673Z" fill="black"/>
<path d="M94.9824 62.8257C91.9324 68.1259 91.9681 68.0245 91.9565 68.1217C91.8402 69.0707 95.6993 66.5735 98.9081 67.2555C97.0547 68.4545 95.4257 69.968 94.0949 71.7276L98.5544 72.2957C99.8219 72.4564 100.805 73.1655 100.277 73.4853C97.7632 74.3361 95.3107 75.3571 92.9364 76.5413C83.1223 81.3446 82.979 82.7244 81.2548 83.9739C80.422 84.4706 79.6177 85.0137 78.8458 85.6004C77.6333 86.7064 76.7032 88.7629 75.1593 87.4964C73.7383 86.3304 70.6495 84.7437 71.2634 82.4966C72.1578 79.2203 81.7089 67.7421 94.9812 62.8227L94.9824 62.8257Z" fill="#44E8AA"/>
<path d="M67.1713 81.753C66.8773 79.081 71.4007 82.607 71.8583 82.7622C73.2817 83.2423 74.2125 81.6378 76.9292 81.3413C78.3868 81.1824 76.6089 85.8312 76.8577 86.6621C76.955 86.9164 77.1076 87.1452 77.3021 87.3353C78.1353 88.2734 78.8918 89.2768 79.5643 90.3359C79.9731 90.981 79.6767 91.3108 78.9343 91.4361C75.922 91.9421 74.8373 91.7327 74.5446 91.9031C74.3824 91.9997 74.4743 91.9147 71.8036 96.0262C71.1041 97.1056 69.8835 93.6603 69.3337 92.3768C69.2969 92.2319 69.2367 92.0939 69.1555 91.9683C69.035 91.7786 68.8704 91.6206 68.6758 91.5077C68.4812 91.3948 68.2622 91.3304 68.0374 91.3198C67.4374 91.1835 63.976 90.4076 63.7532 89.8344C63.3691 88.8419 67.25 86.7631 67.5741 85.9464C67.8878 85.161 66.9202 82.5117 67.1713 81.753Z" fill="#FDFE1F"/>
<path d="M100.696 73.2737C101.031 72.8406 97.4773 70.8585 94.4103 71.5107C94.5016 71.4418 99.9862 67.0512 99.8116 66.7756C99.767 66.2569 94.6897 66.8447 92.1417 68.2505C92.3942 67.9178 95.6908 62.9048 95.2997 62.6236C95.2292 62.4192 83.6347 65.0017 73.4554 77.8872C72.516 79.0234 71.708 80.2619 71.0469 81.5792C69.1231 80.4263 68.1189 79.4574 66.9979 80.3666C66.1085 81.0874 66.4193 81.7165 66.8917 85.8607C63.752 88.5874 63.0295 88.8899 63.2648 90.066C63.5406 91.4303 64.6623 91.3332 68.5434 92.1244L70.1571 95.9147C70.2003 96.0154 70.2529 96.1112 70.3153 96.2018C70.3801 96.2927 70.4522 96.3744 70.5321 96.4502C70.613 96.5243 70.7 96.5899 70.7944 96.6474C70.8892 96.7034 70.989 96.751 71.0925 96.7873C71.3005 96.8594 71.5214 96.8874 71.7409 96.8696C71.8503 96.8593 71.9586 96.8386 72.0641 96.8077C72.4545 96.6909 72.7849 96.4287 72.9868 96.0752L75.02 92.4896L79.1313 92.1308C79.4303 92.1036 79.7001 91.9993 79.9409 91.8197C80.1799 91.6395 80.3548 91.4091 80.4635 91.1301C80.5722 90.8565 80.6005 90.5576 80.545 90.2686C80.493 89.9785 80.3587 89.7094 80.1581 89.4933L78.0179 87.1601C89.8085 76.5644 100.963 73.9353 100.696 73.2732L100.696 73.2737ZM79.0175 90.7994C73.9576 91.2423 74.2331 91.1747 74.1439 91.3327C71.6869 95.6875 71.8069 95.6181 71.5392 95.5297C71.2273 95.4268 69.7191 90.9941 69.3802 90.9297C65.3244 90.1551 64.8364 90.0168 64.7418 89.9856C64.1664 89.7958 64.8448 89.4129 68.2104 86.4896C68.3491 86.3684 68.3334 86.6534 67.7616 81.6144C67.7537 81.5692 67.7599 81.5228 67.7795 81.4813C67.7991 81.4399 67.831 81.4055 67.8709 81.3829C67.9077 81.3561 67.952 81.3412 67.9975 81.3404C68.0431 81.3396 68.0878 81.3529 68.1256 81.3784C71.2199 83.2223 72.1143 83.7886 72.207 83.8191C72.3373 83.8621 72.0539 83.9582 76.6639 81.863C76.7047 81.8421 76.7509 81.834 76.7965 81.8398C76.842 81.8456 76.8847 81.865 76.9189 81.8955C76.9553 81.923 76.9824 81.961 76.9967 82.0042C77.011 82.0475 77.0119 82.0941 76.9991 82.1378C75.8633 87.0949 75.8776 86.7968 76.0005 86.9305C78.7446 89.9253 79.7406 90.7373 79.0175 90.7994ZM77.4461 86.1484L78.3024 82.4404C78.3471 82.2503 78.3555 82.0535 78.3272 81.8603C78.3006 81.667 78.2372 81.4805 78.1403 81.3111C78.0443 81.1417 77.9182 80.9913 77.7682 80.8671C77.6161 80.7439 77.4426 80.6497 77.2563 80.5892C76.437 80.3189 76.196 80.6122 72.3525 82.3595L72.0083 82.1533C72.6764 80.8988 73.4812 79.7219 74.4081 78.6438C81.2934 70.2087 86.3947 67.2266 94.6344 63.0576C92.6754 65.0058 91.2561 68.4849 91.6828 68.652C91.7717 68.9015 93.587 68.4761 95.8072 67.9621C99.4777 67.093 98.3295 67.0644 96.3444 68.6865C94.6269 70.0783 93.6511 71.6262 93.858 71.7787C93.8734 72.0508 95.4466 72.1259 97.2965 72.5013C98.6285 72.7538 99.7256 73.1552 100.294 73.2806C95.6192 74.0586 85.2797 78.6822 77.4442 86.1477L77.4461 86.1484Z" fill="black"/>
<path d="M193.932 16.8033C192.602 14.4598 191.115 14.1198 188.742 13.2723C184.953 11.9208 181.921 10.9188 178.558 11.7098C168.086 14.1748 162.752 29.6398 168.144 36.1668C170.19 38.6433 178.345 41.2368 181.224 41.2368C190.947 41.2368 198.758 25.4888 193.932 16.8033Z" fill="#FDFE1F"/>
<path d="M194.426 16.5303C192.948 13.8113 190.751 13.4443 188.932 12.7388C186.209 11.7663 182.784 10.5748 179.894 10.8953C166.976 12.7503 162.115 30.5143 167.895 36.7173C169.808 39.1373 179.386 42.3738 182.34 41.6863C192.449 40.3268 199.083 25.0533 194.425 16.5298L194.426 16.5303ZM189.002 19.2568C189.753 19.3933 190.8 19.5103 191.631 19.7253C192.545 19.9598 193.627 20.4148 194.364 20.6453C194.672 22.5917 194.628 24.5775 194.233 26.5083C190.211 26.1683 191.138 25.9283 188.584 25.0828C189.044 23.1769 189.186 21.2082 189.003 19.2563L189.002 19.2568ZM194.159 19.5848C190.738 19.2763 191.393 19.0648 188.819 18.1138C188.658 17.2093 188.351 16.3372 187.909 15.5318C187.468 14.7256 186.897 13.9967 186.221 13.3738C185.726 12.9773 184.719 12.5708 188.492 13.9538C190.679 14.8053 193.077 15.0748 194.159 19.5828V19.5848ZM166.68 31.4538C166.577 30.7035 166.522 29.9475 166.514 29.1903C166.481 26.1444 167.224 23.1401 168.674 20.4598C169.393 19.1235 170.281 17.8843 171.315 16.7723C171.83 16.2161 172.38 15.6934 172.962 15.2073C181.413 8.17627 192.226 13.1273 186.9 27.8718C180.912 43.6513 167.938 39.7528 166.68 31.4518V31.4538ZM175.454 39.2858C177.402 39.2448 179.212 38.7253 180.88 37.7253C182.289 38.2953 182.811 37.7683 185.64 39.2138C182.119 41.0708 179.62 40.6313 175.454 39.2838L175.454 39.2858ZM186.698 38.5848C184.382 37.9698 184.935 38.5513 181.843 36.9753C183.171 35.8119 184.328 34.4665 185.278 32.9793C187.183 33.4478 186.551 32.6743 190.927 34.3053C189.808 35.9912 188.372 37.444 186.698 38.5828V38.5848ZM191.513 33.4013C190.761 33.2838 189.552 33.2138 188.617 32.9888C187.684 32.7643 186.577 32.2603 185.857 32.0163C186.923 30.1667 187.749 28.19 188.318 26.1333C190.689 26.6958 188.991 25.8288 194.018 27.4618C193.477 29.5513 192.633 31.5507 191.513 33.3968V33.4013Z" fill="black"/>
<path d="M173.254 36.9202C177.864 38.5477 182.678 32.2427 184.541 28.1862C187.315 22.0552 187.002 13.6687 180.341 13.4672C174.098 13.2642 169.974 21.9812 170.303 22.1272C170.507 22.2212 171.909 18.2232 176.135 15.3387C177.072 14.6795 178.166 14.2774 179.308 14.1727C180.45 14.0685 181.599 14.2623 182.643 14.7352C191.075 19.0767 178.83 42.4422 171.452 34.9732C166.448 30.1432 171.37 19.7507 169.938 22.7957C167.637 27.6762 168.155 35.1707 173.253 36.9207L173.254 36.9202Z" fill="black"/>
<path d="M174.499 25.7938L172.809 27.2468L174.396 33.2548C174.576 33.1063 173.854 33.7233 178.95 29.3348C178.98 29.3147 179.002 29.2851 179.012 29.2508C179.023 29.2166 179.021 29.1793 179.004 29.1473C178.824 28.4813 178.458 27.0923 178.441 27.0438C178.122 27.3388 178.942 26.6278 175.616 29.5008C175.372 29.7098 175.63 29.6528 174.499 25.7938ZM174.738 20.9283L175.317 23.1138C175.391 23.0513 177.312 21.3953 178.185 20.6393C178.316 20.5263 178.199 20.5533 179.253 24.3893L180.943 22.9363L179.362 16.9423L174.738 20.9283Z" fill="black"/>
<path d="M176.321 26.9227L178.015 25.4577L177.434 23.2507L175.738 24.7137L176.321 26.9227ZM181.933 26.7232L181.366 24.5532L179.691 25.9982L180.266 28.1682L181.933 26.7232ZM173.441 22.0277C171.726 23.5047 171.78 23.4012 171.818 23.5417C172.409 25.7427 172.338 25.6882 172.444 25.5967C173.13 25.0007 174.001 24.2582 174.069 24.1902C173.457 21.8752 173.535 21.9457 173.441 22.0277Z" fill="black"/>
<path d="M244.906 100.101C246.994 98.3953 247.079 96.8751 247.514 94.3964C248.207 90.4394 248.684 87.2865 247.334 84.1107C243.13 74.2231 226.961 71.5893 221.43 77.9986C219.331 80.431 218.15 88.8943 218.637 91.7279C220.282 101.296 237.148 106.318 244.906 100.101Z" fill="#FDFE1F"/>
<path d="M245.259 100.54C247.693 98.6267 247.684 96.4027 248.073 94.4931C248.572 91.6492 249.169 88.077 248.364 85.2878C244.348 72.8893 225.99 71.1099 220.845 77.8473C218.779 80.1391 217.204 90.1112 218.382 92.9015C221.434 102.62 237.633 106.565 245.26 100.54L245.259 100.54ZM241.65 95.6644C241.643 96.4266 241.704 97.4764 241.633 98.3308C241.556 99.2698 241.289 100.411 241.187 101.176C239.317 101.808 237.35 102.1 235.377 102.039C235.032 98.0233 235.426 98.8949 235.829 96.2382C237.788 96.3689 239.755 96.1752 241.651 95.6648L241.65 95.6644ZM242.199 100.795C241.925 97.3757 242.244 97.9845 242.748 95.2907C243.613 94.98 244.422 94.53 245.143 93.9586C245.864 93.388 246.487 92.7038 246.988 91.9329C247.295 91.3785 247.526 90.3187 246.799 94.2654C246.328 96.5619 246.468 98.9675 242.201 100.794L242.199 100.795ZM225.835 75.7616C226.558 75.5331 227.295 75.3506 228.041 75.2152C231.043 74.6674 234.134 74.8905 237.025 75.8637C238.466 76.346 239.839 77.0098 241.112 77.8391C241.748 78.2518 242.357 78.7048 242.935 79.1952C251.305 86.3221 248.246 97.8004 232.791 95.0526C216.201 91.8288 217.856 78.4026 225.837 75.7613L225.835 75.7616ZM219.588 85.72C219.958 87.6301 220.776 89.3227 222.046 90.7956C221.721 92.2782 222.33 92.7031 221.381 95.7308C218.953 92.58 218.964 90.0471 219.59 85.7192L219.588 85.72ZM222.181 96.6657C222.397 94.2826 221.916 94.9254 222.949 91.6159C224.322 92.7263 225.846 93.6369 227.475 94.3207C227.334 96.2745 227.991 95.5218 227.121 100.104C225.267 99.2879 223.59 98.1201 222.183 96.6654L222.181 96.6657ZM228.112 100.527C228.101 99.7678 227.966 98.5664 228.03 97.6078C228.094 96.6517 228.404 95.4769 228.523 94.7275C230.529 95.4631 232.62 95.9425 234.747 96.1542C234.592 98.5822 235.161 96.765 234.399 101.988C232.245 101.809 230.129 101.316 228.117 100.526L228.112 100.527Z" fill="black"/>
<path d="M221.551 83.154C220.724 87.9665 227.762 91.6374 232.081 92.7841C238.603 94.4769 246.828 92.7505 245.901 86.1618C245.045 79.9847 235.743 77.4007 235.655 77.7492C235.596 77.9652 239.78 78.6693 243.342 82.3397C244.151 83.1505 244.733 84.1592 245.03 85.2649C245.326 86.3709 245.329 87.5346 245.038 88.6421C242.179 97.6731 217.043 89.5757 223.168 81.0517C227.09 75.3108 238.181 78.3964 234.933 77.5025C229.726 76.064 222.415 77.8415 221.55 83.1536L221.551 83.154Z" fill="black"/>
<path d="M238.086 84.5819C237.974 84.4916 237.839 84.4182 237.694 84.3681C237.549 84.318 237.398 84.2927 237.254 84.2946L235.044 84.3951L233.552 84.43L231.379 84.5431C231.235 84.5449 231.084 84.5197 230.938 84.4696C230.793 84.4195 230.659 84.3461 230.546 84.2558L229.266 83.1337C229.157 83.0396 229.077 82.9316 229.034 82.8204C228.99 82.7091 228.986 82.5985 229.02 82.4994L229.425 81.3313C229.46 81.2326 229.532 81.1488 229.635 81.088C229.737 81.0271 229.867 80.9913 230.01 80.984L231.703 80.9144C231.847 80.9125 231.999 80.9377 232.144 80.9878C232.289 81.0379 232.424 81.1114 232.536 81.2016L233.816 82.3237C233.925 82.4178 234.005 82.5258 234.049 82.637C234.092 82.7483 234.096 82.8589 234.062 82.958L233.795 83.7291L235.294 83.6712L235.569 82.8761C235.603 82.7768 235.598 82.6662 235.555 82.5551C235.512 82.444 235.432 82.3361 235.324 82.2417L232.93 80.1844C232.818 80.0942 232.684 80.0207 232.539 79.9706C232.393 79.9205 232.242 79.8953 232.098 79.8972L228.867 80.0375C228.724 80.0373 228.594 80.0676 228.492 80.1248C228.39 80.1821 228.32 80.264 228.289 80.3612L227.529 82.5576C227.495 82.6569 227.5 82.7674 227.544 82.8785C227.587 82.9896 227.666 83.0976 227.775 83.1919L230.202 85.261C230.314 85.3513 230.449 85.4247 230.594 85.4748C230.739 85.5249 230.89 85.5502 231.034 85.5483L233.2 85.4588L234.699 85.4009L236.864 85.3113C237.008 85.3095 237.159 85.3347 237.305 85.3848C237.45 85.4349 237.584 85.5083 237.697 85.5986L238.984 86.6969C239.094 86.7909 239.174 86.8989 239.217 87.0102C239.26 87.1214 239.265 87.2321 239.23 87.3312L238.826 88.4993C238.791 88.598 238.718 88.6817 238.616 88.7426C238.513 88.8034 238.384 88.8392 238.24 88.8466L236.581 88.928C236.437 88.9299 236.286 88.9046 236.141 88.8545C235.996 88.8044 235.861 88.731 235.749 88.6407L234.46 87.5422C234.351 87.4481 234.271 87.3401 234.228 87.2289C234.185 87.1176 234.18 87.007 234.215 86.9079L234.473 86.1599L232.974 86.2178L232.707 86.9888C232.674 87.0881 232.679 87.1987 232.722 87.3098C232.765 87.4209 232.845 87.5288 232.953 87.6231L235.381 89.6922C235.493 89.7825 235.627 89.856 235.772 89.9061C235.918 89.9562 236.069 89.9814 236.213 89.9795L239.402 89.8486C239.546 89.842 239.676 89.8065 239.779 89.7456C239.881 89.6846 239.953 89.6004 239.988 89.5013L240.756 87.2819C240.789 87.1826 240.784 87.072 240.741 86.9609C240.698 86.8498 240.619 86.7419 240.51 86.6476L238.086 84.5819Z" fill="black"/>
<path d="M234.793 48.2255C235.129 45.5525 234.14 44.3932 232.744 42.2978C230.515 38.9538 228.683 36.3416 225.513 34.9695C215.641 30.6992 202.109 39.9178 202.526 48.3679C202.685 51.5744 207.672 58.519 209.981 60.2368C217.777 66.037 233.465 58.0689 234.793 48.2255Z" fill="#FDFE1F"/>
<path fill-rule="evenodd" clip-rule="evenodd" d="M215.208 46.1299C215.194 46.0814 215.127 45.8273 215.035 45.2319C214.961 44.7584 214.932 44.4107 214.923 44.2883C214.768 42.3933 215.064 40.7702 215.672 40.4623C216.281 40.1544 216.999 41.2635 217.413 43.0275L215.429 44.0321C215.433 44.1588 215.454 44.5178 215.528 44.9913C215.616 45.5595 215.697 45.825 215.713 45.8724L217.697 44.868C217.85 46.7598 217.553 48.3799 216.946 48.6871C216.339 48.9944 215.62 47.889 215.208 46.1278L215.208 46.1299ZM217.903 44.7662L219.679 43.8669L220.074 46.4163L222.783 45.0448L221.708 38.1038L218.999 39.4752L219.394 42.0242L217.618 42.9232C217.145 40.9282 216.25 39.7015 215.466 40.0985C214.681 40.4955 214.269 42.3845 214.437 44.5335L208.745 47.4155L209.03 49.2577L214.725 46.3747C215.197 48.365 216.091 49.5895 216.875 49.1928C217.658 48.7961 218.071 46.911 217.903 44.7655L217.903 44.7662Z" fill="black"/>
<path d="M235.352 48.3008C235.795 45.2392 234.253 43.6343 233.216 41.9832C231.615 39.5791 229.581 36.5802 227.072 35.1134C215.603 28.8943 201.074 40.2387 201.998 48.6611C202.083 51.7429 207.826 60.0518 210.606 61.2625C219.527 66.2036 233.986 57.9135 235.352 48.3001L235.352 48.3008ZM229.371 47.2516C229.892 47.8092 230.661 48.5274 231.199 49.1958C231.792 49.929 232.387 50.9392 232.84 51.5641C231.922 53.3084 230.698 54.8743 229.227 56.1871C226.205 53.5152 227.092 53.8758 225.55 51.6739C227.059 50.4203 228.351 48.926 229.372 47.2515L229.371 47.2516ZM233.31 50.5912C230.752 48.3027 231.403 48.5239 229.908 46.2258C230.321 45.4049 230.597 44.5222 230.724 43.6125C230.853 42.7028 230.832 41.7783 230.662 40.8753C230.502 40.2619 229.938 39.3351 232.136 42.6949C233.38 44.6826 235.142 46.3295 233.312 50.5896L233.31 50.5912ZM204.173 43.7157C204.539 43.0525 204.947 42.4132 205.395 41.8015C207.191 39.3393 209.584 37.3735 212.351 36.0891C213.728 35.4469 215.181 34.9828 216.675 34.7078C217.421 34.5691 218.175 34.4781 218.933 34.4355C229.917 33.839 235.625 44.26 222.53 52.9056C208.285 61.9864 200.215 51.1206 204.174 43.7141L204.173 43.7157ZM206.522 55.2301C208.108 56.3594 209.87 57.0222 211.806 57.2158C212.595 58.5132 213.329 58.4022 214.732 61.2487C210.797 60.6372 209.057 58.7943 206.522 55.2282L206.522 55.2301ZM215.957 61.3756C214.468 59.5007 214.564 60.2971 213.027 57.1886C214.789 57.0481 216.521 56.6593 218.173 56.0337C219.42 57.5459 219.377 56.5486 221.909 60.4669C220.003 61.1514 217.982 61.4595 215.958 61.374L215.957 61.3756ZM222.92 60.0913C222.388 59.5489 221.46 58.7716 220.845 58.0331C220.231 57.2965 219.645 56.2319 219.214 55.6069C221.175 54.7594 223.021 53.6676 224.708 52.3576C226.272 54.2229 225.43 52.5149 228.484 56.8235C226.799 58.1759 224.925 59.2756 222.922 60.0877L222.92 60.0913Z" fill="black"/>
<path d="M206.173 52.0203C208.896 56.0759 216.529 53.8921 220.45 51.7504C226.344 48.4889 231.112 41.5773 225.891 37.4421C221.007 33.5553 212.483 38.085 212.66 38.3983C212.767 38.595 216.284 36.2259 221.399 36.4338C222.545 36.4643 223.663 36.7946 224.641 37.3917C225.619 37.9893 226.424 38.8304 226.979 39.8325C231.141 48.3436 207.34 59.7751 205.893 49.3842C204.771 42.526 214.937 37.1287 211.967 38.7163C207.201 41.2573 203.132 47.5761 206.172 52.0204L206.173 52.0203Z" fill="black"/>
<path d="M150.194 29.2052C158.287 23.4227 153.782 1.53772 141.222 1.53772C138.001 1.78246 134.817 2.39444 131.735 3.36172C123.681 6.43622 123.994 28.2192 136.227 32.0492C139.49 33.0747 147.635 31.0317 150.193 29.2057L150.194 29.2052Z" fill="#FDFE1F"/>
<path d="M143.171 1.15522C140.399 0.578716 136.702 1.48522 133.916 2.17422C131.521 2.81522 129.83 3.06722 128.161 5.68822C122.679 14.2932 126.613 30.0222 136.469 32.7097C139.391 33.5747 146.371 31.7877 149.583 30.2527C158.754 25.8737 155.47 3.32522 143.171 1.15522ZM134.231 3.44022C138.708 2.29372 137.517 2.62022 136.833 3.08872C136.086 3.65916 135.43 4.3394 134.888 5.10622C134.345 5.8723 133.92 6.71577 133.628 7.60822C131.042 8.26422 131.59 8.57672 128.239 8.50472C129.847 4.39322 131.77 4.09622 134.231 3.43972L134.231 3.44022ZM127.877 9.54372C131.076 8.91272 128.507 9.08472 133.274 8.74272C132.786 10.7269 132.612 12.7749 132.758 14.8127C130.279 15.3387 131.037 15.7407 127.059 15.6297C126.987 13.5693 127.265 11.5115 127.881 9.54372H127.877ZM127.116 16.6157C127.862 16.4597 128.848 16.1882 129.681 16.0807C130.741 15.9457 132.105 15.9987 132.85 15.9107C133.079 18.0854 133.574 20.2237 134.325 22.2777C133.591 22.4402 132.427 22.8287 131.467 22.9577C130.537 23.0807 129.36 23.0202 128.605 23.0512C127.804 20.9882 127.303 18.8212 127.118 16.6162L127.116 16.6157ZM129.021 24.0377C133.485 22.8992 132.799 23.5612 134.739 23.3227C135.401 24.9646 136.318 26.4924 137.455 27.8502C134.163 29.1157 134.873 28.5847 132.445 28.9577C130.98 27.5674 129.815 25.8932 129.021 24.0377ZM133.364 29.7252C133.966 29.4725 134.586 29.2687 135.221 29.1157C136.269 28.9027 138.327 28.8482 138.284 28.6977C138.991 29.3174 139.787 29.8283 140.645 30.2137C141.503 30.6005 142.415 30.8566 143.349 30.9737C137.449 32.2367 135.592 31.3972 133.364 29.7212V29.7252ZM153.124 23.6882C152.428 25.9597 151.168 28.2077 149.017 29.1937C148.26 29.631 147.442 29.9548 146.59 30.1547C145.734 30.3582 144.867 30.4322 143.988 30.3817C132.713 29.3247 128.885 4.10822 140.786 2.22322C148.785 1.84822 156.312 12.5417 153.124 23.6842V23.6882Z" fill="black"/>
<path d="M151.281 14.6297C150.104 10.3897 153.695 21.9907 148.083 26.8172C142.042 32.1822 135.97 20.2837 136.371 12.0847C136.858 3.07274 145.385 0.848243 150.113 11.5922C150.741 13.0532 150.958 13.9167 151.028 13.8992C150.932 13.0675 150.725 12.2523 150.413 11.4752C147.14 2.62024 140.262 2.16874 137.437 6.25624C133.652 11.5512 135.788 21.4262 140.672 26.9087C146.025 32.8987 154.053 24.6787 151.281 14.6277L151.281 14.6297Z" fill="black"/>
<path d="M142.438 16.6607C142.912 16.8633 143.417 16.9835 143.932 17.0162C145.219 17.0162 146.467 15.4812 146.983 14.4637C147.12 14.1977 147.149 14.4517 146.626 13.1802C145.611 10.7603 144.378 8.43814 142.94 6.24268C141.777 9.20713 140.882 12.2693 140.266 15.3927C140.44 15.8697 140.605 16.0927 142.438 16.6607ZM143.083 8.27418C144.269 10.157 145.268 12.1515 146.064 14.2292C144.622 16.7272 143.622 16.0692 142.709 15.7842C142.201 15.6392 141.707 15.4517 141.232 15.2212C141.674 12.8625 142.292 10.5403 143.083 8.27418Z" fill="black"/>
<path d="M147.578 15.5222C143.656 18.6782 146.492 19.2117 140.138 16.8422C140.4 17.9538 140.866 19.0073 141.512 19.9497C141.97 20.7232 144.837 25.4697 145.737 25.5147C147.47 25.4672 147.423 17.4342 147.578 15.5222ZM146.52 18.8132C146.273 21.6372 146.263 23.1607 145.658 24.3757C144.415 22.8344 143.294 21.1986 142.306 19.4832C141.036 17.3267 142.048 19.2797 144.501 19.2097C146.343 19.1627 146.725 16.4437 146.52 18.8132Z" fill="black"/>
<path d="M109.625 35.4167C119.06 27.2777 110.194 1.61572 94.7189 1.61572C90.1822 1.61572 81.5867 5.87972 81.0799 6.18222C77.4297 8.35022 76.2914 13.5572 76.2814 17.7487C76.2403 31.9787 87.2616 43.1062 95.7024 41.5437C100.253 40.6902 107.127 37.5687 109.625 35.4167Z" fill="#FDFE1F"/>
<path d="M98.8441 1.72524C93.8328 -0.110756 88.6196 2.16674 83.6467 4.35024C81.1999 5.48124 78.8993 6.07274 77.1741 10.0222C71.6709 22.9712 82.4849 45.6352 97.8431 41.6082C101.449 40.6182 107.164 38.2527 110.218 35.6117C118.473 28.4832 112.544 5.56924 98.8466 1.72524H98.8441ZM80.924 7.66874C81.9471 6.78774 87.1017 4.64124 88.2695 4.18424C87.2412 5.08956 86.3832 6.17106 85.736 7.37774C85.0858 8.58305 84.6566 9.89467 84.4685 11.2507C81.4072 12.6197 82.1093 12.9127 77.8882 13.5492C78.0483 12.4345 78.3946 11.3545 78.9128 10.3542C79.4272 9.35257 80.1071 8.44467 80.924 7.66874ZM77.6608 14.9322C81.4578 13.4812 78.3259 14.2292 84.2807 12.7522C84.1031 15.3547 84.3294 17.9689 84.9518 20.5022C81.9471 21.7037 82.9797 22.0417 77.9603 22.7702C77.4181 20.1932 77.3169 17.5431 77.6608 14.9322ZM78.2458 23.9987C79.1497 23.6392 80.329 23.0827 81.3581 22.7682C82.6592 22.3682 84.3879 22.1372 85.3018 21.8637C86.0623 24.5493 87.1511 27.1313 88.5434 29.5512C87.657 29.9162 86.2779 30.6588 85.098 31.0278C83.9542 31.3878 82.4594 31.5672 81.5184 31.7677C80.0594 29.3477 78.9572 26.7305 78.2458 23.9967V23.9987ZM82.2601 32.9167C83.2436 32.4268 84.2539 31.9924 85.2863 31.6157C86.6475 31.1882 88.4788 31.0202 89.2946 30.7722C90.4865 32.693 91.9729 34.4151 93.6995 35.8757C89.8265 38.1902 90.6112 37.3637 87.6395 38.3602C85.4928 36.931 83.6615 35.0785 82.2581 32.9167H82.2601ZM88.9636 39.1317C89.6648 38.6826 90.4016 38.2913 91.1666 37.9617C92.5162 37.4342 95.0161 36.9577 94.9285 36.7662C95.9524 37.3978 97.0663 37.8707 98.2322 38.1687C99.404 38.4692 100.593 38.5887 101.803 38.5297C94.623 41.4167 92.1116 40.7427 88.9636 39.1317ZM108.539 35.0592C106.486 36.4652 104.94 37.4592 102.473 37.6452C97.2151 38.0532 93.7411 35.4052 90.7599 31.1082C79.9985 15.5062 85.7926 -3.47576 101.509 4.44374C114.43 11.9712 115.224 30.4772 108.541 35.0537V35.0592H108.539Z" fill="black"/>
<path d="M108.213 16.2407C107.231 14.1687 108.252 16.9262 108.671 18.5672C109.773 23.0242 109.751 28.7447 106.848 32.2662C100.419 40.3347 90.1849 26.6922 88.8979 16.2797C87.5518 4.89474 97.7458 0.115742 106.081 12.6727C107.19 14.3737 107.652 15.4127 107.736 15.3737C107.433 14.3485 106.995 13.3679 106.433 12.4577C100.375 2.01424 91.6247 2.97124 88.968 8.71524C84.2065 18.9282 94.5352 34.6157 101.11 35.6297C108.313 36.8817 112.73 25.8012 108.213 16.2407Z" fill="black"/>
<path d="M100.593 18.4403C101.2 17.8825 101.638 17.1658 101.857 16.3718C101.967 15.9769 102.021 15.5686 102.018 15.1588C102.011 14.3354 101.775 13.5301 101.337 12.8328C100.898 12.136 100.272 11.5757 99.5313 11.2153C99.1625 11.0345 98.77 10.9064 98.3654 10.8348C98.2187 9.35231 97.2447 8.47931 96.9883 8.66081C96.7379 8.82281 96.9883 9.61381 97.2327 10.5278C97.3343 10.8893 97.436 10.6218 95.8244 10.7723C95.3272 8.24881 94.1168 8.42081 94.7778 10.9243C94.3551 11.0828 93.9445 11.2703 93.5474 11.4868C94.0111 13.3228 95.6131 17.1548 96.3918 20.2993C97.1721 23.4443 97.9037 27.5903 98.5923 29.3933C99.993 28.8758 99.68 28.8818 99.8813 29.4653C100.412 31.0243 101.806 31.8463 100.885 29.1238C100.818 28.9263 100.801 28.9653 100.918 28.9518C102.609 28.7643 102.323 28.4243 102.452 28.8468C103.309 31.5903 104.023 30.3168 103.465 28.5378C103.338 28.1178 103.297 28.2368 103.499 28.1078C107.234 25.7743 104.122 19.7408 100.593 18.4403ZM95.9551 12.7213C97.2502 12.3288 98.4571 12.0063 99.5959 12.6023C99.8713 12.7428 100.116 12.9263 100.326 13.1548C100.537 13.3813 100.703 13.6373 100.822 13.9248C100.941 14.2098 101.008 14.5063 101.022 14.8173C101.036 15.1241 100.994 15.4309 100.9 15.7233C100.269 17.5283 98.101 17.7058 96.8511 18.0143C96.497 16.1688 96.2151 14.2313 95.9551 12.7193V12.7213ZM99.8678 26.9438C98.8759 24.7993 98.0372 22.5875 97.3579 20.3248C98.3669 19.9537 99.4594 19.8699 100.513 20.0828C104.291 21.2528 106.756 27.5828 99.8678 26.9438Z" fill="black"/>
<path d="M45.4941 23.7293C42.2761 24.8073 35.3432 29.6043 34.2164 31.0143C26.8924 40.1453 39.7466 68.0062 56.4463 67.6527C59.9288 67.5807 67.1116 62.8248 70.4844 59.3893C80.6504 49.0263 62.3857 18.0728 45.4941 23.7293Z" fill="#FDFE1F"/>
<path d="M49.5489 48.4128C51.9627 51.9088 58.219 58.4638 62.4441 58.7568C64.9796 58.9343 66.7754 57.3347 67.7865 55.0457C71.574 46.4948 62.4346 33.5478 65.1243 37.3033C69.326 43.1567 71.9416 54.0282 66.3743 58.5672C64.4688 60.1217 61.4916 60.4012 58.2871 58.3872C44.7388 49.8817 38.0563 29.5458 48.3695 26.4618C56.4757 24.0378 64.7993 36.1978 64.4358 36.4443C64.1814 36.6178 61.112 31.2038 54.7425 28.0008C51.1138 26.1763 47.4696 27.1568 45.8535 29.2018C42.2128 33.8033 45.8671 43.0788 49.5489 48.4128Z" fill="black"/>
<path d="M44.2991 23.5942C41.0356 25.2647 37.925 27.2175 35.003 29.4302C25.7404 36.9637 36.3316 64.4442 53.462 68.0552C55.0796 68.3462 56.7387 68.2917 58.3347 67.8992C60.9778 67.0767 65.4494 64.6492 70.2985 60.3717C71.1089 59.6339 71.7976 58.773 72.3392 57.8207C79.4068 45.5532 61.0715 16.3092 44.2991 23.5942ZM37.879 29.5787C39.2462 28.6102 40.5883 27.6627 41.9399 26.8247C41.0459 28.0544 40.3885 29.4392 40.0014 30.9087C39.6107 32.3769 39.4959 33.9047 39.6628 35.4147C36.8634 37.3972 37.556 37.5887 33.5382 38.9127C33.2913 32.5942 35.5879 31.2097 37.879 29.5787ZM33.6374 40.3777C34.4887 39.8542 35.6645 38.9537 36.7107 38.3877C37.6657 37.8697 38.9157 37.4147 39.8096 37.0127C40.2625 39.9782 41.1407 42.8631 42.4172 45.5787C39.8391 47.2487 40.5723 47.5942 35.9089 49.0887C34.7085 46.3187 33.942 43.3806 33.6374 40.3777ZM36.4703 50.3152C37.3016 49.7917 38.3563 49.0337 39.3048 48.5417C40.5257 47.9127 42.2043 47.3832 43.0822 46.9477C44.5179 49.8311 46.2767 52.5425 48.3249 55.0297C47.4856 55.5317 46.2437 56.4947 45.1399 57.0747C44.0818 57.6317 42.6615 58.0922 41.7596 58.4887C39.6512 56.0031 37.8733 53.2559 36.4703 50.3152ZM42.7221 59.5632C47.0044 56.3482 46.6248 57.3992 49.3325 56.2037C51.0249 58.1581 52.9924 59.8569 55.1737 61.2467C51.8775 64.2507 52.5055 63.2937 49.626 64.8872C47.01 63.5591 44.6664 61.7533 42.7166 59.5632H42.7221ZM55.8678 66.3872C54.2315 66.3782 52.61 66.078 51.0793 65.5007C54.1777 62.6412 55.0305 63.1842 56.6115 62.0142C57.802 62.5608 59.0726 62.9129 60.3749 63.0572C61.6775 63.2036 62.9953 63.1396 64.2775 62.8677C62.2353 64.1977 58.2801 66.4827 55.8583 66.3877L55.8678 66.3872ZM70.9075 56.9967C70.4351 57.7824 69.8495 58.4945 69.1697 59.1102C67.1981 60.8092 66.6037 61.5047 64.1934 61.9597C58.6246 63.0397 54.5788 60.1707 50.7172 56.0787C42.7537 47.3132 35.3981 30.4537 45.7073 24.8717C60.125 19.2467 77.9365 45.1767 70.9075 56.9967Z" fill="black"/>
<path d="M59.3011 44.1567C55.5647 46.7292 55.8507 46.7097 55.3729 46.4637C51.9866 44.7057 52.0277 44.8327 51.934 44.5612C51.8384 44.2877 51.3706 44.7582 58.8704 39.5592C59.1524 39.3657 59.1328 39.4592 62.5662 41.2037C63.3384 41.5962 62.8982 41.6762 59.3011 44.1567ZM50.5348 42.5397C50.322 42.3597 50.4256 42.5397 49.9719 38.6397C49.9113 38.1062 49.4962 38.5457 56.9694 33.4422C57.4757 33.0962 57.4973 34.2352 57.5559 34.7582C57.8458 37.3832 57.971 37.6532 57.6755 37.8522C50.1592 42.9752 50.7426 42.7137 50.5348 42.5397ZM64.2579 43.5202C64.4617 43.7077 64.3871 43.5767 64.8213 47.4967C64.8703 47.9242 65.312 47.4852 57.7867 52.6317C57.5503 52.7937 57.3701 52.5377 57.339 52.2467C56.9359 48.5612 56.8167 48.4027 57.1061 48.2097C64.6745 43.0082 64.0801 43.3597 64.2579 43.5222V43.5202Z" fill="black"/>
<path d="M211.499 123.845L208.001 122.302C205.477 127.794 186.592 171.538 186.126 172.177C185.913 171.771 179.54 146.888 179.53 146.7C179.53 146.677 179.456 147.144 179.452 147.11C179.43 147.124 179.466 146.653 179.419 146.698C174.487 153.011 174.059 153.745 171.289 157.538C170.988 156.437 167.447 143.804 167.418 143.655C165.916 144.458 154.857 153.823 154.497 153.46C154.099 153.062 159.943 146.429 168.804 139.304C169.045 140.089 170.258 143.966 170.258 143.966C172.782 151.386 172.398 150.692 172.738 150.038L181.071 138.72L186.993 161.362C186.993 161.362 203.128 124.271 204.699 120.851L201.239 119.325C201.054 119.244 200.896 119.111 200.784 118.942C200.671 118.775 200.608 118.578 200.604 118.376C200.597 118.174 200.649 117.974 200.753 117.8C200.856 117.626 201.006 117.485 201.186 117.394L209.288 113.28C209.432 113.207 209.591 113.167 209.752 113.163C209.912 113.161 210.071 113.195 210.217 113.261C210.364 113.327 210.494 113.426 210.597 113.55C210.701 113.673 210.775 113.818 210.814 113.974L212.974 122.61C213.02 122.805 213.012 123.008 212.95 123.198C212.887 123.388 212.773 123.556 212.619 123.685C212.466 123.814 212.28 123.897 212.082 123.925C211.884 123.953 211.682 123.926 211.499 123.845Z" fill="#FDFE1F"/>
<path d="M209.773 113.161C210.9 113.161 210.665 113.388 212.972 122.608C213.023 122.806 213.015 123.001 212.952 123.196C212.892 123.387 212.778 123.557 212.624 123.685C212.471 123.816 212.283 123.9 212.084 123.927C211.885 123.956 211.682 123.927 211.499 123.845L208.001 122.302C205.477 127.794 186.592 171.538 186.126 172.177C185.884 171.708 179.568 146.698 179.419 146.698C173.09 154.905 175.743 151.438 171.289 157.538C170.988 156.437 167.447 143.804 167.418 143.655C166.036 144.394 154.835 153.8 154.497 153.46C153.775 152.739 163.278 143.966 164.994 142.448C165.168 142.294 167.86 140.063 168.805 139.304C169.045 140.089 170.258 143.966 170.258 143.966C172.783 151.396 172.398 150.692 172.738 150.038L181.071 138.72L186.993 161.362C186.993 161.362 203.128 124.272 204.699 120.851L201.239 119.327C201.053 119.246 200.895 119.113 200.783 118.944C200.669 118.777 200.605 118.579 200.601 118.376C200.594 118.174 200.646 117.974 200.75 117.8C200.853 117.626 201.005 117.485 201.186 117.394C209.994 112.919 209.409 113.161 209.773 113.161ZM209.773 111.587C208.875 111.587 209.087 111.614 200.471 115.987C200.306 116.073 200.149 116.175 200.004 116.292C199.712 116.527 199.475 116.822 199.308 117.157C199.138 117.491 199.043 117.857 199.028 118.23C199.01 118.604 199.073 118.977 199.213 119.324C199.469 119.967 199.968 120.484 200.602 120.761L202.602 121.644C201.28 124.538 189.13 152.476 187.371 156.534L181.756 135.13L172.963 147.026C170.888 140.802 171.649 143.189 169.628 136.62C164.936 140.26 160.509 144.229 156.381 148.495C153.196 151.894 152.116 153.3 153.376 154.567C155.139 156.337 157.112 153.462 166.453 146.28C166.641 146.937 170.632 161.106 170.632 161.106L178.752 150.103C185.411 175.964 183.975 171.464 185.906 175.146C187.942 172.361 188.163 172.286 189.515 168.7C190.593 165.831 208.629 124.716 208.785 124.37C210.925 125.314 211.205 125.513 211.933 125.513C212.335 125.512 212.732 125.42 213.093 125.243C213.273 125.155 213.441 125.048 213.598 124.923C213.752 124.796 213.893 124.653 214.016 124.495C214.264 124.18 214.436 123.811 214.519 123.419C214.562 123.224 214.58 123.024 214.578 122.825C214.574 122.625 214.548 122.426 214.499 122.231L212.34 113.596C212.2 113.022 211.87 112.512 211.403 112.149C210.938 111.785 210.364 111.587 209.774 111.587H209.773Z" fill="black"/>
</g>
<defs>
<clipPath id="clip0_461_1522">
<rect width="269" height="174" fill="white" transform="translate(0 0.984497)"/>
</clipPath>
</defs>
</svg>
