<svg width="239" height="194" viewBox="0 0 239 194" fill="none" xmlns="http://www.w3.org/2000/svg">
<path d="M228.96 143.224C230.814 141.345 231.555 138.643 230.924 136.084C230.874 135.891 229.381 131.636 229.027 131.094C226.532 127.304 223.456 123.927 219.915 121.092C213.21 115.732 213.493 114.616 211.036 113.052C208.685 111.56 192.985 99.1762 188.355 96.7835C181.562 93.2689 182.502 92.4898 175.626 89.1465C174.066 88.3895 157.608 76.6467 110.812 55.0456C81.0715 41.3135 86.0504 44.7672 80.8724 42.4629C76.8395 40.6725 59.5574 34.0965 56.1219 33.2511C48.3715 31.3391 44.5212 29.6647 42.0539 28.9684C39.8079 28.3329 37.4789 28.0345 35.2218 27.4543C29.1752 25.896 32.2787 26.106 22.4261 25.2881C19.3724 24.6084 16.2357 24.3376 13.1101 24.4868C10.5654 24.4426 8.04275 24.951 5.71929 25.9733C3.36816 27.0343 1.66981 29.1563 1.15533 31.6762C1.05022 33.7153 1.34896 35.7599 2.0294 37.6829C2.91453 39.3131 3.90477 40.8825 4.99459 42.38C5.74695 43.9107 6.13419 44.1041 16.2357 53.8078C16.5898 54.272 16.9715 54.7085 17.3864 55.123C28.9318 63.4893 29.3578 64.4895 33.4405 66.9928C35.7363 68.3964 37.938 69.9492 40.0292 71.6457C41.4011 72.7509 76.148 94.2249 80.463 95.7943C82.9248 96.8221 85.298 98.0489 87.5662 99.458C93.6847 102.873 100.578 105.227 106.657 108.72C121.162 117.047 141.93 124.137 155.826 130.271C159.245 131.78 169.618 135.222 172.467 136.151C175.36 137.096 178.032 138.875 181.058 139.223C185.677 139.754 192.88 143.511 211.678 146.202C212.613 146.335 213.548 146.075 214.488 146.147C219.135 146.495 225.652 146.517 228.971 143.229L228.96 143.224ZM220.48 140.45C216.248 140.743 214.461 140.953 212.713 140.66C211.579 140.472 210.483 140.063 209.338 139.953C208.193 139.842 207.015 140.035 205.864 139.897C203.612 139.627 193.655 137.129 192.681 136.814C190.584 135.979 188.388 135.405 186.148 135.112C180.284 133.951 178.541 132.288 175.554 131.376C154.139 124.856 156.573 124.43 154.217 123.623C136.259 117.478 128.99 112.378 124.194 111.112C123.364 110.377 122.385 109.819 121.328 109.488C110.425 105.354 102.193 100.359 97.8669 98.4468C94.7745 97.0763 96.5337 98.0765 92.8438 95.6783C88.6781 92.9705 83.6827 91.6498 79.7328 88.6381C79.4728 88.4447 79.1575 88.2292 78.8532 88.3397C76.3084 86.2454 74.079 85.6707 68.8789 82.7087C47.94 70.7781 46.7119 68.9656 44.7923 68.3633C43.1714 67.8493 34.4086 60.5163 31.0119 58.7535C30.3923 58.433 33.8056 60.754 19.1069 49.3925C16.0145 46.9997 18.2549 47.7015 14.6038 44.4357C13.7906 43.7063 14.211 43.9107 13.9123 43.4686C13.3037 42.5679 11.799 42.2363 10.1892 40.1144C9.66918 39.4236 9.2764 38.7494 7.09677 35.2073C6.45505 34.1684 6.6542 34.0468 6.93634 32.9803C7.88786 29.416 16.103 30.0018 19.7763 30.3831C34.1043 31.8751 48.4711 36.8706 60.7191 40.7167C61.7259 41.0372 62.5723 41.739 63.5902 42.0319C67.7227 43.22 57.4496 38.8655 88.136 51.3819C116.399 62.9091 105.861 59.5714 116.322 63.2959C116.908 63.5722 117.467 63.9038 117.993 64.2906C121.279 66.1639 122.263 66.0589 129.815 70.1426C135.502 73.2206 133.864 72.0878 134.755 72.342C135.081 72.458 135.374 72.6404 135.629 72.878C138.074 74.8729 200.891 105.995 220.74 129.486C222.244 131.266 225.73 136.361 225.398 138.074C225.049 139.936 222.123 140.339 220.474 140.455L220.48 140.45Z" fill="#FF9A15"/>
<path d="M231.085 141.583C244.406 114.34 72.3255 26.7249 17.1543 23.9066C0.762746 23.0667 -2.40159 31.2175 2.57726 39.7939C25.0375 78.4648 217.039 170.29 231.085 141.583ZM215.224 145.545C159.356 142.688 -9.54902 54.9406 2.61046 30.0957C15.3231 4.09593 205.587 92.7384 228.38 131.979C232.761 139.522 230.355 146.318 215.23 145.545H215.224Z" fill="black"/>
<path d="M43.5365 34.5386C36.638 32.5879 9.19894 25.4484 6.08992 31.7977C4.80095 34.4392 8.83936 39.5894 10.7645 41.8108C40.7096 76.3925 169.734 139.345 215.418 141.677C221.354 141.981 225.281 141.08 226.2 139.201C233.452 124.358 123.276 57.0847 43.5309 34.5331L43.5365 34.5386ZM215.501 140.124C170.26 137.814 41.6002 75.0497 11.9373 40.7941C10.6373 39.2965 6.61547 34.2458 7.484 32.4719C7.82699 31.7701 10.2113 30.5323 16.7945 30.8638C66.7324 33.4224 206.273 104.757 223.661 134.692C224.872 136.775 225.038 138.063 224.811 138.527C224.463 139.223 222.078 140.461 215.501 140.124Z" fill="black"/>
<path d="M137.051 73.5853L199.115 1.52081H184.405L130.517 64.0917L87.4778 1.52081H37.833L102.923 96.1424L37.833 171.716H52.5428L109.451 105.636L154.908 171.716H204.553L137.051 73.5853ZM116.908 96.9769L110.314 87.555L57.8425 12.5839H80.4354L122.783 73.088L129.378 82.5098L184.422 161.156H161.829L116.908 96.9769Z" fill="black"/>
<path d="M137.051 73.5853L199.115 1.52081H184.405L130.517 64.0917L87.4778 1.52081H37.833L102.923 96.1425L37.833 171.716H52.5428L109.451 105.636L154.908 171.716H204.553L137.051 73.5853ZM116.908 96.9769L110.314 87.555L57.8425 12.5839H80.4354L122.783 73.088L129.378 82.5098L184.422 161.156H161.829L116.908 96.9769Z" stroke="#BEF642" stroke-width="3" stroke-miterlimit="10"/>
<path d="M70.4065 7.01917C67.9392 8.03595 68.5809 11.2023 68.3817 11.9428C68.0221 13.3133 66.6834 13.4901 67.9226 16.3802C71.6788 25.1279 72.0495 21.1712 75.5292 22.6743C77.1058 23.354 77.9079 25.8794 86.3056 22.0609C89.2597 20.7181 87.8933 19.4416 88.607 17.9938C89.1657 16.8444 90.8751 16.5515 91.3232 15.3579C91.81 14.0703 90.5045 12.7938 90.3827 11.4289C90.2334 9.77664 92.3356 7.42256 89.9512 5.22874C87.6942 3.15097 85.8133 5.21769 84.6294 4.48274C83.4732 3.76436 84.4634 1.58711 82.2396 0.830051C80.4472 0.675323 78.6437 0.747164 76.8679 1.04004C70.838 1.81368 74.1295 5.49399 70.4009 7.02469L70.4065 7.01917Z" fill="white"/>
<path d="M73.8417 2.77521L73.0727 1.89657C71.7173 3.01835 71.9331 5.2398 70.9152 5.75372C70.1684 5.93055 69.4658 6.25658 68.8517 6.72077C67.7785 7.59388 67.3138 9.00853 67.6623 10.3458C67.9832 11.5505 65.4218 13.0038 67.3359 17.2588C70.1186 23.459 72.4974 23.1827 74.3949 23.4148C76.1983 23.6303 76.8788 25.7855 81.2602 24.9621C83.2462 24.5476 85.1713 23.8735 86.9803 22.9617C90.1723 21.2431 89.2761 19.2869 89.4642 18.8448C89.7242 17.7175 93.1375 17.1152 92.1694 13.9211C91.7711 12.6115 90.8472 11.5892 91.1183 10.5337C91.5055 9.04169 93.5579 8.99195 91.0408 5.16796C89.2042 2.38286 87.5722 3.44938 85.9071 3.66489C84.4853 3.85278 84.95 3.09571 84.4466 2.06235C83.7164 0.90742 82.4827 0.161412 81.1163 0.0564179C78.3116 -0.203304 75.4902 0.437708 73.0782 1.89657C74.417 3.4328 72.8016 2.52101 77.0558 1.65895C78.7486 1.31634 81.2104 1.08425 82.5712 2.15077C83.2628 2.69231 83.1411 3.02387 83.3457 3.74778C84.0649 6.30632 87.6054 4.79219 88.3135 4.90271C89.1655 5.04086 89.8293 6.40026 90.2553 7.14627C91.323 9.06379 87.9374 9.31246 89.9953 13.2967C91.1183 15.4629 90.5153 15.4574 88.8059 16.8112C85.5696 19.3698 90.6813 19.845 83.5615 22.4478C79.0307 24.1 77.8745 23.1219 76.2149 22.1715C74.2676 21.0718 73.2387 22.293 71.4573 20.5744C69.8364 18.8945 68.7134 16.7947 68.2266 14.5124C68.2321 13.4514 68.5419 12.4125 69.1173 11.5229C69.7977 10.0695 68.2045 10.0253 69.6152 8.04701C70.4671 6.84234 71.8114 7.40599 72.4918 6.01344C73.1667 4.80325 73.0284 3.53227 73.8417 2.76968V2.77521Z" fill="black"/>
<path d="M70.6439 13.1199C69.4268 13.4183 71.3741 16.5791 70.9813 16.6786C70.8817 16.7062 70.3451 15.9879 69.7034 14.5124C69.034 12.4291 71.2081 10.4729 73.3601 15.4463C74.4001 17.8501 75.3295 19.1321 74.461 20.1876C74.118 20.6573 73.4541 20.7623 72.9839 20.4142C72.9452 20.3865 72.912 20.3589 72.8788 20.3258C72.4639 19.8505 72.132 19.3035 71.8886 18.7232C70.8928 16.7781 73.1112 19.7124 73.2882 19.8339C73.6588 20.1876 74.284 19.53 73.8912 18.7398C73.609 18.0656 71.4128 12.9265 70.6439 13.1199Z" fill="black"/>
<path d="M77.9795 3.95224C76.2203 4.17881 74.8317 4.50484 74.7321 4.27275C74.6326 4.04066 76.0045 3.29465 77.8578 3.05703C80.8395 2.67021 83.5115 3.23386 77.9795 3.95224Z" fill="black"/>
<path d="M80.2974 11.0642C77.8744 12.4899 74.3504 12.7938 74.8705 10.6774C75.2024 9.32905 76.7514 8.85934 76.779 9.07485C76.8067 9.19643 75.6284 9.73245 75.5011 10.7769C75.3739 12.7165 81.7081 9.88165 81.7745 8.45041C81.8409 7.94202 80.6847 7.77072 80.1038 7.85361C78.7374 8.05254 77.891 8.58857 77.8301 8.43936C77.7139 8.2128 80.4523 6.35054 82.1064 7.51652C83.5226 8.50568 81.8685 10.1414 80.2974 11.0642Z" fill="black"/>
<path d="M84.6348 11.7936C86.1008 12.2523 84.9502 14.7942 84.7344 14.2803C84.6404 14.214 84.9944 13.6614 84.7344 12.8325C84.1204 11.4068 82.5437 15.3745 82.8425 16.3028C83.0195 16.6565 83.2242 16.7173 83.4952 16.3028C84.0263 15.496 84.3914 14.9545 84.5021 15.0153C84.6404 15.0982 84.2089 17.1594 83.2131 17.3362C80.6352 17.5959 82.5437 11.335 84.6348 11.7936Z" fill="black"/>
<path d="M81.6254 21.547C80.3586 21.9725 78.97 21.8288 77.8194 21.1491C76.984 20.7568 76.4585 20.6352 76.4474 20.5081C76.4363 20.381 77.0891 20.2871 78.0296 20.5468C79.0917 20.9944 80.2811 21.0386 81.3765 20.6794C84.0485 19.8892 86.206 18.9387 86.3277 19.204C84.9778 20.3644 83.3625 21.1712 81.6199 21.5525L81.6254 21.547Z" fill="black"/>
<path d="M8.03737 75.4697C6.67648 77.122 4.52451 79.1721 6.17306 80.9902C6.73733 81.6146 7.61693 81.9738 8.07609 82.7032C8.55185 83.4658 8.41355 84.245 10.0953 84.4936C14.2941 85.1126 13.6635 83.2227 14.7588 82.1285C15.1903 81.703 15.7989 81.5207 16.2359 81.1062C17.1376 80.2442 17.2317 78.4924 15.4614 76.8788C14.2222 75.7515 14.7422 75.7902 14.178 74.9723C13.232 74.1324 12.0149 73.6682 10.7481 73.6627C9.38166 73.6627 8.99442 74.3148 8.04843 75.4642L8.03737 75.4697Z" fill="white"/>
<path d="M9.09378 73.7732L9.71337 74.8232C10.6206 74.4971 11.6109 74.5082 12.5071 74.8397C14.1556 75.3536 13.5748 76.7241 14.6203 77.6801C15.262 78.2714 15.7212 78.2714 15.9812 78.8737C16.1527 79.3434 16.125 79.8629 15.9038 80.316C15.6603 80.6696 14.6424 80.8631 14.0505 81.6533C13.5028 82.5043 13.7241 82.9408 12.9607 83.2779C12.0811 83.6592 9.55294 83.7089 9.19335 82.8635C8.30822 80.8078 7.06351 81.6809 6.77584 80.1557C6.72052 79.5645 6.72605 78.9676 6.79797 78.3764C6.95287 77.5309 7.81034 77.5751 8.45759 76.6633C8.9942 75.9007 9.14356 75.2542 9.72443 74.8232L9.10484 73.7732C8.55164 74.1103 8.09247 74.5855 7.77715 75.1437C6.56562 77.1109 5.42602 75.652 5.0775 79.1887C4.74558 82.5761 7.2184 82.7916 7.35117 83.2061C7.49501 83.3498 7.47842 83.8416 7.98183 84.3389C9.33719 85.6707 12.2637 85.6375 13.7518 84.9965C14.6701 84.5655 15.345 83.7421 15.5774 82.7529C15.688 82.4932 17.0544 82.2059 17.5191 81.2112C18.0115 80.2607 18.0502 79.139 17.6242 78.1553C17.1153 76.9893 16.125 76.713 15.782 76.4146C15.3616 76.0389 15.2067 73.9169 12.9275 73.3974C11.6551 73.0327 10.2887 73.1653 9.10484 73.7677L9.09378 73.7732Z" fill="black"/>
<path d="M8.74025 80.526C8.35854 79.9347 8.01002 79.7026 8.04321 79.57C8.0764 79.4374 8.65727 79.5092 9.2492 80.0894C9.81347 80.6476 10.3833 81.587 11.2076 81.703C11.9046 81.8964 12.2033 80.5757 12.9833 80.0563C13.7246 79.5645 14.2889 79.6805 14.2889 79.7966C14.3166 79.9402 13.8574 80.0839 13.4259 80.5647C12.9612 81.0731 11.6999 85.096 8.73472 80.526H8.74025Z" fill="black"/>
<path d="M139.623 159.128C138.262 160.78 136.11 162.83 137.759 164.648C138.323 165.273 139.203 165.632 139.662 166.361C140.138 167.124 139.999 167.903 141.681 168.152C145.88 168.771 145.249 166.881 146.345 165.787C146.776 165.361 147.385 165.179 147.822 164.764C148.724 163.902 148.818 162.15 147.047 160.537C145.808 159.41 146.328 159.448 145.764 158.63C144.818 157.79 143.601 157.326 142.334 157.321C140.968 157.321 140.58 157.973 139.634 159.122L139.623 159.128Z" fill="white"/>
<path d="M140.68 157.426L141.299 158.476C142.207 158.15 143.197 158.161 144.093 158.492C145.742 159.006 145.161 160.377 146.206 161.333C146.848 161.924 147.307 161.924 147.567 162.526C147.739 162.996 147.711 163.515 147.49 163.969C147.246 164.322 146.228 164.516 145.636 165.306C145.089 166.157 145.31 166.593 144.547 166.93C143.667 167.312 141.139 167.361 140.779 166.516C139.894 164.46 138.649 165.333 138.362 163.808C138.306 163.217 138.312 162.62 138.384 162.029C138.539 161.183 139.396 161.228 140.044 160.316C140.58 159.553 140.73 158.907 141.31 158.476L140.691 157.426C140.138 157.763 139.678 158.238 139.363 158.796C138.152 160.763 137.012 159.305 136.663 162.841C136.332 166.229 138.804 166.444 138.937 166.859C139.081 167.002 139.064 167.494 139.568 167.991C140.923 169.323 143.85 169.29 145.338 168.649C146.256 168.218 146.931 167.395 147.163 166.405C147.274 166.146 148.64 165.858 149.105 164.864C149.597 163.913 149.636 162.791 149.21 161.808C148.701 160.642 147.711 160.366 147.368 160.067C146.948 159.691 146.793 157.569 144.513 157.05C143.241 156.685 141.875 156.818 140.691 157.42L140.68 157.426Z" fill="black"/>
<path d="M140.326 164.178C139.944 163.587 139.595 163.355 139.629 163.222C139.662 163.09 140.243 163.162 140.835 163.742C141.399 164.3 141.969 165.239 142.793 165.356C143.49 165.549 143.789 164.228 144.569 163.709C145.31 163.217 145.874 163.333 145.874 163.449C145.902 163.593 145.443 163.736 145.011 164.217C144.547 164.726 143.285 168.748 140.32 164.178H140.326Z" fill="black"/>
<path d="M156.878 86.8533C152.662 89.3952 154.659 95.3136 154.521 96.6343C154.25 99.2978 151.799 100.011 154.925 105.067C156.031 106.852 160.158 113.312 162.161 114.367C164.75 115.732 167.991 113.947 170.824 114.704C173.938 115.533 176.151 120.037 190.651 110.527C195.757 107.178 192.858 105.2 193.765 102.265C194.479 99.9609 197.571 98.9331 198.058 96.568C198.595 94.0205 195.818 92.0035 195.198 89.4671C194.446 86.4057 197.682 81.4212 192.637 77.984C187.769 74.6684 185.041 79.1666 182.546 78.0835C180.217 77.0667 181.396 72.7067 177.075 71.922C175.238 71.5849 168.971 73.3035 167.167 73.823C156.463 76.8954 163.14 83.0624 156.866 86.8477L156.878 86.8533Z" fill="white"/>
<path d="M198.838 93.7C197.71 91.3293 195.762 89.8097 195.973 87.7706C196.111 86.4277 197.749 85.0076 197.372 82.7032C197.118 80.8354 193.942 77.2049 192.255 76.1052C187.675 73.0714 183.752 78.625 182.375 76.2157C181.921 74.5579 180.809 73.1543 179.288 72.3475C175.637 70.3471 170.664 71.6015 166.786 73.1267C162.327 74.9613 159.5 76.5528 158.902 80.5426C157.669 88.1519 155.915 82.5319 152.939 88.9089C152.098 90.4728 152.059 92.3461 152.839 93.9376C153.791 96.2088 149.448 99.0989 154.161 106.73C162.338 119.678 167.538 115.163 170.73 116.39C174.951 118.014 177.971 119.562 187 114.715C191.436 112.24 196.343 109.504 195.353 104.465C194.717 100.806 201.776 99.8725 198.849 93.7055L198.838 93.7ZM192.759 87.3782C192.183 91.7216 196.675 94.5178 196.15 96.6287C195.823 98.9828 191.143 99.7288 192.028 104.99C192.327 106.769 191.304 107.957 189.799 109.062C187 111.013 183.974 112.621 180.782 113.842C174.033 116.246 173.258 112.549 168.727 112.809C165.668 112.941 163.14 114.422 156.723 105.095C152.712 98.8944 156.468 97.115 155.821 94.0923C155.423 92.1637 154.222 92.1803 155.755 89.1686C156.795 87.0853 158.521 87.5606 159.898 85.7204C160.706 84.2284 161.137 82.5651 161.165 80.8686C161.469 78.3156 162.194 77.4038 167.654 75.3758C170.614 74.3148 175.194 73.1433 177.916 74.7458C178.342 75.011 178.729 75.3315 179.056 75.7073C179.437 76.1825 180.101 81.0233 185.318 79.4318C188.576 78.4151 189.484 77.0722 191.984 79.9955C196.205 84.8307 193.212 83.2503 192.759 87.3782Z" fill="black"/>
<path d="M163.306 102.63C162.581 101.47 159.964 97.85 159.096 98.2092C157.033 99.0602 161.265 104.293 160.706 104.658C160.468 104.813 154.825 99.0215 158.399 96.9106C160.496 95.6727 163.439 99.6846 164.733 101.735C167.411 106.001 169.375 107.979 168.08 110.14C167.582 111.101 166.393 111.477 165.43 110.98C165.353 110.941 165.281 110.897 165.209 110.847C164.34 110.057 163.582 109.162 162.946 108.173C160.673 104.907 165.397 109.609 165.823 109.83C166.603 110.372 167.571 108.99 166.625 107.653C166.088 106.763 166.26 107.349 163.306 102.636V102.63Z" fill="black"/>
<path d="M170 79.3268C166.835 80.2331 164.368 81.2057 164.119 80.8188C163.87 80.4265 166.182 78.6748 169.518 77.7188C174.884 76.1825 179.946 76.4754 170 79.3324V79.3268Z" fill="black"/>
<path d="M176.245 91.7493C174.16 93.4513 170.332 95.4904 167.837 94.8881C166.786 94.6173 166.083 93.6281 166.172 92.545C166.398 90.0583 169.109 88.6326 169.231 89.0692C169.297 89.2515 167.306 90.6441 167.361 92.545C167.715 96.7337 182.475 86.4278 176.965 85.7315C175.25 85.6983 173.562 86.2012 172.141 87.1627C170.636 87.9419 170.614 87.6656 171.764 86.6267C177.214 81.6865 184.09 85.3833 176.245 91.7438V91.7493Z" fill="black"/>
<path d="M180.748 96.9824C181.75 91.0419 185.174 90.9314 185.976 93.3021C186.612 95.1699 185.561 96.6563 185.296 96.4243C185.102 96.2806 185.611 95.1643 184.886 93.7663C183.957 91.9814 182.768 95.0317 182.408 97.2587C181.733 101.481 183.039 101.663 183.586 100.464C184.333 98.8336 184.848 97.7339 185.074 97.8223C185.296 97.9107 185.163 99.0215 184.698 100.889C183.796 103.625 179.681 103.365 180.754 96.9769L180.748 96.9824Z" fill="black"/>
<path d="M181.606 110.632C179.399 111.764 176.804 111.886 174.503 110.958C172.854 110.471 171.858 110.388 171.809 110.162C171.753 109.935 172.926 109.582 174.729 109.792C176.81 110.317 179.006 110.068 180.914 109.101C184.494 107.46 189.284 104.531 189.594 105.017C189.871 105.443 185.578 108.808 181.606 110.632Z" fill="black"/>
<path d="M170.464 73.729C171.587 74.6131 170.503 76.4809 172.97 76.5141C179.803 76.5915 179.88 79.3102 181.009 82.9298C184.134 92.9595 193.483 88.5829 190.767 98.6181C189.86 101.961 187.144 104.641 188.316 107.449C190.673 113.091 202.473 105.001 205.007 99.5299C206.279 96.7669 205.919 93.3794 207.562 90.8154C211.617 84.4549 224.535 87.8313 224.424 78.9566C224.424 77.8624 224.004 76.8125 223.246 76.0278C222.72 80.6862 217.304 82.8856 213.05 82.8137C206.351 82.7032 204.885 77.6967 208.47 74.4363C211.767 71.4357 220.823 69.6895 226.748 64.0972C228.081 62.4836 229.281 60.7705 230.349 58.9691C231.284 57.1786 231.876 55.228 232.092 53.222C233.862 43.0376 237.508 43.4465 238.127 41.9877C238.442 41.2472 230.161 41.1532 225.326 49.4754C223.572 52.4981 223.124 56.0458 220.779 58.632C217.725 62.0028 211.745 63.1025 207.839 65.44C204.077 67.6891 199.264 74.055 196.72 71.9496C193.317 70.8223 196.57 63.8706 198.39 61.5497C202.351 56.4713 208.376 58.0186 212.552 55.3495C215.036 53.7636 217.448 50.4866 217.188 47.5579C214.738 51.0392 212.962 52.266 209.172 52.5644C207.319 52.7634 205.449 52.7026 203.613 52.3821C200.686 52.1389 197.749 52.6915 195.104 53.9791C193.478 55.0843 192.659 57.046 191.199 58.3612C188.61 60.4169 185.799 62.1797 182.823 63.6275C177.44 65.5505 178.569 63.0804 169.247 69.6176C168.185 70.3637 166.033 71.6402 165.928 73.1211C165.862 74.0108 166.968 74.1269 167.621 73.9887C168.495 73.8119 169.624 73.0659 170.464 73.729Z" fill="#FDFE1F"/>
<path d="M234.902 41.4461C223.357 42.4684 224.374 54.3714 218.92 58.8696C215.877 61.4502 211.092 61.7984 207.031 64.274C203.176 66.606 201.621 69.2032 199.779 70.3637C197.909 71.5904 196.404 70.8002 196.244 69.6508C196.072 68.2748 197.433 65.6445 198.125 64.3016C203.441 54.388 212.824 61.9144 216.989 50.7022C217.437 49.5693 217.67 48.3647 217.67 47.1434C217.603 46.5411 217.1 47.2926 216.707 47.8066C211.003 54.9461 205.134 50.3375 198.086 51.8903C193.876 52.7689 192.405 55.7585 190.242 57.9578C183.692 64.6056 173.966 62.8649 166.443 70.64C165.314 71.502 164.982 73.0604 165.668 74.3037C166.73 75.7073 168.285 75.116 169.48 74.7182C171.045 74.1932 170.227 76.7572 172.567 77.6082C176.494 79.1776 177.983 75.1547 179.692 82.449C180.577 86.5659 183.47 89.9644 187.393 91.5006C194.059 95.4848 186.839 100.701 186.911 106.692C186.95 110.096 190.524 112.251 196.1 109.051C210.384 100.558 204.088 97.2311 209.183 91.0806C213.205 86.2178 220.524 87.8037 224.065 82.0622C225.409 80.0507 225.055 77.3541 223.235 75.7626C223.423 76.2875 223.633 76.8015 223.877 77.3043C225.359 81.1117 221.177 84.2008 217.194 85.3115C214.168 86.2288 210.705 86.6819 207.845 89.9257C204.376 93.6557 205.289 97.7947 202.81 101.083C200.033 104.995 187.376 112.897 189.517 105.061C190.983 99.6846 197.212 93.595 186.74 88.3563C180.544 85.1899 183.255 78.6582 179.161 76.1273C177.037 74.7403 174.862 75.9339 173.502 75.3536C172.318 74.7403 172.954 71.0323 167.942 72.6901C167.942 72.6901 167.909 72.6901 167.898 72.6846C167.881 72.668 167.881 72.6459 167.887 72.6238C171.737 67.4073 181.379 66.1086 187.199 62.7709C191.929 59.9914 192.764 57.6705 194.866 55.554C200.741 49.6467 211.778 57.6815 216.95 48.2542C216.314 50.2711 215.208 52.1113 213.72 53.6254C208.398 58.9691 201.184 52.7799 195.104 65.1416C194.275 66.5894 193.832 68.2306 193.826 69.8995C194.12 72.1265 196.144 73.7014 198.379 73.4472C203.037 73.1432 203.668 67.7057 212.265 64.5945C219.379 62.0028 221.835 61.08 224.751 53.5536C227.135 47.2374 229.298 42.5403 237.967 42.0706C236.158 43.0487 234.565 44.386 233.287 45.9996C230.985 48.9394 231.494 52.3102 230.427 55.7419C229.215 59.7538 226.632 63.213 223.135 65.5229C217.371 69.2806 205.433 71.596 205.007 78.2437C204.879 80.537 206.423 82.7972 210.046 83.3498C213.581 83.7034 217.144 83.0845 220.353 81.5649C224.015 79.4429 223.545 75.7847 223.119 75.8565C222.648 75.8676 223.583 80.4597 215.556 81.3217C206.998 82.2225 205.947 78.8516 208.492 76.0997C213.012 71.0599 223.744 71.2091 229.696 62.351C232.662 57.9523 232.794 54.5317 233.182 50.7519C233.702 45.6238 238.166 43.01 238.382 42.054C239.178 41.9269 237.469 41.2638 234.891 41.4627L234.902 41.4461Z" fill="black"/>
<path d="M219.08 33.7982C219.849 34.406 219.954 35.1355 219.683 35.6107C219.473 35.9809 219.041 36.1633 218.754 36.4783C218.582 36.6606 218.466 36.8872 218.289 37.064C217.62 37.6498 216.685 37.8266 215.849 37.5227C215.534 37.3459 215.335 37.0917 214.527 36.1965C213.941 35.7599 213.825 34.931 214.256 34.3453C214.638 33.555 214.87 33.6877 215.18 33.3506C215.401 33.1074 215.462 32.7317 215.716 32.5161C216.043 32.2398 216.519 32.3338 216.911 32.2785C217.343 32.2177 217.492 32.052 217.863 32.3062C218.571 32.7924 218.234 33.1295 219.091 33.8037L219.08 33.7982Z" fill="white"/>
<path d="M220.225 34.3452C219.971 33.7429 219.401 33.5605 219.235 33.4169C218.914 33.1295 218.97 31.5988 216.641 31.7093C215.324 31.7922 215.009 32.7317 214.71 33.0743C214.5 33.3174 214.218 33.3395 213.924 33.6158C213.393 34.4171 213.338 35.4449 213.786 36.2904C214.123 36.8098 214.677 36.8927 214.721 37.0419C214.798 37.263 214.915 37.4674 215.058 37.6498C215.783 38.3626 217.343 38.3461 218.145 37.9979C218.638 37.7658 218.997 37.3293 219.119 36.7988C219.174 36.6606 219.91 36.5059 220.159 35.9754C220.424 35.467 220.447 34.8647 220.22 34.3397L220.225 34.3452ZM219.407 35.1134C219.362 35.8649 218.793 35.5831 218.311 36.2186C218.201 36.423 218.107 36.633 218.024 36.8485C217.681 37.4011 216.065 37.2795 215.783 36.9811C215.689 36.8651 215.667 36.6993 215.523 36.4949C215.18 36.0417 214.776 36.0528 214.56 35.7709C214.35 35.2736 214.339 34.71 214.527 34.2071C214.627 34.08 215.053 33.9363 215.318 33.555C215.789 32.8864 215.778 32.0741 217.492 32.5769C218.383 32.8698 218.046 33.5661 218.621 34.0966C218.947 34.395 219.456 34.5 219.407 35.1189V35.1134Z" fill="black"/>
<path d="M216.74 36.7491C216.043 36.6441 215.761 36.0473 215.479 35.6162C215.274 35.3013 215.08 35.1742 215.108 35.1078C215.119 35.036 215.44 35.0747 215.755 35.3897C216.06 35.6881 216.364 36.1909 216.806 36.2517C217.183 36.3567 217.343 35.6494 217.758 35.3731C218.156 35.1078 218.455 35.1742 218.455 35.2294C218.472 35.3013 218.228 35.3841 217.996 35.6383C217.725 35.9367 217.537 36.8706 216.751 36.7491H216.74Z" fill="black"/>
<path d="M222.338 142.859C222.112 141.97 221.597 141.174 220.872 140.61C220.458 140.373 220.485 140.45 216.923 140.693C211.706 141.058 211.883 140.19 209.333 139.947C208.176 139.837 207.009 140.03 205.858 139.892C202.866 139.533 199.911 138.527 196.968 137.886C194.573 137.388 192.222 136.72 189.926 135.874C187.215 135.106 183.492 135.101 177.767 132.216C177.053 131.868 176.312 131.581 175.554 131.354C154.139 124.833 156.573 124.408 154.217 123.601C136.259 117.456 128.99 112.356 124.194 111.09C122.651 109.51 120.819 109.67 112.057 105.515C101.822 100.663 100.024 99.3807 97.867 98.4247C94.675 97.0156 96.4729 98.0103 92.8439 95.6562C88.6782 92.9484 83.6827 91.6277 79.7329 88.6161C79.4728 88.4226 79.1575 88.2071 78.8533 88.3177C76.7068 86.7593 74.3944 85.4386 71.9658 84.3776C61.9417 79.2716 46.3634 68.8385 44.7979 68.3412C43.177 67.8273 34.4142 60.4998 31.0175 58.7315C30.6911 58.4662 30.3868 58.1789 30.1047 57.8639C25.231 54.0952 12.474 43.9439 9.1603 38.5118C8.46326 37.9813 7.49515 37.9869 6.80364 38.5284C5.43722 39.4955 5.60872 41.2417 5.29892 41.9159C4.93934 42.7061 4.83976 42.3303 5.60319 43.3802C6.693 44.8612 20.7555 59.2233 33.4295 66.9873C36.284 68.8109 39.0335 70.7837 41.6778 72.9001C41.7884 72.972 76.5574 94.3797 80.452 95.7888C82.9138 96.8166 85.2871 98.0434 87.5552 99.4525C93.6737 102.868 100.567 105.222 106.646 108.714C122.424 117.766 176.693 138.947 188.886 141.356C197.14 142.986 194.036 143.672 211.662 146.191C212.596 146.324 213.531 146.064 214.472 146.136C216.474 146.274 218.477 146.291 220.48 146.197C221.791 145.639 222.554 144.257 222.333 142.854L222.338 142.859Z" fill="#FF9A15"/>
<path d="M223.041 141.168L222.228 139.77C188.067 147.308 27.9415 69.5514 8.64013 36.3125C8.40779 35.9146 8.72312 35.8649 7.12988 36.7877C25.8781 70.5295 189.572 149.872 223.041 141.163V141.168Z" fill="black"/>
<path d="M225.049 144.622C200.083 153.165 86.7696 105.089 28.9872 62.7323C-0.797463 40.9046 6.3389 37.2354 2.42773 39.5065C22.9849 76.0555 192.98 157.862 225.768 145.816L225.049 144.622Z" fill="black"/>
<path d="M48.6717 157.044C48.6939 159.117 51.742 160.167 51.7642 162.233C51.7808 163.477 50.6578 164.471 50.5194 165.704C50.2262 168.19 53.9051 170.368 52.6936 172.556C52.2289 173.396 50.3092 174.368 52.4004 176.861C53.1804 177.568 53.7778 178.452 54.143 179.436C54.7847 182.331 51.2497 182.862 55.7915 189.438C56.0515 189.814 56.3724 192.383 56.7652 193.008C57.3239 192.958 57.9103 192.82 58.6129 192.251C60.3721 190.83 59.3652 189.57 61.13 188.156C62.8947 186.741 63.9071 188.018 65.6773 186.614C67.4476 185.216 66.4407 183.939 68.2221 182.541C69.9979 181.143 71.0047 182.414 72.7805 181.022C74.5563 179.629 73.555 178.353 75.3363 176.955C77.1176 175.557 78.1189 176.839 79.8947 175.446C81.676 174.053 80.6692 172.777 82.4505 171.384C84.2263 169.992 85.2332 171.268 87.009 169.876C88.7848 168.483 87.7779 167.207 89.5482 165.809C91.3184 164.411 92.3308 165.687 94.0955 164.283C95.8603 162.88 94.8534 161.614 96.6126 160.205C98.3718 158.796 99.3953 160.073 101.149 158.653C102.908 157.232 101.885 155.972 103.633 154.552C104.219 154.077 104.723 153.906 105.198 153.828C105.198 153.701 105.187 153.574 105.171 153.447C103.434 150.363 101.769 151.226 99.9429 149.512C98.062 147.739 98.2003 144.13 95.7994 143.18C95.3237 143.058 94.8645 142.887 94.4275 142.671C93.2159 141.87 93.6862 139.936 92.9283 138.693C92.2146 137.527 90.6159 137.261 89.6422 136.294C88.3588 135.029 88.3422 132.73 86.8098 131.769C86.1736 131.503 85.554 131.199 84.9566 130.851C83.7838 129.873 84.2097 127.884 83.2693 126.679C82.4671 125.64 80.896 125.48 80.033 124.485C79.0096 123.297 79.3304 121.33 78.2572 120.192C77.1342 119.003 74.9546 119.236 73.9975 117.904C73.1954 116.782 73.6933 115.091 72.8911 113.964C72.0834 112.836 70.4238 112.831 69.2732 112.063C67.3314 110.775 67.3646 108.045 66.2526 106.194C64.5764 103.404 61.8934 103.967 59.2103 105.807C56.6213 107.581 53.9493 110.046 48.3011 111.35C41.3362 112.953 44.7384 115.848 44.6831 118.368C44.6555 119.6 43.8478 120.739 43.9474 121.965C44.0857 123.739 46.0274 124.961 46.1989 126.723C46.3261 128 45.4853 129.204 45.5185 130.487C45.5572 132.133 47.0011 133.465 47.1892 135.106C47.4104 137.024 45.8836 139.063 46.7742 140.776C47.2555 141.704 48.3509 142.246 48.6994 143.229C49.2858 144.887 47.4713 146.523 47.6096 148.269C47.759 150.165 50.1267 151.419 50.0271 153.32C49.9552 154.646 48.6662 155.696 48.6773 157.028L48.6717 157.044Z" fill="url(#paint0_linear_422_2469)"/>
<path d="M83.6781 124.634C82.3725 123.082 81.1333 124.121 79.8388 122.568C78.5443 121.015 79.7724 119.976 78.4669 118.429C77.1613 116.882 75.9166 117.943 74.6055 116.406C73.2944 114.87 74.517 113.815 73.1893 112.284C71.8671 110.753 70.6335 111.82 69.3058 110.3C67.8121 108.598 69.61 107.858 67.0764 105.399C63.3477 101.784 62.1196 103.884 65.7763 108.018C67.1151 109.526 65.9036 110.598 67.2313 112.107C68.559 113.621 69.7871 112.555 71.1037 114.074C72.4203 115.594 71.1922 116.66 72.5088 118.186C73.8255 119.711 75.0536 118.661 76.3647 120.197C77.6758 121.739 76.4255 122.783 77.7256 124.325C79.0256 125.867 80.2648 124.828 81.5593 126.381C82.8538 127.928 81.587 128.967 82.8759 130.52C84.1649 132.078 85.4096 131.05 86.6875 132.614C87.9654 134.178 86.6931 135.206 87.9599 136.764C89.2212 138.322 90.4881 137.317 91.7494 138.892C93.0107 140.466 91.7272 141.483 92.983 143.058C94.2333 144.633 95.5056 143.638 96.7504 145.23C97.9951 146.821 96.7006 147.822 97.9342 149.408C99.1679 150.999 100.457 150.015 101.679 151.618C105.497 156.613 107.466 154.69 103.865 149.96C102.631 148.352 101.348 149.336 100.114 147.733C98.8802 146.131 100.164 145.141 98.9189 143.539C97.6742 141.942 96.3908 142.942 95.1405 141.356C93.8903 139.77 95.1627 138.764 93.8958 137.184C92.629 135.604 91.3621 136.615 90.0953 135.04C88.8284 133.465 90.0897 132.448 88.8118 130.873C87.5339 129.298 86.2726 130.337 84.9892 128.768C83.7113 127.204 84.9615 126.187 83.6726 124.618L83.6781 124.634Z" fill="black"/>
<path d="M50.4523 144.13C50.1204 141.898 48.5106 142.135 48.1731 139.903C47.8357 137.67 49.44 137.427 49.097 135.195C48.754 132.962 47.1497 133.211 46.7956 130.978C46.4416 128.746 48.0514 128.492 47.6863 126.259C47.3212 124.027 45.7224 124.286 45.3518 122.059C44.9811 119.832 46.5854 119.562 46.1982 117.329C45.0586 110.748 42.287 110.902 43.4764 117.799C43.8581 120.02 42.2649 120.291 42.63 122.507C43.0006 124.723 44.5994 124.463 44.9645 126.696C45.3296 128.923 43.7143 129.177 44.0683 131.404C44.4224 133.631 46.0267 133.382 46.3697 135.609C46.7127 137.842 45.1084 138.085 45.4403 140.312C45.7777 142.539 47.3876 142.301 47.7195 144.534C48.0514 146.766 46.4416 147.004 46.7735 149.236C47.1054 151.469 48.7097 151.231 49.0417 153.464C49.368 155.696 47.7582 155.928 48.0901 158.166C48.4221 160.404 50.0319 160.161 50.3583 162.394C50.6902 164.626 49.0804 164.864 49.4178 167.102C49.7553 169.334 51.3596 169.097 51.697 171.324C52.0345 173.556 50.4302 173.805 50.7843 176.032C51.1383 178.264 52.7315 178.016 53.0967 180.243C53.4562 182.475 51.8464 182.729 52.2115 184.967C52.5766 187.2 54.1809 186.935 54.5571 189.162C55.6912 195.826 58.4185 195.5 57.2623 188.703C56.8861 186.481 55.2984 186.747 54.9278 184.525C54.5571 182.298 56.1725 182.039 55.8129 179.817C55.4533 177.596 53.8545 177.844 53.5005 175.617C53.1464 173.396 54.7563 173.142 54.4188 170.909C54.0758 168.682 52.4715 168.925 52.1396 166.693C51.8077 164.46 53.4065 164.223 53.0801 161.99C52.7481 159.758 51.1438 159.995 50.8119 157.763C50.48 155.53 52.0954 155.298 51.7634 153.06C51.4315 150.822 49.8272 151.065 49.5008 148.827C49.1744 146.595 50.7732 146.363 50.4468 144.125L50.4523 144.13Z" fill="black"/>
<path d="M70.7882 99.3696C74.1351 97.1261 77.5982 94.2194 76.9177 90.1191C76.4696 87.8424 74.7989 86.0023 72.5806 85.3281C70.4507 84.6208 61.5552 84.7202 58.4461 86.063C57.3287 86.5438 57.7436 86.4664 56.7146 86.4775C52.7868 86.5106 24.5235 99.2591 21.1434 108.15C20.3357 110.013 20.7672 112.179 22.2332 113.588C23.4835 114.599 26.3602 115.014 27.9589 115.196C30.5535 115.677 33.2365 115.439 35.7038 114.505C48.4331 110.593 56.4048 109.013 70.7882 99.3696Z" fill="#5FA8FF"/>
<path d="M41.7506 104.387C42.3426 104.227 51.1551 100.939 52.1952 100.453C56.2778 98.5518 60.0507 94.9046 60.3826 93.4458C60.6979 92.0643 59.0328 87.3174 55.437 84.4605C51.4926 81.3328 47.8082 81.5041 43.7366 82.5153C41.4961 82.8635 39.4272 83.9245 37.8284 85.5325C32.9104 89.9312 32.6559 92.755 33.624 100.309C33.6185 101.37 34.0777 102.381 34.8798 103.083C36.7552 104.741 39.394 105.244 41.7506 104.387Z" fill="#50FF9B"/>
<path d="M74.2347 84.9799C70.1355 83.079 62.374 84.2671 57.976 85.2839C54.264 81.4986 48.8426 79.9292 43.6756 81.1394C39.6427 82.1838 37.4465 84.5821 35.4439 86.9085C33.2643 89.4505 32.44 93.3408 32.3404 96.6288C26.9134 99.6625 17.4979 107.382 20.6622 112.693C22.4933 115.97 27.5386 116.937 31.1787 116.782C41.5956 116.379 71.4576 104.15 76.8071 95.1036C79.7059 90.1965 77.9689 86.4443 74.2292 84.9799H74.2347ZM34.5754 97.3029C34.0941 84.9081 44.8429 80.2718 52.3941 84.2726C54.7121 85.4662 58.1641 88.2845 58.8943 90.7822C60.4488 96.1977 43.7365 103.641 38.575 103.453C35.6043 103.172 34.7413 100.292 34.5809 97.3029H34.5754ZM75.8667 91.053C74.113 100.829 40.2402 113.82 31.0736 114.295C28.3684 114.445 24.0644 113.864 22.6704 111.549C20.5571 107.968 28.7114 100.994 32.4068 98.6126C32.6723 101.519 34.0996 104.967 36.8435 105.586C41.1972 107.056 50.6792 102.785 54.7397 100.215C60.6093 96.4464 64.017 92.0974 59.4531 86.7925C63.1429 86.1791 69.9142 85.3944 73.3053 87.0135C75.0535 87.8479 76.2318 89.2018 75.8722 91.0585L75.8667 91.053Z" fill="black"/>
<path d="M83.1904 134.404C77.8409 131.056 69.1777 131.564 65.4546 137.068C64.3427 138.709 64.0384 141.456 63.8393 143.401C63.6235 145.351 63.5295 146.556 64.6691 148.059C68.359 152.867 78.0456 153.817 82.947 149.855C84.7007 148.418 85.9233 146.904 86.2386 141.561C86.4322 138.477 86.1446 136.283 83.196 134.404H83.1904Z" fill="black" stroke="black" stroke-width="2.17" stroke-miterlimit="10"/>
<path d="M65.4428 148.407C63.7888 146.849 63.7002 145.838 63.9326 143.931C64.4969 139.356 65.2769 135.919 69.7357 133.951C71.2183 133.382 72.7562 132.973 74.3218 132.725C75.561 132.697 76.8002 132.78 78.0283 132.962C80.8109 133.382 84.5008 134.907 85.4634 137.698C85.834 139.035 85.917 140.439 85.7123 141.809C85.2366 147.479 83.6378 150.839 76.3576 151.712C74.5486 151.927 73.8018 151.612 72.2915 151.546C69.7247 151.286 67.3127 150.181 65.4428 148.407Z" fill="#FDFE1F"/>
<path d="M83.1904 134.404C77.8409 131.056 69.1777 131.564 65.4546 137.068C64.3427 138.709 64.0384 141.456 63.8393 143.401C63.6235 145.351 63.5295 146.556 64.6691 148.059C68.359 152.867 78.0456 153.817 82.947 149.855C84.7007 148.418 85.9233 146.904 86.2386 141.561C86.4322 138.477 86.1446 136.283 83.196 134.404H83.1904ZM64.9789 141.395C65.2831 142.837 66.1351 144.108 67.3577 144.937C67.1862 146.843 67.507 146.523 66.6717 148.739C64.1214 146.722 64.4423 145.18 64.9844 141.389L64.9789 141.395ZM67.2857 149.187C67.3632 148.65 67.4019 147.838 67.5291 147.197C67.6453 146.606 67.8943 145.915 68.0326 145.401C69.2441 146.114 70.5663 146.628 71.9437 146.921C71.6616 148.529 72.1318 147.949 71.1139 150.9C69.7475 150.557 68.4475 149.982 67.2802 149.198L67.2857 149.187ZM71.7944 151.043C72.1097 147.844 72.1872 148.982 72.7016 147.065C74.2119 147.335 75.7553 147.418 77.2877 147.313C76.9447 150.187 77.3928 148.214 76.4468 151.286C74.8923 151.425 73.3212 151.347 71.7888 151.043H71.7944ZM77.2047 151.192C77.5035 147.921 77.7911 148.606 78.0788 147.241C79.3401 147.109 80.5682 146.788 81.7355 146.296C81.8019 148.711 81.6027 148.186 81.2874 149.839C80.0261 150.546 78.6375 151.005 77.2047 151.192ZM82.0176 149.369C81.9512 147.109 82.7202 145.932 82.4768 145.915C83.6496 145.208 84.5956 144.18 85.2096 142.959C84.6675 147.004 83.7602 148.12 82.0176 149.369ZM85.0603 137.681C85.4309 138.814 85.5416 140.019 85.3756 141.201C84.5679 144.572 81.9125 146.048 78.8146 146.556C69.4211 148.148 61.3166 141.898 67.3687 136.057C72.9948 130.625 83.2679 133.156 85.0603 137.676V137.681Z" fill="black"/>
<path d="M77.4974 134.587C76.9165 134.493 76.3246 134.471 75.7382 134.509C75.7271 134.686 78.8472 134.526 81.7128 136.665C84.1525 138.516 84.3406 140.98 83.0903 142.401C81.652 144.036 77.4476 144.777 75.2126 144.733C70.7538 144.622 65.7252 142.24 67.3903 138.372C69.238 134.056 77.5748 134.598 75.2016 134.443C71.4674 134.194 66.4167 136.106 66.5494 140.063C66.6214 143.224 72.2973 146.777 79.7102 144.71C81.1209 144.307 82.5648 143.859 83.4997 142.749C85.6406 140.279 83.7763 135.526 77.4974 134.581V134.587Z" fill="black"/>
<path d="M81.7465 140.129C81.658 140.058 80.9333 139.516 78.2391 137.505C78.2225 137.488 78.1949 137.471 78.1728 137.471C78.1451 137.471 78.1174 137.471 78.1008 137.494C77.6472 137.715 76.7068 138.168 76.6736 138.19C76.9502 138.383 76.5353 138.074 78.8643 139.814C79.0302 139.936 79.0524 139.781 76.3638 141.124L77.6638 142.102L81.7465 140.129Z" fill="black"/>
<path d="M72.1208 139.207L74.6379 137.996L73.3379 137.018L69.2607 138.986L72.8234 141.655L74.306 140.936C71.8995 139.118 72.0046 139.262 72.1208 139.212V139.207Z" fill="black"/>
<path d="M76.9005 139.682L75.5949 138.704L74.0957 139.428L75.4013 140.406L76.9005 139.682Z" fill="black"/>
<path d="M77.2045 136.742L75.9155 135.78L74.4385 136.488L75.7274 137.455L77.2045 136.742Z" fill="black"/>
<path d="M75.0195 143.307C75.1135 143.379 75.0029 143.384 76.5186 142.66C76.6072 142.616 76.6569 142.688 75.3182 141.682C75.2518 141.632 75.4178 141.583 73.7803 142.373C73.8245 142.412 74.505 142.914 75.0195 143.307Z" fill="black"/>
<path d="M68.0221 124.143C67.8783 122.673 67.5574 121.219 67.0761 119.821C64.8135 114.152 54.6179 115.329 53.0413 119.926C52.5323 121.413 53.3566 124.927 53.9983 126.226C54.7894 127.906 57.7214 129.713 61.9922 128.983C64.6808 128.519 68 126.585 68.0277 124.143H68.0221Z" fill="black" stroke="black" stroke-width="1.45" stroke-miterlimit="10"/>
<path d="M67.4524 125.016C66.8162 126.784 64.3378 128.061 62.5731 128.575C60.1058 129.287 58.2083 128.724 56.2001 127.823C55.3205 127.525 54.6235 126.856 54.286 125.994C53.8379 125.264 53.5392 124.458 53.4009 123.618C53.1464 120.954 52.7039 119.33 55.0827 117.782C60.5151 114.262 66.4123 117.058 67.1315 120.805C67.3638 122.026 67.989 123.524 67.4468 125.021L67.4524 125.016Z" fill="#FDFE1F"/>
<path d="M68.0221 124.143C67.8783 122.673 67.5574 121.219 67.0761 119.821C64.8135 114.152 54.6179 115.329 53.0413 119.926C52.5323 121.413 53.3566 124.927 53.9983 126.226C54.7894 127.906 57.7214 129.713 61.9922 128.983C64.6808 128.519 68 126.585 68.0277 124.143H68.0221ZM66.2519 126.281C65.5659 124.861 65.7982 125.043 65.5825 123.828C66.3348 123.214 66.8161 122.33 66.9378 121.369C67.6017 124.22 67.657 124.955 66.2519 126.281ZM53.5613 120.087C54.4962 116.953 61.107 114.809 65.0625 118.009C66.44 119.125 66.8272 120.335 66.5672 121.65C65.8204 124.601 61.19 125.789 58.164 125.546C56.1227 125.392 54.286 124.59 53.5558 122.413C53.3787 121.645 53.3843 120.849 53.5558 120.087H53.5613ZM53.766 123.557C54.2418 124.314 54.9111 124.927 55.7022 125.342C55.7963 125.988 56.1393 126.132 56.2278 127.574C54.6456 126.64 54.2196 125.574 53.766 123.557ZM56.7256 127.84C56.4324 126.795 56.3218 127.121 56.2278 125.546C57.0188 125.8 57.8487 125.939 58.6785 125.955C58.9385 126.812 59.1044 126.403 59.4806 128.497C58.5291 128.453 57.5942 128.232 56.7256 127.84ZM59.984 128.508C59.1874 126.558 59.5968 127.829 59.204 125.955C60.2164 125.939 61.2232 125.795 62.1969 125.53C62.645 126.756 62.6339 126.022 63.0211 128.083C62.0309 128.37 61.013 128.508 59.984 128.508ZM63.4582 127.945C62.6228 126.06 62.9879 126.502 62.6892 125.386C63.5743 125.115 64.4097 124.706 65.1676 124.165C65.2893 124.496 65.4884 124.933 65.5991 125.314C65.7208 125.729 65.7927 126.259 65.8757 126.607C65.1565 127.188 64.3378 127.641 63.4582 127.945Z" fill="black"/>
<path d="M54.2141 122.137C54.6456 124.364 58.4019 124.751 60.4598 124.53C63.5854 124.176 66.9711 122.076 65.4608 119.379C64.0557 116.859 59.5249 117.313 59.547 117.473C59.5581 117.594 61.4667 117.169 63.685 118.158C64.6919 118.584 65.3889 119.523 65.494 120.606C65.7042 124.949 53.2405 125.64 54.5848 120.954C55.3703 117.86 60.7807 117.329 59.1874 117.484C56.6648 117.727 53.7218 119.7 54.2197 122.142L54.2141 122.137Z" fill="black"/>
<path d="M63.3421 119.622C63.2868 119.473 63.2425 119.324 63.2093 119.169C62.5289 119.241 61.074 119.611 59.9067 119.727C55.5806 120.164 56.6815 119.788 56.6206 120.462C55.9347 120.501 55.4202 121.054 56.5211 120.855C56.6151 120.838 56.5985 120.822 56.5985 120.893C56.5985 121.429 56.7202 121.363 56.5819 121.38C55.7521 121.479 55.741 121.86 56.6317 121.75C56.8087 121.728 56.7424 121.7 56.8198 121.833C57.55 123.192 59.8293 122.374 60.4046 121.258C60.7531 121.744 61.345 121.993 61.9425 121.91C62.5344 121.827 63.0378 121.424 63.2425 120.86C63.7791 120.882 64.1387 120.584 64.0889 120.49C64.0391 120.396 63.7515 120.44 63.4085 120.479C63.2591 120.501 63.3532 120.562 63.3587 119.998C64.2936 119.948 64.2881 119.506 63.3421 119.622ZM57.3454 120.606C58.1696 120.363 59.0105 120.181 59.8569 120.059C59.9565 120.424 59.9399 120.805 59.8182 121.164C59.2207 122.396 56.8751 122.883 57.3454 120.606ZM62.5455 121.208C62.4072 121.38 62.2191 121.501 62.0034 121.551C61.7876 121.601 61.5663 121.573 61.3672 121.479C60.7697 121.181 60.7476 120.479 60.6757 119.998C61.3672 119.965 62.0974 119.965 62.6617 119.943C62.8166 120.357 62.7723 120.822 62.551 121.208H62.5455Z" fill="black"/>
<path d="M86.4607 178.436C86.588 176.933 85.3875 171.815 84.7126 170.014C80.298 158.387 60.6813 162.786 57.7936 171.473C56.6816 175.208 58.6566 183.111 60.3383 185.061C67.7291 193.709 85.7471 186.785 86.4607 178.436Z" fill="black" stroke="black" stroke-width="3.62" stroke-miterlimit="10"/>
<path d="M85.4755 176.501C85.8572 179.701 85.4147 182.077 80.3473 185.492C75.2136 188.952 67.6733 189.874 62.2519 186.078C61.5383 185.625 60.9242 185.034 60.454 184.332C59.9451 183.531 59.5855 182.646 59.3808 181.718C58.7999 178.104 53.1738 169.445 67.0095 164.366C72.3811 162.394 76.9064 163.167 81.8244 166.256C82.4827 166.693 83.0304 167.279 83.4176 167.975C84.3359 170.76 85.0219 173.611 85.4811 176.501H85.4755Z" fill="#FDFE1F"/>
<path d="M86.4607 178.436C86.588 176.933 85.3875 171.815 84.7126 170.014C80.298 158.387 60.6813 162.786 57.7936 171.473C56.6816 175.208 58.6566 183.111 60.3383 185.061C67.7291 193.709 85.7471 186.785 86.4607 178.436ZM83.1138 182.448C81.7751 179.734 82.2508 180.082 81.7972 177.728C83.2134 176.402 84.1151 174.612 84.3364 172.683C85.6973 178.325 85.7305 179.673 83.1138 182.448ZM80.8789 166.45C83.0806 167.958 84.1594 170.638 83.6228 173.247C81.4542 182.182 58.7949 187.509 58.4795 174.131C58.2914 166.024 73.134 160.172 80.8789 166.45ZM59.1766 178.845C60.0783 180.265 61.3783 181.392 62.9162 182.077C63.1154 183.359 63.7848 183.58 63.9729 186.47C60.8749 184.84 60.0396 182.619 59.1766 178.845ZM64.9521 186.924C64.3214 184.768 64.1665 185.564 63.9507 182.425C65.4831 182.823 67.0653 182.978 68.6475 182.884C69.2117 184.625 69.4662 183.718 70.2352 187.808C68.4317 187.874 66.6338 187.576 64.9465 186.924H64.9521ZM71.1922 187.764C70.9267 187.139 70.4343 186.205 70.1799 185.404C69.9198 184.569 69.7926 183.475 69.6488 182.818C71.6016 182.635 73.5268 182.215 75.3745 181.563C76.2707 183.89 76.2264 182.564 76.9954 186.487C75.131 187.189 73.1782 187.62 71.1867 187.769L71.1922 187.764ZM77.8141 186.144C76.1047 182.409 76.94 183.464 76.2928 181.204C77.9967 180.536 79.5899 179.607 81.0116 178.447C81.2551 179.077 81.6368 179.906 81.8525 180.624C82.0959 181.431 82.2453 182.47 82.4057 183.138C81.0504 184.387 79.4958 185.404 77.8086 186.139L77.8141 186.144Z" fill="black"/>
<path d="M59.9457 175.651C60.5377 180.221 67.663 180.629 72.0056 179.823C77.9305 178.69 84.1596 174.263 81.6038 169.218C78.9982 164.112 70.0362 165.698 70.1026 166.019C70.1358 166.218 73.9474 165.135 78.1905 166.831C80.7186 167.886 82.594 170.848 80.8569 173.777C77.4603 179.718 64.9301 180.994 61.5888 177.551C60.073 175.988 59.9845 172.849 62.8667 169.964C66.2136 166.649 70.0417 166.262 69.9864 166.041C69.9588 165.914 68.2106 166.367 67.7902 166.505C63.6246 167.848 59.3427 171.489 59.9457 175.645V175.651Z" fill="black"/>
<path d="M68.1884 172.722C68.288 172.694 68.299 172.888 67.7016 170.688C67.696 170.661 67.6794 170.661 67.6296 170.672C64.4266 171.545 65.3449 171.086 63.8789 172.407C64.1776 173.799 64.5538 175.17 65.0019 176.524C67.0045 176.933 65.4168 177.109 71.8008 175.385C71.8949 175.358 71.8008 175.418 72.9736 174.363C73.123 174.23 72.1549 171.65 72.343 171.594L74.8988 170.904C74.9984 170.876 74.9264 170.771 75.3303 172.224C75.3358 172.247 75.3303 172.258 75.2805 172.269L74.0579 172.6C73.9528 172.628 73.9473 172.434 74.5392 174.634C74.5447 174.661 74.5669 174.661 74.6166 174.65C77.8142 173.777 76.9069 174.23 78.3453 172.932C78.0797 171.517 77.6869 170.13 77.1725 168.787C75.629 168.467 75.7341 168.472 75.6345 168.5C69.3003 170.207 70.7663 169.577 69.2505 170.948C69.1012 171.081 70.0969 173.65 69.8812 173.711L67.3254 174.402C67.2811 174.413 67.2645 174.413 67.2535 174.385C66.8773 172.976 66.8607 173.081 66.9603 173.059C67.3641 172.948 67.7735 172.838 68.1773 172.727L68.1884 172.722Z" fill="black"/>
<defs>
<linearGradient id="paint0_linear_422_2469" x1="84.3978" y1="183.094" x2="56.5205" y2="106.412" gradientUnits="userSpaceOnUse">
<stop stop-color="white"/>
<stop offset="0.15" stop-color="white"/>
<stop offset="1" stop-color="white"/>
</linearGradient>
</defs>
</svg>
