<svg width="12" height="18" viewBox="0 0 12 18" fill="none" xmlns="http://www.w3.org/2000/svg">
<path fill-rule="evenodd" clip-rule="evenodd" d="M9.5886 5.6517C8.6932 4.78344 7.19058 4.78344 6.29519 5.6517L5.47183 6.4501C5.26599 6.6497 4.94694 6.6497 4.7411 6.4501C4.53526 6.2505 4.53526 5.94112 4.7411 5.74152L5.56445 4.94311C6.86124 3.68563 9.01225 3.68563 10.309 4.94311C11.6058 6.2006 11.6058 8.28643 10.309 9.54391L9.48567 10.3423C9.27983 10.5419 8.96079 10.5419 8.75495 10.3423C8.54912 10.1427 8.54912 9.83333 8.75495 9.63373L9.57831 8.83533C10.4737 7.96707 10.4737 6.50998 9.57831 5.64172L9.5886 5.6517ZM8.04481 7.14871C8.25065 7.34831 8.25065 7.65769 8.04481 7.85729L4.95723 10.8513C4.7514 11.0509 4.43234 11.0509 4.2265 10.8513C4.02066 10.6517 4.02066 10.3423 4.2265 10.1427L7.31408 7.14871C7.51991 6.9491 7.83897 6.9491 8.04481 7.14871ZM3.51637 7.64771C3.72221 7.84731 3.72221 8.15669 3.51637 8.35629L2.69302 9.15469C1.79762 10.023 1.79762 11.48 2.69302 12.3483C3.58841 13.2166 5.09103 13.2166 5.98643 12.3483L6.80978 11.5499C7.01562 11.3503 7.33466 11.3503 7.5405 11.5499C7.74634 11.7495 7.74634 12.0589 7.5405 12.2585L6.71714 13.0569C5.42036 14.3144 3.26937 14.3144 1.97259 13.0569C0.675805 11.7994 0.675805 9.71357 1.97259 8.45609L2.79593 7.65769C3.00176 7.45808 3.32082 7.45808 3.52666 7.65769L3.51637 7.64771Z" fill="#5FA8FF"/>
</svg>
